<?xml version="1.0" encoding="utf-8"?>
<!-- Generator: Adobe Illustrator 21.1.0, SVG Export Plug-In . SVG Version: 6.00 Build 0)  -->
<svg version="1.1" id="Слой_1" xmlns="http://www.w3.org/2000/svg" xmlns:xlink="http://www.w3.org/1999/xlink" x="0px" y="0px"
	 viewBox="0 0 143.5 53.4" style="enable-background:new 0 0 143.5 53.4;" xml:space="preserve">
<style type="text/css">
	.st0{fill:#A79546;}
</style>
<title>Ресурс 11</title>
<path class="st0" d="M140.2,27.6c0.4-1.8-2-0.1-3.4,1.2c0.4-0.5,0.4-1.2,0.1-1.8c-0.2-1.4-1.6-0.3-1.6-0.3c-0.9-2.7-4.8,2.9-4.8,2.9
	c-0.9-2.6-3.8,1.8-4.5,3c-2.5,0.9-5,1.5-7.6,2c-0.2-0.1-0.3-0.1-0.5-0.2c0.5-0.5,0.7-1.1,0.8-1.8c3.8,0.6,3.4-2.4,3.4-2.4
	c4.3-2.4,1.4-3.8,1.4-3.8c3-5.4-0.5-4.6-0.5-4.6c0.6-7.7-3.4-1.8-3.4-1.8c-1.3-1.4-1.3,1.5-1.2,3.4c-0.2-0.6-0.7-1.1-1.4-1.2
	c-1.3-0.7-1.2,1.1-1.2,1.1c-2.7-0.9-0.5,5.6-0.5,5.6c-3-1-0.2,5.7-0.2,5.7c0.3,0.1,0.6,0.2,0.8,0.2c-3.1,0.4-6.2,0.4-9.3,0.1
	c-0.4-0.2-1-0.3-1.4-0.2c-1-0.1-1.9-0.3-2.8-0.5c0.2-0.2,0.4-0.5,0.6-0.8c3.2,2,4-0.9,4-0.9c4.9-0.5,2.8-2.9,2.8-2.9
	c4.9-3.8,1.3-4.5,1.3-4.5c3.5-6.8-2.4-2.9-2.4-2.9c-0.6-1.8-1.8,0.9-2.4,2.7c0.1-0.6-0.3-1.3-0.8-1.6c-0.9-1.1-1.6,0.6-1.6,0.6
	c-2.1-1.8-2.6,4.9-2.6,4.9c-2-1.7-2.3,2.8-2.3,4.6c-1.8-0.5-3.5-1.2-5.2-2l-0.1,0c0,0,3.8-2.6-3.8-4.3c0,0,1.2-3.9-4.8-2
	c-0.6-0.7-1.5-1-2.4-1c1.9-0.9,3.8-2,5.7-3.1c2.1,2.7,4.7,0.2,4.7,0.2c3.1,3.7,5.2,0.5,5.2,0.5c6.1,1.3,4.5-2.5,4.5-2.5
	c7.3-2.7,3.3-4.9,3.3-4.9c6.9-6.9-1.8-4.5-1.8-4.5c-0.1-2.4-2.5,0.4-3.9,2.3c0.3-0.7,0.2-1.6-0.3-2.2c-0.7-1.7-2.1,0.1-2.1,0.1
	c-1.9-3.1-5.1,4.9-5.1,4.9c-1.8-3-4.2,3.3-4.8,5c-2.7,1.7-5.4,3.1-8.3,4.3c0.5-0.8,0.7-1.7,0.6-2.6c4.8-0.3,3.5-3.9,3.5-3.9
	c4.7-4.1,0.7-5.1,0.7-5.1c2.2-7.5-1.9-5.6-1.9-5.6C81.2-2.4,78,6.1,78,6.1c-1.9-1.4-1.2,2.2-0.5,4.5c-0.4-0.7-1.2-1.1-2-1.1
	c-1.8-0.5-1.2,1.7-1.2,1.7c-3.6-0.4,0.9,7,0.9,7c-4.1-0.4,1.4,7.2,1.4,7.2c0.2,0,0.4,0,0.6,0c-3.9,1.5-8.1,2.5-12.2,3
	c-0.6-0.2-1.3-0.1-1.8,0.2c-1.3,0.1-2.5,0.2-3.7,0.2c0.8-0.5,1.4-1.3,1.7-2.2c4.6,1.6,4.7-2.3,4.7-2.3c5.9-2,2.7-4.4,2.7-4.4
	c5-6.1,0.4-5.9,0.4-5.9c2.5-9.5-3.8-3-3.8-3c-1.2-2-1.9,1.6-2.2,4c-0.1-0.8-0.7-1.5-1.4-1.8c-1.5-1.1-1.8,1.1-1.8,1.1
	c-3.2-1.7-1.9,6.8-1.9,6.8c-3.6-1.9-1.5,7.1-1.5,7.1c0.2,0.1,0.5,0.3,0.7,0.4c-6.1-0.1-12.1-1.4-17.8-3.8c-0.3-0.2-1.5-0.9-1.9-1.2
	c1.6-1.5,3.2-3.1,4.7-4.8c2.9,1.8,4.8-1.5,4.8-1.5c4.6,3,5.8-1.2,5.8-1.2c7.1-0.6,4.1-4.1,4.1-4.1c7.1-5.4,2-6.4,2-6.4
	c5.2-9.7-3.4-4.3-3.4-4.3c-0.8-2.5-2.5,1.2-3.5,3.8c0.1-0.9-0.3-1.8-1.1-2.3c-1.3-1.6-2.3,0.8-2.3,0.8c-3-2.7-3.9,7-3.9,7
	c-3.3-2.9-3.5,6.5-3.5,7.4c-2,2.2-4.2,4.4-6.4,6.3c0-0.6-0.2-1.1-0.4-1.6c5.1-1.9,2.5-5.4,2.5-5.4c3.7-6-0.9-5.7-0.9-5.7
	c-0.1-8.9-3.9-5.4-3.9-5.4c-4.7-10-5.4,0.2-5.4,0.2c-2.5-0.8-0.5,2.8,0.9,5.1c-0.7-0.6-1.6-0.8-2.5-0.5c-2.1,0.1-0.7,2.3-0.7,2.3
	c-4,0.8,3.3,7.3,3.3,7.3c-3.8,0.8,1.6,5.5,3.3,6.9c-5.4,4.1-11.4,7.2-17.8,9.4c0.7-0.8,1.1-1.9,1.1-3c5.5,0.2,4.4-4,4.4-4
	c5.8-4.1,1.4-5.6,1.4-5.6c3.4-8.2-1.5-6.5-1.5-6.5c-0.4-11-5.1-1.9-5.1-1.9c-2-1.8-1.6,2.3-1.1,5c-0.4-0.8-1.2-1.4-2.1-1.4
	c-1.9-0.8-1.6,1.8-1.6,1.8c-4-0.8,0.2,8,0.2,8c-4.5-0.9,0.7,8.2,0.7,8.2c0.3,0.1,0.7,0.1,1,0.2C6.9,38.6,3.5,39.2,0,39.5l0.1,1.4
	c3.3-0.3,6.6-0.9,9.8-1.7c0.3,1.4,2.4,9.7,4.9,6.3c0,0,2.8,9.3,5.2,6.1c0,0,1.4,2.2,2.4,0.3c0.7-0.6,0.9-1.6,0.6-2.5
	c1.4,2.3,3.8,5.7,4.2,3c0,0,9.5,3.6,2.5-4.8c0,0,4.8-2-3.2-5.8c0,0,2.2-4-4.8-3.2c0,0-2-3.8-5.9,0c-0.3-0.3-0.6-0.6-1-0.9
	c4.2-1.5,8.1-3.5,11.9-5.8l-0.1,0.1c0,0,4.6,9.4,6.4,5.2c0,0,4.9,8.4,6.5,4.7c0,0,1.9,1.7,2.4-0.3c0.5-0.8,0.5-1.8,0-2.5
	c2,2,5.1,4.6,4.8,2c0,0,10.1,1.3,1.3-5.3c0,0,4.2-3.1-4.5-4.9c0,0,1.2-4.4-5.4-2c0,0-2.9-3.3-5.8,1.4c-0.6-0.4-1.2-0.6-1.8-0.8
	c2-1.5,4-3,5.9-4.7c0.5,0.3,2,1.2,2.3,1.3c7.3,3,15.1,4.3,23,3.8c0.1,1.1,1,8.9,3.6,6.2c0,0,1.5,8.5,3.9,5.9c0,0,1.1,2,2.1,0.5
	c0.7-0.5,1-1.3,0.8-2.1c1,2.2,2.8,5.4,3.3,3.1c0,0,8,4.2,2.7-4c0,0,4.4-1.2-2.2-5.5c0,0,2.4-3.3-3.9-3.4c-0.4-1.1-1.5-1.8-2.7-1.8
	c2-0.4,3.9-0.9,5.8-1.5c-0.1,0.2-0.2,0.3-0.3,0.5c0,0,3.7,8.5,5.5,4.8c0,0,4.1,7.6,5.6,4.3c0,0,1.6,1.6,2.1-0.2
	c0.5-0.7,0.5-1.6,0.1-2.3c1.7,1.8,4.4,4.2,4.2,1.9c0,0,7,1.2,3.3-2.8c1.2,0.4,2.4,0.9,3.8,1.2c0.5,0.4,1.2,0.6,1.9,0.4
	c0.9,0.2,1.8,0.4,2.7,0.5c-0.1,0.8-0.8,7,1.7,5.4c0,0-0.3,6.8,2,5.2c0,0,0.4,1.8,1.5,0.8c0.6-0.3,1-0.8,1-1.5c0.4,1.9,1.2,4.7,2,3
	c0,0,5.4,4.6,2.8-2.6c0,0,3.6-0.2-0.8-4.6c0,0,2.4-2.1-2.4-3.3c-0.1-0.9-0.9-1.7-1.8-1.8c1.8,0,3.7-0.1,5.5-0.3
	c0.1,1.6,0.5,6.5,2.5,4.6c0,0,0.7,6.7,2.8,4.8c0,0,0.7,1.7,1.6,0.5c0.5-0.4,0.8-1,0.7-1.6c0.7,1.8,1.9,4.4,2.5,2.6
	c0,0,6.1,3.7,2.3-3c0,0,3.5-0.8-1.5-4.4c0,0,2-2.5-2.9-2.8c0,0-0.8-2.9-4-0.8c-0.1-0.2-0.2-0.3-0.4-0.5c2.3-0.4,4.5-1.1,6.7-1.8
	c1.1,2.4,3.6,0.9,3.6,0.9c1.8,3.4,3.9,1.2,3.9,1.2c4.5,2,3.9-1.1,3.9-1.1c6.1-0.9,3.4-3.2,3.4-3.2C147.3,27.3,140.2,27.6,140.2,27.6
	z M27.2,31.9l0.8-0.2c0.3-0.1,0.7-0.1,1-0.2l1.3-0.1c0.5,0,1,0,1.5,0c0.6,0,1.1,0.1,1.7,0.2c0.6,0.1,1.2,0.2,1.8,0.4
	c0.6,0.2,1.2,0.3,1.8,0.5s1.2,0.4,1.8,0.7s1.2,0.5,1.7,0.8s1,0.5,1.5,0.8s0.9,0.5,1.3,0.8c0.9,0.6,1.7,1.2,2.5,1.9L45.1,37l-2-0.9
	l-1.4-0.6l-1.5-0.6c-0.5-0.2-1.1-0.4-1.7-0.6s-1.1-0.4-1.7-0.6s-1.2-0.4-1.7-0.5s-1.1-0.3-1.7-0.4s-1.1-0.3-1.6-0.3s-1-0.2-1.5-0.2
	L29,31.9c-0.4,0-0.7,0-1,0L27.2,31.9z M10.5,39h0.9c0.3,0,0.7,0,1,0l1.3,0.2c0.5,0.1,0.9,0.2,1.5,0.4c0.5,0.2,1.1,0.4,1.6,0.6
	c0.6,0.2,1.1,0.5,1.7,0.8s1.1,0.6,1.6,0.9s1.1,0.7,1.6,1.1s1,0.8,1.4,1.1s0.9,0.8,1.3,1.1s0.8,0.7,1.1,1.1c0.7,0.7,1.4,1.6,2,2.4
	l-0.7-0.5L25,46.8l-1.2-0.9c-0.4-0.3-0.9-0.7-1.3-1s-0.9-0.7-1.4-1s-1-0.7-1.5-1s-1-0.7-1.6-0.9s-1.1-0.6-1.6-0.8s-1-0.5-1.5-0.7
	s-0.9-0.4-1.4-0.6l-1.2-0.4c-0.4-0.1-0.7-0.2-0.9-0.3L10.5,39z M13.4,31.9c-0.3,0.5-0.5,1-0.8,1.5c-0.3,0.5-0.5,0.9-0.8,1.3
	s-0.6,0.7-0.8,1c-0.2,0.2-0.5,0.5-0.7,0.7C9.7,36.8,9.5,37,9.5,37s0.2-0.3,0.5-0.7c0.1-0.2,0.3-0.5,0.5-0.8s0.4-0.7,0.6-1.1
	s0.4-0.8,0.6-1.3s0.4-1,0.6-1.5c0.2-0.5,0.4-1.1,0.6-1.7s0.4-1.2,0.5-1.7s0.3-1.2,0.5-1.8s0.3-1.2,0.4-1.7s0.2-1.1,0.3-1.6l0.3-1.5
	l0.4-2.2l0.1-0.8c0.1,1,0.2,2.1,0.1,3.1c0,0.5,0,1-0.1,1.5s-0.1,1.1-0.2,1.7s-0.2,1.2-0.3,1.8s-0.3,1.2-0.4,1.8s-0.4,1.2-0.6,1.8
	S13.6,31.4,13.4,31.9L13.4,31.9z M43.1,17.5l0.8-0.9l0.2-0.1c0.4-0.2,0.8-0.5,1.2-0.8s0.9-0.7,1.3-1s0.9-0.7,1.3-1.1
	s0.9-0.8,1.3-1.2s0.9-0.8,1.3-1.3s0.8-0.9,1.2-1.3s0.8-0.8,1.1-1.2l1-1.1l1.4-1.7L56,5c-0.4,1-0.9,1.9-1.5,2.8
	C54.3,8.1,54,8.6,53.7,9s-0.6,0.9-1,1.4s-0.8,0.9-1.2,1.4s-0.8,0.9-1.3,1.4s-0.9,0.9-1.4,1.2s-1,0.8-1.5,1.1c-0.5,0.3-1,0.6-1.5,0.9
	c-0.5,0.3-0.9,0.5-1.4,0.7l-1.2,0.5L43.1,17.5z M31.6,26.7l-0.2,0.2l0.1-0.4c0-0.3,0.1-0.6,0.2-1s0.1-0.8,0.1-1.3s0.1-1,0.1-1.5
	s0-1.1,0-1.6s0-1.2-0.1-1.8s-0.1-1.2-0.2-1.8s-0.1-1.2-0.3-1.8S31.1,14.5,31,14s-0.2-1.1-0.3-1.6l-0.3-1.5l-0.5-2.2l-0.2-0.8
	c0.5,0.9,1,1.9,1.3,2.8c0.2,0.4,0.3,0.9,0.5,1.4s0.3,1.1,0.5,1.6s0.3,1.2,0.4,1.8s0.2,1.2,0.3,1.9s0.2,1.3,0.2,1.9s0,1.2,0,1.8
	c0,0.6-0.1,1.1-0.2,1.7c-0.1,0.5-0.2,1-0.3,1.5s-0.3,0.9-0.4,1.2c-0.1,0.3-0.2,0.6-0.4,0.9L31.6,26.7z M80.2,18.4
	c-0.2,0.5-0.3,1-0.5,1.5c-0.2,0.5-0.4,1-0.6,1.4c-0.2,0.4-0.4,0.8-0.6,1.2s-0.4,0.7-0.6,1c-0.2,0.2-0.4,0.5-0.6,0.7
	c-0.3,0.4-0.5,0.6-0.5,0.6s0.1-0.3,0.3-0.7c0.1-0.2,0.3-0.5,0.4-0.8s0.3-0.6,0.4-1s0.3-0.8,0.4-1.2s0.3-0.9,0.4-1.4s0.3-1,0.4-1.5
	s0.2-1.1,0.3-1.6c0.1-0.5,0.2-1,0.3-1.5c0.1-0.6,0.1-1.1,0.2-1.6c0.1-0.5,0.2-1,0.2-1.5l0.1-1.3l0.1-2V8c0.2,0.9,0.3,1.8,0.4,2.8
	c0.1,0.4,0.1,0.8,0.1,1.3s0,1,0,1.5s-0.1,1.1-0.1,1.6s-0.2,1.1-0.2,1.6C80.4,17.4,80.3,17.8,80.2,18.4z M104.4,35.8L105,36
	c0.2,0.1,0.4,0.2,0.6,0.3l0.8,0.4c0.3,0.2,0.6,0.4,0.9,0.6c0.3,0.2,0.6,0.5,0.9,0.8c0.3,0.3,0.6,0.6,0.9,0.9s0.6,0.6,0.9,1
	s0.5,0.7,0.8,1.1c0.2,0.4,0.5,0.8,0.7,1.1c0.2,0.3,0.4,0.6,0.6,1c0.2,0.4,0.3,0.7,0.5,1c0.3,0.7,0.6,1.3,0.8,2l-0.3-0.5l-0.8-1.3
	l-0.6-0.9l-0.7-1c-0.2-0.3-0.5-0.7-0.7-1c-0.2-0.3-0.5-0.7-0.8-1c-0.3-0.3-0.5-0.7-0.8-1s-0.5-0.6-0.8-0.9s-0.5-0.6-0.8-0.8
	s-0.5-0.5-0.8-0.7l-0.7-0.5c-0.2-0.2-0.4-0.3-0.6-0.4L104.4,35.8z M107.7,36.1c0.6,0.1,1.3,0.1,1.9,0.1c-0.6,0.1-1.1,0.2-1.6,0.5
	C107.9,36.4,107.8,36.2,107.7,36.1z M62.1,29.8l0.8,0.1c0.3,0,0.6,0.1,0.9,0.2l1.1,0.3c0.4,0.1,0.8,0.3,1.3,0.5
	c0.5,0.2,0.9,0.4,1.3,0.7c0.5,0.3,0.9,0.5,1.4,0.9s0.9,0.6,1.3,1s0.8,0.7,1.3,1.1s0.8,0.8,1.1,1.1s0.7,0.8,1,1.1s0.6,0.7,0.8,1.1
	c0.6,0.7,1.1,1.5,1.5,2.3l-0.5-0.5L74,38.1L73,37.2l-1.1-1c-0.4-0.3-0.8-0.7-1.2-1s-0.8-0.7-1.2-1s-0.8-0.7-1.3-1s-0.8-0.6-1.3-0.9
	s-0.8-0.6-1.2-0.8s-0.8-0.5-1.1-0.6l-1-0.5c-0.3-0.2-0.6-0.2-0.8-0.3L62.1,29.8z M60,25.8c-0.4,0.3-0.7,0.6-1,0.8l-1,0.7
	c-0.3,0.2-0.5,0.3-0.8,0.4L56.5,28l0.6-0.5c0.2-0.2,0.4-0.3,0.7-0.6s0.5-0.5,0.8-0.8s0.6-0.7,0.9-1s0.6-0.7,0.9-1.1s0.6-0.8,0.9-1.3
	s0.6-0.9,0.9-1.3s0.6-0.9,0.8-1.4s0.5-0.9,0.8-1.4s0.5-0.9,0.7-1.3l0.6-1.2l0.9-1.8l0.3-0.7c-0.2,0.9-0.4,1.8-0.7,2.7
	c-0.1,0.4-0.3,0.8-0.5,1.3s-0.4,0.9-0.6,1.4s-0.5,1-0.7,1.4s-0.5,1-0.8,1.4s-0.7,0.9-1,1.4s-0.6,0.9-1,1.3
	C60.8,25.1,60.4,25.4,60,25.8L60,25.8z M66.8,29.9c-0.2-0.2-0.3-0.4-0.5-0.6c0.8-0.1,1.6-0.3,2.4-0.4C68,29.1,67.4,29.4,66.8,29.9
	L66.8,29.9z M89.4,20.4l0.5-0.3H90l1.1-0.3c0.4-0.1,0.8-0.3,1.3-0.4c0.4-0.1,0.9-0.3,1.4-0.5c0.4-0.2,1-0.4,1.4-0.6
	c0.4-0.2,1-0.5,1.4-0.7c0.5-0.3,1-0.5,1.4-0.8s0.9-0.5,1.4-0.8l1.3-0.8l1.1-0.7l1.7-1.1l0.6-0.4c-0.6,0.7-1.3,1.4-2,2
	c-0.3,0.3-0.6,0.6-1,0.9s-0.8,0.6-1.2,0.9s-0.9,0.6-1.4,0.9s-0.9,0.6-1.5,0.8c-0.5,0.2-1,0.5-1.5,0.7s-1,0.4-1.5,0.5
	c-0.5,0.2-1,0.3-1.5,0.4c-0.5,0.1-0.9,0.2-1.3,0.2l-1.2,0.1C89.9,20.4,89.6,20.4,89.4,20.4z M79.1,25.8c0.7-0.3,1.3-0.5,2-0.8
	c-0.4,0.4-0.8,0.8-1.2,1.3C79.7,26.1,79.4,25.9,79.1,25.8L79.1,25.8z M84.3,28.5c0.5,0.2,1.1,0.4,1.6,0.6s1,0.5,1.4,0.7
	s0.9,0.5,1.3,0.8c0.4,0.2,0.8,0.5,1.1,0.7c0.8,0.5,1.5,1.1,2.2,1.7l-0.7-0.3l-1.8-0.9l-1.2-0.6l-1.3-0.6c-0.4-0.2-0.9-0.4-1.4-0.6
	s-1-0.4-1.5-0.6c-0.5-0.2-1-0.4-1.5-0.5c-0.5-0.1-1-0.3-1.5-0.4c-0.5-0.1-0.9-0.3-1.4-0.3s-0.9-0.2-1.3-0.2l-1.1-0.1
	c-0.3-0.1-0.6-0.1-0.9-0.1l-0.8,0l0.7-0.1c0.3-0.1,0.6-0.1,0.9-0.1l1.2,0c0.4,0,0.9,0.1,1.4,0.1c0.5,0,1,0.1,1.5,0.2
	c0.5,0.1,1.1,0.2,1.6,0.4S83.7,28.3,84.3,28.5L84.3,28.5z M100.3,33.8l-0.3-0.1l0,0c0.2-0.1,0.4-0.2,0.6-0.3l0.8-0.5
	c0.3-0.2,0.5-0.4,0.8-0.6s0.6-0.5,0.9-0.7s0.6-0.5,0.9-0.8s0.6-0.6,0.9-0.9s0.6-0.6,0.9-0.9c0.3-0.3,0.6-0.6,0.8-0.9l0.8-0.9
	l0.7-0.8l1-1.2l0.4-0.5c-0.3,0.7-0.6,1.3-1,2c-0.2,0.3-0.4,0.5-0.6,0.9s-0.4,0.7-0.7,1s-0.5,0.6-0.8,1s-0.5,0.7-0.9,1
	s-0.7,0.6-1,0.9s-0.7,0.6-1,0.8c-0.3,0.2-0.7,0.5-1,0.7c-0.4,0.2-0.7,0.4-1,0.5l-0.9,0.3C100.5,33.8,100.4,33.8,100.3,33.8z
	 M116.5,35.7l0.4-0.1l0.3,0.1l0.8,0.3c0.3,0.1,0.7,0.3,1,0.5c0.3,0.2,0.7,0.4,1,0.6c0.3,0.2,0.7,0.5,1,0.8c0.3,0.3,0.7,0.5,1,0.8
	c0.3,0.3,0.6,0.6,0.9,0.9c0.3,0.4,0.6,0.7,0.8,1c0.3,0.3,0.5,0.6,0.7,0.9c0.2,0.3,0.4,0.6,0.6,0.9c0.4,0.6,0.8,1.2,1.1,1.9l-0.4-0.5
	l-1-1.2l-0.7-0.8l-0.8-0.8c-0.3-0.3-0.6-0.6-0.9-0.9s-0.6-0.6-0.9-0.9s-0.6-0.6-0.9-0.8c-0.4-0.3-0.7-0.6-1-0.8
	c-0.3-0.2-0.6-0.5-0.9-0.7c-0.3-0.2-0.6-0.4-0.9-0.6l-0.8-0.4C116.9,36,116.7,35.9,116.5,35.7L116.5,35.7z M117.8,32.3
	c-0.2,0.3-0.5,0.6-0.7,0.8l-0.6,0.6c-0.2,0.2-0.4,0.3-0.5,0.4l-0.5,0.3l0.4-0.5c0.1-0.1,0.3-0.3,0.4-0.5s0.3-0.5,0.5-0.7
	c0.2-0.3,0.3-0.6,0.5-0.9c0.2-0.3,0.4-0.7,0.6-1c0.2-0.3,0.4-0.7,0.5-1.1s0.4-0.8,0.5-1.2s0.3-0.8,0.5-1.2s0.3-0.8,0.4-1.2
	s0.3-0.8,0.4-1.1l0.3-1l0.4-1.5l0.2-0.6c0,0.7,0,1.5-0.2,2.2c-0.1,0.3-0.1,0.6-0.2,1c-0.1,0.4-0.2,0.8-0.3,1.2s-0.2,0.8-0.4,1.2
	c-0.1,0.4-0.3,0.8-0.5,1.2c-0.2,0.4-0.3,0.8-0.5,1.2s-0.4,0.8-0.6,1.1C118.2,31.6,118,32,117.8,32.3z M139.5,30.2
	c-0.6,0.4-1.2,0.8-1.8,1.2c-0.3,0.1-0.6,0.3-0.9,0.5s-0.7,0.3-1.1,0.5s-0.8,0.3-1.2,0.4c-0.4,0.2-0.8,0.3-1.3,0.4
	c-0.4,0.1-0.9,0.2-1.3,0.3c-0.4,0.1-0.9,0.2-1.3,0.2c-0.4,0-0.8,0-1.2,0c-0.4-0.1-0.7-0.1-1.1-0.1l-0.9-0.1c-0.2,0-0.4-0.1-0.5-0.1
	l0.5-0.2h0.1h0.9c0.3,0,0.6-0.1,1-0.1s0.8-0.1,1.1-0.2s0.8-0.1,1.2-0.2c0.4-0.1,0.8-0.2,1.2-0.3c0.4-0.1,0.8-0.2,1.2-0.3
	c0.4-0.1,0.8-0.2,1.2-0.4l1.1-0.4l1-0.3l1.5-0.5L139.5,30.2z"/>
</svg>
