<svg xmlns="http://www.w3.org/2000/svg" viewBox="0 0 125.86 120.78"><title>Ресурс 7</title><g data-name="Слой 2"><path d="M28.79 56.23s-10.81-.49.86 13.9c0 0-7.77 5.64 6.19 10.42 0 0 .36 9.05 11.13 5.36 0 0 2.29 8.37 9.81 5.25a165.91 165.91 0 0 0 11.49 12.33l1.85-1.92a164.65 164.65 0 0 1-11.41-12.25c.86-4.11 3.72-19.71-3.66-15.83 0 0 3-20.08-4.44-16.12 0 0-.75-5.36-4.2-2.69a5 5 0 0 0-3.4 4.1c-.66-5.68-2.19-14.15-5.18-9.45.01-.01-14.71-15.42-9.04 6.9zm6.33 1.53L37.21 62l1.44 2.77c.51 1 1.07 2 1.65 3.05s1.22 2.11 1.83 3.21 1.32 2.16 2 3.25 1.39 2.13 2.1 3.16 1.42 2 2.18 2.95 1.43 1.87 2.18 2.65 1.4 1.61 2.08 2.28 1.32 1.27 1.87 1.83 1.12.94 1.54 1.32l1.06.92-.1.08-1.23-.6a17.76 17.76 0 0 1-1.83-1c-.67-.45-1.42-1-2.23-1.53s-1.61-1.34-2.46-2.09a34.44 34.44 0 0 1-2.51-2.55c-.85-.91-1.63-1.92-2.43-2.95s-1.51-2.14-2.25-3.23-1.37-2.25-2-3.39-1.19-2.28-1.7-3.4-1-2.21-1.39-3.26-.76-2.06-1.08-3a40.56 40.56 0 0 1-1.6-6.34z" fill="#a1944c"/><path d="M47 120.78a11.23 11.23 0 0 1-3.5-.53c-4.08-1.33-6.69-4.83-9.22-8.23a25.83 25.83 0 0 0-4.87-5.46 26.16 26.16 0 0 0-6.79-3c-4-1.36-8.09-2.76-10.58-6.18s-2.53-7.71-2.6-11.89a26.57 26.57 0 0 0-.8-7.49A25.35 25.35 0 0 0 5 71.83c-2.46-3.48-5-7.07-5-11.44s2.55-8 5-11.44a25.34 25.34 0 0 0 3.63-6.2 26.61 26.61 0 0 0 .78-7.46c.07-4.18.14-8.51 2.6-11.89s6.6-4.82 10.58-6.18a26.14 26.14 0 0 0 6.78-3 25.82 25.82 0 0 0 4.87-5.46c2.53-3.39 5.15-6.9 9.22-8.23 3.91-1.27 8 0 12 1.21a26.94 26.94 0 0 0 7.48 1.59 26.94 26.94 0 0 0 7.49-1.59c4-1.22 8.06-2.48 12-1.21 4.08 1.32 6.69 4.83 9.22 8.23a25.84 25.84 0 0 0 4.87 5.46 26.15 26.15 0 0 0 6.79 3c4 1.36 8.09 2.76 10.58 6.18s2.53 7.71 2.6 11.89a26.54 26.54 0 0 0 .78 7.46 25.34 25.34 0 0 0 3.63 6.2c2.46 3.48 5 7.07 5 11.44s-2.55 8-5 11.44a25.36 25.36 0 0 0-3.63 6.2 26.56 26.56 0 0 0-.78 7.46c-.07 4.18-.14 8.51-2.6 11.89s-6.6 4.82-10.58 6.18a26.17 26.17 0 0 0-6.78 3A25.86 25.86 0 0 0 91.6 112c-2.53 3.39-5.14 6.9-9.22 8.23-3.91 1.27-8 0-12-1.21a26.94 26.94 0 0 0-7.49-1.59 27 27 0 0 0-7.45 1.57 29.64 29.64 0 0 1-8.44 1.78zM47 4.41a6.92 6.92 0 0 0-2.15.31c-2.75.89-4.84 3.7-7.05 6.67a29.32 29.32 0 0 1-5.8 6.39 29.63 29.63 0 0 1-8 3.61c-3.48 1.19-6.77 2.31-8.44 4.6s-1.7 5.71-1.76 9.37a30.09 30.09 0 0 1-1 8.75 28.77 28.77 0 0 1-4.19 7.39c-2.16 3-4.2 5.93-4.2 8.89s2 5.84 4.2 8.89a28.79 28.79 0 0 1 4.22 7.39 30.08 30.08 0 0 1 1 8.75c.06 3.66.11 7.12 1.76 9.37s5 3.41 8.44 4.6A29.65 29.65 0 0 1 32 103a29.29 29.29 0 0 1 5.81 6.39c2.22 3 4.31 5.78 7.05 6.67 2.58.84 5.85-.17 9.31-1.23a30.49 30.49 0 0 1 8.78-1.78 30.48 30.48 0 0 1 8.78 1.78c3.46 1.06 6.73 2.07 9.31 1.23 2.75-.89 4.84-3.7 7.05-6.67a29.32 29.32 0 0 1 5.79-6.39 29.64 29.64 0 0 1 8-3.61c3.48-1.19 6.77-2.31 8.44-4.6s1.7-5.71 1.76-9.37a30.07 30.07 0 0 1 1-8.75 28.8 28.8 0 0 1 4.22-7.39c2.16-3 4.2-5.92 4.2-8.89s-2-5.84-4.2-8.89a28.78 28.78 0 0 1-4.3-7.39 30.06 30.06 0 0 1-1-8.75c-.06-3.66-.11-7.11-1.76-9.37s-5-3.41-8.44-4.6a29.64 29.64 0 0 1-8-3.61 29.29 29.29 0 0 1-5.81-6.39c-2.21-3-4.31-5.78-7.05-6.67-2.58-.84-5.85.16-9.31 1.23a30.48 30.48 0 0 1-8.78 1.78 30.47 30.47 0 0 1-8.78-1.78A26.27 26.27 0 0 0 47 4.41z" fill="#a1944c"/><path d="M76.64 111.36a1.1 1.1 0 0 1 0-2.2h.32a1.1 1.1 0 0 1 .16 2.2h-.42zm-27.75 0h-.49a1.1 1.1 0 0 1 .25-2.19h.32a1.1 1.1 0 0 1-.07 2.2zm4.38-.55a1.1 1.1 0 0 1-.28-2.17l.34-.09a1.1 1.1 0 0 1 .58 2.12l-.37.1a1.1 1.1 0 0 1-.27.03zm19-.09a1.1 1.1 0 0 1-.29 0l-.37-.1a1.1 1.1 0 1 1 .6-2.12l.35.1a1.1 1.1 0 0 1-.29 2.16zm8.81-1a1.1 1.1 0 0 1-.67-2l.26-.21a1.1 1.1 0 1 1 1.39 1.71l-.32.25a1.1 1.1 0 0 1-.66.29zm-36.56-.2a1.1 1.1 0 0 1-.69-.24l-.31-.26a1.1 1.1 0 0 1 1.48-1.64l.26.22a1.1 1.1 0 0 1-.69 2zm13.35-.14a1.1 1.1 0 0 1-.31-2.16l.37-.11a1.1 1.1 0 0 1 .6 2.12l-.34.1a1.1 1.1 0 0 1-.32.09zm9.8-.09a1.1 1.1 0 0 1-.3 0l-.35-.1a1.1 1.1 0 0 1 .58-2.12l.37.1a1.1 1.1 0 0 1-.3 2.16zm-5.09-.8a1.1 1.1 0 0 1 0-2.2h.39a1.11 1.11 0 0 1 1.11 1.1 1.09 1.09 0 0 1-1.09 1.1h-.37zm21.8-2.24a1.1 1.1 0 0 1-.88-1.77l.22-.29a1.1 1.1 0 1 1 1.75 1.33l-.22.3a1.1 1.1 0 0 1-.88.46zm-43.1-.25a1.1 1.1 0 0 1-.88-.44l-.22-.3a1.1 1.1 0 1 1 1.76-1.26l.22.29a1.1 1.1 0 0 1-.88 1.76zm46-3.58a1.1 1.1 0 0 1-.86-1.79l.24-.3a1.1 1.1 0 0 1 1.71 1.39l-.22.28a1.1 1.1 0 0 1-.9.44zm-48.86-.26a1.1 1.1 0 0 1-.85-.4l-.22-.27a1.1 1.1 0 0 1 1.65-1.4l.25.3a1.1 1.1 0 0 1-.85 1.8zm52.31-3.05a1.1 1.1 0 0 1-.59-2l.34-.21a1.1 1.1 0 0 1 1.13 1.89l-.31.21a1.1 1.1 0 0 1-.59.13zM34.87 99a1.1 1.1 0 0 1-.57-.16l-.3-.21a1.1 1.1 0 0 1 1.08-1.92l.34.2a1.1 1.1 0 0 1-.57 2zm60.2-1.81A1.1 1.1 0 0 1 94.7 95l.35-.13a1.1 1.1 0 1 1 .74 2.13l-.34.12a1.1 1.1 0 0 1-.38.03zM30.47 97a1.1 1.1 0 0 1-.37-.06l-.34-.12a1.1 1.1 0 1 1 .72-2.08l.35.12a1.1 1.1 0 0 1-.36 2.14zm69.12-1.5a1.1 1.1 0 0 1-.43-2.12l.32-.14a1.1 1.1 0 1 1 .89 2l-.35.15a1.1 1.1 0 0 1-.43.11zM26 95.37a1.1 1.1 0 0 1-.44-.09l-.36-.16a1.1 1.1 0 0 1 .93-2l.31.14a1.1 1.1 0 0 1-.44 2.11zm77.65-2.42a1.1 1.1 0 0 1-.79-1.87l.22-.23a1.1 1.1 0 0 1 1.65 1.46l-.28.31a1.1 1.1 0 0 1-.83.33zM22 92.71a1.1 1.1 0 0 1-.82-.37l-.26-.34a1.1 1.1 0 0 1 1.71-1.39l.21.24a1.1 1.1 0 0 1-.84 1.86zm83.72-4h-.23a1.1 1.1 0 0 1-.85-1.3l.07-.34a1.1 1.1 0 0 1 2.17.4l-.08.39a1.1 1.1 0 0 1-1.06.86zm-85.67-.31a1.1 1.1 0 0 1-1.05-.9l-.07-.39a1.1 1.1 0 0 1 2.17-.36l.06.34a1.1 1.1 0 0 1-.88 1.28zm86.11-4.46a1.1 1.1 0 0 1-1.08-1.13v-.36a1.1 1.1 0 0 1 1.1-1.08 1.1 1.1 0 0 1 1.08 1.12v.38a1.1 1.1 0 0 1-1.1 1.07zm-86.47-.33a1.1 1.1 0 0 1-1.1-1.08v-.38a1.1 1.1 0 0 1 2.2 0v.36a1.1 1.1 0 0 1-1.08 1.12zm86.64-4.48h-.11a1.1 1.1 0 0 1-1-1.2v-.38a1.1 1.1 0 1 1 2.19.24v.35a1.1 1.1 0 0 1-1.08 1zm-86.85-.32a1.1 1.1 0 0 1-1.09-1v-.35a1.1 1.1 0 1 1 2.19-.27v.38a1.1 1.1 0 0 1-1 1.22zm88-4.3a1.1 1.1 0 0 1-1-1.59l.18-.35a1.1 1.1 0 0 1 2 1l-.16.31a1.1 1.1 0 0 1-.97.63zm-89.36-.29a1.1 1.1 0 0 1-1-.6l-.12-.3a1.1 1.1 0 0 1 1.94-1l.18.35a1.1 1.1 0 0 1-1 1.6zm91.89-3.79a1.1 1.1 0 0 1-.9-1.74l.21-.3a1.1 1.1 0 0 1 1.81 1.26L111 70a1.1 1.1 0 0 1-.93.44zm-94.41-.26a1.1 1.1 0 0 1-.9-.47l-.21-.3a1.1 1.1 0 1 1 1.8-1.27l.21.31a1.1 1.1 0 0 1-.9 1.73zm97.08-3.77a1.1 1.1 0 0 1-1-1.63l.16-.3a1.1 1.1 0 0 1 2 1l-.19.35a1.1 1.1 0 0 1-.97.58zM13 66.12a1.1 1.1 0 0 1-1-.6l-.18-.35a1.1 1.1 0 0 1 2-1l.15.31a1.1 1.1 0 0 1-1 1.61zm101.1-4.26h-.1a1.1 1.1 0 0 1-1-1.16v-.4a1.1 1.1 0 1 1 2.2 0v.51a1.1 1.1 0 0 1-1.1 1.05zm-102.36-.34a1.08 1.08 0 0 1-1.1-1.08v-.38a1.09 1.09 0 0 1 1.15-1 1.1 1.1 0 0 1 1 1.15v.27a1.12 1.12 0 0 1-1.05 1.04zM113 57.16a1.1 1.1 0 0 1-1-.62l-.15-.3a1.1 1.1 0 1 1 2-1l.18.36a1.1 1.1 0 0 1-1 1.59zM13 57a1.1 1.1 0 0 1-1-1.6l.18-.35a1.1 1.1 0 0 1 1.94 1l-.16.31A1.1 1.1 0 0 1 13 57zm97.46-3.87a1.1 1.1 0 0 1-.9-.47l-.21-.31a1.1 1.1 0 1 1 1.79-1.35l.21.3a1.1 1.1 0 0 1-.9 1.73zm-94.9-.19a1.1 1.1 0 0 1-.9-1.73l.21-.31a1.1 1.1 0 1 1 1.8 1.27l-.21.3a1.1 1.1 0 0 1-.91.42zm92.29-3.84a1.1 1.1 0 0 1-1-.59l-.18-.35a1.1 1.1 0 0 1 2-1l.16.31a1.1 1.1 0 0 1-1 1.62zm-89.7-.21a1.1 1.1 0 0 1-1-1.61l.16-.31a1.1 1.1 0 0 1 2 1l-.18.35a1.1 1.1 0 0 1-1 .52zm88.25-4.39a1.1 1.1 0 0 1-1.09-1v-.39a1.1 1.1 0 0 1 2.19-.23v.35a1.1 1.1 0 0 1-1 1.23zm-86.92-.23h-.12a1.1 1.1 0 0 1-1-1.22v-.35a1.1 1.1 0 0 1 2.19.22v.38a1.1 1.1 0 0 1-1.07.96zm86.69-4.56a1.1 1.1 0 0 1-1.1-1.09v-.36a1.1 1.1 0 0 1 1.08-1.12 1.1 1.1 0 0 1 1.1 1.08v.38a1.1 1.1 0 0 1-1.09 1.11zm-86.48-.24a1.1 1.1 0 0 1-1.08-1.12V38a1.12 1.12 0 0 1 1.13-1.08A1.1 1.1 0 0 1 20.8 38v.36a1.1 1.1 0 0 1-1.11 1.11zm86.16-4.55a1.1 1.1 0 0 1-1.09-.93l-.06-.33a1.1 1.1 0 0 1 2.16-.41c0 .13 0 .26.07.4a1.1 1.1 0 0 1-.93 1.25zM20 34.68h-.2a1.1 1.1 0 0 1-.8-1.3V33a1.1 1.1 0 1 1 2.16.44l-.07.34a1.1 1.1 0 0 1-1.09.9zm84-4.15a1.1 1.1 0 0 1-.85-.4l-.21-.24a1.1 1.1 0 0 1 1.63-1.48l.28.32a1.1 1.1 0 0 1-.85 1.8zm-82-.19a1.1 1.1 0 0 1-.83-1.83l.29-.31A1.1 1.1 0 1 1 23 29.74l-.21.23a1.1 1.1 0 0 1-.79.37zm78.23-2.59a1.1 1.1 0 0 1-.46-.1l-.32-.14a1.1 1.1 0 1 1 .89-2l.35.16a1.1 1.1 0 0 1-.46 2.1zm-74.29-.1a1.1 1.1 0 0 1-.45-2.11l.36-.16a1.1 1.1 0 1 1 .86 2l-.32.14a1.1 1.1 0 0 1-.5.14zm69.8-1.6a1.11 1.11 0 0 1-.36-.06l-.38-.12a1.1 1.1 0 0 1 .73-2.08l.35.12a1.1 1.1 0 0 1-.36 2.14zM30.39 26a1.1 1.1 0 0 1-.39-2.16l.34-.12a1.1 1.1 0 1 1 .74 2.08l-.35.13a1.1 1.1 0 0 1-.34.07zm60.88-1.79a1.1 1.1 0 0 1-.54-.14l-.35-.2A1.1 1.1 0 1 1 91.52 22l.29.17a1.1 1.1 0 0 1-.54 2.06zm-56.47-.14a1.1 1.1 0 0 1-.56-2l.28-.17a1.1 1.1 0 0 1 1.18 1.86l-.34.21a1.1 1.1 0 0 1-.56.1zm52.87-3a1.1 1.1 0 0 1-.85-.4l-.24-.29A1.1 1.1 0 0 1 88.29 19l.23.28a1.1 1.1 0 0 1-.85 1.8zm-49.33-.19a1.1 1.1 0 0 1-.85-1.8l.22-.27a1.1 1.1 0 0 1 1.73 1.37l-.25.3a1.1 1.1 0 0 1-.85.39zm46.43-3.64a1.1 1.1 0 0 1-.88-.44l-.22-.29a1.1 1.1 0 1 1 1.75-1.34l.23.3a1.1 1.1 0 0 1-.88 1.76zM41.23 17a1.1 1.1 0 0 1-.88-1.77l.23-.3a1.1 1.1 0 0 1 1.75 1.34l-.22.29a1.1 1.1 0 0 1-.88.44zm21.7-2.56a1.13 1.13 0 0 1-1.13-1.1 1.08 1.08 0 0 1 1.07-1.1h.33a1.1 1.1 0 0 1 .07 2.2zm-4.42-.72a1.11 1.11 0 0 1-.29 0l-.37-.1a1.1 1.1 0 1 1 .61-2.12l.34.1a1.1 1.1 0 0 1-.29 2.16zm9.08-.07a1.1 1.1 0 0 1-.3-2.16l.34-.1a1.1 1.1 0 1 1 .62 2.11l-.36.11a1.11 1.11 0 0 1-.3.07zm14 0a1.1 1.1 0 0 1-.71-.26l-.26-.21A1.1 1.1 0 0 1 82 11.44l.31.26a1.1 1.1 0 0 1-.72 1.94zm-37.13-.16a1.1 1.1 0 0 1-.7-2l.32-.25A1.1 1.1 0 0 1 45.41 13l-.26.2a1.1 1.1 0 0 1-.69.28zm9.45-1.12a1.1 1.1 0 0 1-.3 0l-.35-.1a1.1 1.1 0 1 1 .58-2.13l.36.1a1.1 1.1 0 0 1-.3 2.16zm18.29-.07a1.1 1.1 0 0 1-.29-2.16l.37-.1a1.1 1.1 0 1 1 .57 2.13l-.35.09a1.11 1.11 0 0 1-.31.04zm5.11-.63h-.44A1.1 1.1 0 0 1 77 9.43h.42a1.1 1.1 0 0 1-.12 2.2zm-28.49 0a1.1 1.1 0 0 1-.09-2.2h.42a1.09 1.09 0 0 1 1.14 1.07 1.1 1.1 0 0 1-1.07 1.14h-.32zm17.09 14.9l6.82.92-4.97 4.75L69 39.01l-6.06-3.26-6.06 3.27 1.23-6.77-4.98-4.75 6.82-.92 2.97-6.2 2.99 6.19z" fill="#e2ca97"/><path d="M88 49.32c-3-4.7-4.52 3.77-5.18 9.45a5 5 0 0 0-3.4-4.1c-3.45-2.67-4.2 2.69-4.2 2.69-7.45-4-4.44 16.12-4.44 16.12-7.38-3.88-4.52 11.72-3.66 15.83a164.65 164.65 0 0 1-11.41 12.25l1.85 1.92a165.91 165.91 0 0 0 11.52-12.33c7.53 3.12 9.81-5.25 9.81-5.25C89.66 89.6 90 80.55 90 80.55c14-4.78 6.19-10.42 6.19-10.42 11.66-14.38.86-13.9.86-13.9 5.69-22.32-9.05-6.91-9.05-6.91zm3.5 6.82a40.56 40.56 0 0 1-1.6 6.34c-.33.92-.64 1.94-1.08 3s-.85 2.16-1.39 3.26-1.08 2.26-1.7 3.4-1.32 2.25-2 3.39-1.49 2.18-2.25 3.23-1.59 2-2.43 2.95a34.44 34.44 0 0 1-2.51 2.55c-.86.75-1.65 1.48-2.45 2.06s-1.56 1.08-2.23 1.53a17.76 17.76 0 0 1-1.83 1l-1.23.6-.1-.08 1.06-.92c.42-.38 1-.77 1.54-1.32s1.18-1.18 1.87-1.83 1.33-1.49 2.08-2.28 1.4-1.75 2.18-2.65 1.41-2 2.18-2.95 1.4-2.1 2.1-3.16 1.38-2.14 2-3.25 1.28-2.14 1.83-3.21 1.14-2.07 1.65-3.05L88.65 62l2.09-4.2z" fill="#a1944c"/></g></svg>