<svg xmlns="http://www.w3.org/2000/svg" viewBox="0 0 380.38 69.45"><title>Ресурс 11</title><g id="Слой_2" data-name="Слой 2"><g id="Objects"><path d="M173.71,35.94l1.47,1.55c1-1,2.05-1.91,3.12-2.84L176.9,33C175.81,34,174.74,35,173.71,35.94Z" fill="#e2ca97"/><path d="M180.2,30.27l1.33,1.65c1.11-.9,2.23-1.77,3.34-2.61l-1.28-1.69C182.48,28.47,181.33,29.35,180.2,30.27Z" fill="#e2ca97"/><path d="M167.81,42.3l1.67,1.32c.82-1,1.74-2.1,2.73-3.16L170.65,39C169.59,40.14,168.64,41.25,167.81,42.3Z" fill="#e2ca97"/><path d="M200.69,34.57c1.08.93,2.13,1.87,3.14,2.83l1.46-1.55c-1-1-2.11-1.95-3.2-2.9Z" fill="#e2ca97"/><path d="M208.35,38.9l-1.54,1.46c1,1.08,1.94,2.14,2.75,3.14l1.66-1.33C210.38,41.12,209.42,40,208.35,38.9Z" fill="#e2ca97"/><path d="M194.09,29.27c1.11.83,2.23,1.7,3.34,2.59l1.33-1.65c-1.13-.92-2.27-1.8-3.4-2.64Z" fill="#e2ca97"/><path d="M233.94,61.85a8.71,8.71,0,0,0-6.15-7.29,25.91,25.91,0,0,0,3.76-8.45,23.48,23.48,0,0,0,1-6.9,22.66,22.66,0,0,0-11-19.61,20.48,20.48,0,0,0-24.37,2.75c-2.54-1.85-4.56-3.2-5.67-3.93a3.4,3.4,0,0,0,.27-1.11h0l3.6,2-5-7.78v-.07h.07l7.78,5-2-3.6h0c2.12,0,3.84-2.28,3.84-2.28s-1.72-2.27-3.84-2.27h0l2-3.6-7.78,5h-.07V9.66l5-7.78-3.6,2h0c0-2.12-2.29-3.84-2.29-3.84s-2.29,1.72-2.29,3.84h0l-3.61-2,5,7.78v.07h-.07l-7.78-5,2,3.6h0c-2.12,0-3.84,2.27-3.84,2.27s1.72,2.28,3.84,2.28h0l-2,3.6,7.78-5h.07v.07l-5,7.78,3.61-2h0a3.28,3.28,0,0,0,.27,1.1c-1.11.72-3.14,2.08-5.69,3.93a20.49,20.49,0,0,0-24.37-2.73,23,23,0,0,0-10,26.32,26.59,26.59,0,0,0,3.83,8.63,8.72,8.72,0,0,0-6.17,7.29H145v5.92h89V61.85h-.1ZM211.23,21a16.46,16.46,0,0,1,8.21,2.23,18.42,18.42,0,0,1,8.9,15.94,19.83,19.83,0,0,1-.9,5.83c-.66,3.09-2.51,6.38-4.95,9.65-.28.1-.56.17-.82.28a1,1,0,0,1-.07-.14c0-.08,0-.18,0-.27a18.56,18.56,0,0,0-.89-5.71c-1.85-8.36-12-17.66-20.06-23.89A16.44,16.44,0,0,1,211.23,21Zm-21.7,40.78a6.38,6.38,0,1,1,6.38-6.38A6.38,6.38,0,0,1,189.53,61.83ZM159.61,23.27a16.25,16.25,0,0,1,18.78,1.67c-8,6.21-18.18,15.46-20,23.7a19,19,0,0,0-.95,5.92c0,.1,0,.18,0,.28s-.05.1-.07.14c-.24-.11-.52-.17-.77-.26-2.5-3.34-4.38-6.7-5.07-9.87a19.17,19.17,0,0,1-.85-5.63A18.42,18.42,0,0,1,159.61,23.27ZM176,50.64a11.88,11.88,0,0,0-7.71-2.84,12.7,12.7,0,0,0-1.68.12c.16-.31.28-.6.47-.92l-1.84-1.08a18.29,18.29,0,0,0-1.3,2.73,10.64,10.64,0,0,0-1.35.63c2.34-8.7,16.52-20,24.76-25.68v1.28c-.09.06,0,.53,0,.53V42.12A14.86,14.86,0,0,0,176,50.64Zm15.61-8.51V25.36s.08-.42,0-.47V23.61c8.19,5.66,22.22,16.83,24.75,25.66a10.65,10.65,0,0,0-1.31-.62,17.25,17.25,0,0,0-1.33-2.86l-1.84,1.08c.21.37.36.7.53,1A11.94,11.94,0,0,0,203,50.64,14.85,14.85,0,0,0,191.66,42.13Z" fill="#e2ca97"/><path d="M377,43.73c.35-1.83-2-.11-3.42,1.12a1.65,1.65,0,0,0,.11-1.77c-.23-1.44-1.64-.3-1.64-.3-.91-2.67-4.76,2.91-4.76,2.91-.91-2.62-3.76,1.8-4.5,3a48.32,48.32,0,0,1-7.61,2,2,2,0,0,0-.53-.16,3.29,3.29,0,0,0,.82-1.82c3.76.59,3.35-2.41,3.35-2.41,4.31-2.38,1.43-3.79,1.43-3.79,3-5.41-.53-4.62-.53-4.62.57-7.67-3.38-1.75-3.38-1.75-1.26-1.37-1.27,1.51-1.15,3.41a1.65,1.65,0,0,0-1.36-1.15c-1.29-.68-1.22,1.13-1.22,1.13-2.68-.87-.52,5.56-.52,5.56-3-1-.15,5.73-.15,5.73a4.15,4.15,0,0,0,.85.22,42.57,42.57,0,0,1-9.25.13,1.94,1.94,0,0,0-1.44-.16c-1-.13-1.9-.29-2.8-.47a3.65,3.65,0,0,0,.61-.79c3.24,2,4-.93,4-.93,4.9-.53,2.78-2.94,2.78-2.94,4.86-3.83,1.3-4.46,1.3-4.46,3.49-6.85-2.44-2.91-2.44-2.91-.63-1.75-1.75.9-2.38,2.7a1.66,1.66,0,0,0-.81-1.59c-.93-1.12-1.56.57-1.56.57-2.14-1.84-2.63,4.93-2.63,4.93-2-1.69-2.3,2.84-2.35,4.57a41.1,41.1,0,0,1-5.22-1.92l-.06-.05s3.79-2.6-3.84-4.49c0,0,1.19-3.89-4.76-1.95a3,3,0,0,0-2.4-1,63.47,63.47,0,0,0,5.65-3.09c2.07,2.71,4.69.18,4.69.18,3.13,3.68,5.22.46,5.22.46,6.13,1.28,4.52-2.46,4.52-2.46C347,32.63,343,30.46,343,30.46c6.91-6.91-1.8-4.48-1.8-4.48-.07-2.36-2.47.4-3.94,2.33a2.1,2.1,0,0,0-.35-2.23c-.68-1.72-2.11.07-2.11.07-1.86-3.06-5.11,4.92-5.11,4.92-1.85-3-4.19,3.29-4.76,5a61.48,61.48,0,0,1-8.32,4.34,4.1,4.1,0,0,0,.6-2.59c4.82-.3,3.49-3.91,3.49-3.91,4.7-4.14.74-5.09.74-5.09,2.24-7.53-1.92-5.59-1.92-5.59-1.4-9.67-4.67-1.24-4.67-1.24-1.94-1.36-1.16,2.21-.5,4.55a2.1,2.1,0,0,0-2-1.06c-1.79-.49-1.21,1.74-1.21,1.74-3.57-.34.88,7,.88,7-4-.38,1.38,7.15,1.38,7.15.21,0,.39,0,.58,0a54.24,54.24,0,0,1-12.24,3,2.47,2.47,0,0,0-1.83.19c-1.25.11-2.48.17-3.66.19a4,4,0,0,0,1.68-2.23c4.56,1.59,4.73-2.25,4.73-2.25,5.93-2,2.65-4.41,2.65-4.41,5-6.08.39-5.9.39-5.9,2.45-9.46-3.82-2.95-3.82-2.95-1.26-2-1.93,1.59-2.22,4a2.1,2.1,0,0,0-1.43-1.75c-1.46-1.14-1.79,1.13-1.79,1.13-3.16-1.69-1.92,6.83-1.92,6.83-3.59-1.91-1.5,7.13-1.5,7.13a5.76,5.76,0,0,0,.74.37A48.68,48.68,0,0,1,275.94,41c-.3-.13-1.52-.94-1.88-1.17q2.45-2.28,4.72-4.83c2.94,1.8,4.81-1.54,4.81-1.54,4.58,3,5.79-1.21,5.79-1.21,7-.62,4.07-4.13,4.07-4.13,7.07-5.35,2-6.36,2-6.36,5.2-9.72-3.41-4.25-3.41-4.25-.85-2.53-2.53,1.24-3.49,3.8a2.37,2.37,0,0,0-1.11-2.3c-1.3-1.64-2.26.77-2.26.77-3-2.7-3.92,7-3.92,7-3.28-2.92-3.52,6.55-3.53,7.36a70.06,70.06,0,0,1-6.43,6.34,5.31,5.31,0,0,0-.37-1.64c5.11-1.9,2.5-5.36,2.5-5.36,3.72-6-.87-5.74-.87-5.74,0-8.87-3.9-5.41-3.9-5.41-4.67-10-5.45.19-5.45.19-2.53-.83-.53,2.77.95,5.07a2.37,2.37,0,0,0-2.5-.49c-2.09.06-.74,2.27-.74,2.27-4,.8,3.25,7.32,3.25,7.32-3.81.78,1.58,5.46,3.32,6.87a62.64,62.64,0,0,1-17.85,9.38,4.48,4.48,0,0,0,1.11-3c5.45.23,4.38-4,4.38-4,5.75-4.1,1.42-5.63,1.42-5.63,3.39-8.19-1.5-6.5-1.5-6.5-.44-11-5.09-1.94-5.09-1.94-2-1.75-1.56,2.35-1.09,5a2.37,2.37,0,0,0-2.12-1.42c-1.95-.75-1.56,1.81-1.56,1.81-4-.8.16,8,.16,8-4.5-.89.71,8.18.71,8.18a6.25,6.25,0,0,0,1,.16,55.89,55.89,0,0,1-10.19,1.88L237,57a57.17,57.17,0,0,0,9.83-1.74c.33,1.43,2.38,9.71,4.89,6.35,0,0,2.82,9.3,5.23,6.06,0,0,1.42,2.16,2.37.3a2.37,2.37,0,0,0,.63-2.47c1.45,2.32,3.85,5.67,4.18,3,0,0,9.53,3.64,2.49-4.85,0,0,4.77-2-3.22-5.84,0,0,2.2-4-4.82-3.23,0,0-2-3.84-5.91,0a5.32,5.32,0,0,0-1-.86,63.23,63.23,0,0,0,11.86-5.76l-.06.13s4.56,9.42,6.36,5.2c0,0,4.95,8.37,6.52,4.65,0,0,1.9,1.76,2.37-.27a2.37,2.37,0,0,0,0-2.55c2,1.91,5.09,4.6,4.78,1.95,0,0,10.12,1.28,1.27-5.3,0,0,4.16-3.08-4.52-4.9,0,0,1.18-4.44-5.45-2,0,0-2.87-3.25-5.75,1.37a5.19,5.19,0,0,0-1.83-.76,68.94,68.94,0,0,0,5.89-4.73c.54.32,2,1.2,2.35,1.34a51.13,51.13,0,0,0,23,3.8c.11,1.06,1,8.92,3.62,6.19,0,0,1.47,8.49,3.94,5.9,0,0,1,2.06,2.05.52a2.1,2.1,0,0,0,.82-2.1c1,2.2,2.77,5.41,3.35,3.12,0,0,8,4.24,2.72-4,0,0,4.42-1.25-2.2-5.48,0,0,2.37-3.31-3.89-3.37a2.8,2.8,0,0,0-2.7-1.8,55.59,55.59,0,0,0,5.84-1.54c-.09.16-.17.32-.25.51,0,0,3.73,8.49,5.46,4.81,0,0,4.11,7.57,5.62,4.33,0,0,1.62,1.62,2.11-.16a2.1,2.1,0,0,0,.1-2.26c1.67,1.75,4.36,4.23,4.17,1.88,0,0,7,1.14,3.29-2.85,1.16.44,2.43.86,3.79,1.23a2.23,2.23,0,0,0,1.83.46q1.29.29,2.68.52c-.1.81-.76,7,1.73,5.38,0,0-.31,6.77,2,5.2,0,0,.43,1.75,1.49.75a1.65,1.65,0,0,0,1-1.48c.41,1.86,1.21,4.63,2,3,0,0,5.42,4.62,2.77-2.6,0,0,3.61-.21-.76-4.59,0,0,2.39-2.14-2.41-3.25a2.19,2.19,0,0,0-1.8-1.85,43.82,43.82,0,0,0,5.52-.27c.09,1.59.53,6.46,2.52,4.64,0,0,.73,6.74,2.8,4.83,0,0,.7,1.67,1.58.51a1.65,1.65,0,0,0,.75-1.61c.69,1.78,1.91,4.38,2.48,2.61,0,0,6.06,3.73,2.33-3,0,0,3.53-.76-1.46-4.41,0,0,2-2.48-2.88-2.84,0,0-.88-2.89-4-.78a3.62,3.62,0,0,0-.38-.5,49.37,49.37,0,0,0,6.72-1.82c1.13,2.44,3.58.94,3.58.94,1.78,3.36,3.93,1.24,3.93,1.24,4.49,2,3.89-1.12,3.89-1.12,6.13-.84,3.38-3.19,3.38-3.19C384.14,43.34,377,43.73,377,43.73ZM264.07,48l.84-.2a8.47,8.47,0,0,1,1-.19l1.29-.11c.48,0,1,0,1.53,0a16.69,16.69,0,0,1,1.7.19c.59.08,1.19.22,1.79.36s1.21.34,1.81.52,1.19.42,1.76.66,1.13.49,1.66.75,1,.53,1.5.79.9.54,1.3.78a19.38,19.38,0,0,1,2.51,1.87l-.78-.36-2-.93-1.37-.59L277,50.91c-.53-.23-1.09-.42-1.65-.64s-1.14-.4-1.72-.61-1.16-.37-1.74-.54-1.14-.33-1.7-.44-1.09-.26-1.61-.33-1-.17-1.46-.22L265.9,48c-.37,0-.7,0-1,0Zm-16.67,7.1h.86a8.43,8.43,0,0,1,1,.05l1.28.2c.47.09,1,.24,1.48.39a16.88,16.88,0,0,1,1.61.59c.55.22,1.1.5,1.66.77s1.09.62,1.64.93,1.06.69,1.55,1.06,1,.74,1.43,1.12.88.76,1.27,1.12.75.73,1.08,1.07a19.52,19.52,0,0,1,2,2.41l-.67-.54-1.76-1.39-1.19-.9c-.42-.32-.87-.65-1.34-1s-1-.66-1.45-1-1-.66-1.53-1-1-.64-1.56-.93-1-.59-1.55-.83-1-.51-1.49-.7-.94-.41-1.37-.56l-1.19-.41c-.35-.12-.68-.18-.94-.26Zm2.05-5.57c-.29.46-.55.9-.84,1.28s-.57.71-.82,1a8.81,8.81,0,0,1-.71.7c-.4.38-.64.58-.64.58s.17-.27.46-.73c.14-.23.34-.49.53-.82s.38-.7.61-1.1.4-.87.64-1.33.4-1,.64-1.51.38-1.1.6-1.65.36-1.15.54-1.74.34-1.17.47-1.76.29-1.16.4-1.72.24-1.11.34-1.63l.28-1.47.38-2.21.14-.85a19.41,19.41,0,0,1,.13,3.13c0,.47,0,1-.09,1.52s-.1,1.11-.19,1.69-.19,1.19-.31,1.79-.3,1.21-.44,1.83-.38,1.2-.59,1.79-.45,1.15-.71,1.68A16.77,16.77,0,0,1,249.45,49.51ZM280,33.59l.78-.94.22-.13c.39-.24.79-.54,1.23-.82s.85-.66,1.32-1,.88-.76,1.35-1.12.89-.81,1.34-1.23.89-.84,1.3-1.28.84-.85,1.22-1.28.77-.83,1.12-1.23l1-1.12,1.45-1.71.55-.66a19.5,19.5,0,0,1-1.47,2.76c-.26.39-.52.83-.84,1.26s-.64.9-1,1.36-.76.93-1.18,1.39-.87.9-1.31,1.35-.94.84-1.42,1.24-1,.76-1.47,1.09a16.72,16.72,0,0,1-1.46.89c-.48.25-.93.5-1.38.68l-1.21.46Zm-11.57,9.22-.2.15.08-.44c0-.27.13-.58.17-1s.08-.79.14-1.25,0-1,.08-1.47,0-1.08,0-1.64-.08-1.16-.09-1.76-.11-1.2-.18-1.81-.14-1.21-.25-1.8-.18-1.18-.3-1.74-.21-1.11-.31-1.63L267.27,27l-.5-2.19-.2-.84a19.46,19.46,0,0,1,1.33,2.84c.16.44.35.92.5,1.43s.34,1.06.47,1.63.29,1.16.4,1.77.2,1.23.3,1.86.11,1.26.15,1.88,0,1.24,0,1.83a16.69,16.69,0,0,1-.16,1.71c-.09.54-.16,1-.28,1.51s-.25.88-.36,1.24a8.63,8.63,0,0,1-.38.92ZM317,34.56c-.15.53-.29,1.05-.48,1.55a14.81,14.81,0,0,1-.57,1.41c-.22.43-.41.85-.63,1.21s-.44.68-.63,1a7.82,7.82,0,0,1-.56.68c-.32.37-.51.57-.51.57s.12-.25.34-.68c.1-.22.26-.46.39-.77s.27-.65.44-1,.28-.8.44-1.23.26-.92.42-1.39.23-1,.37-1.51.21-1.05.31-1.58.19-1.06.25-1.59.15-1,.2-1.56.11-1,.15-1.46l.11-1.32.13-2,0-.76a17.23,17.23,0,0,1,.4,2.75c0,.41.07.87.06,1.34s0,1,0,1.5-.06,1.06-.11,1.61-.15,1.1-.22,1.65S317.17,34,317,34.56Zm24.22,17.29.56.2a5.76,5.76,0,0,1,.64.26l.79.43c.29.17.57.38.89.6a11.66,11.66,0,0,1,.92.76c.31.27.61.58.91.9s.57.66.86,1,.53.7.77,1.06.47.72.68,1.07.4.7.57,1,.32.66.46,1a13.69,13.69,0,0,1,.75,2.05l-.32-.51-.83-1.32-.57-.87-.65-1c-.22-.34-.48-.66-.72-1s-.51-.67-.77-1-.53-.66-.81-1-.54-.63-.83-.91-.54-.57-.81-.81-.52-.49-.77-.69l-.69-.54c-.2-.16-.4-.28-.56-.39Zm3.3.32q.94.07,1.92.09a4.61,4.61,0,0,0-1.62.46A3.62,3.62,0,0,0,344.56,52.17ZM299,45.86l.76.1a7.47,7.47,0,0,1,.87.15l1.1.32c.4.13.82.32,1.26.5a14.8,14.8,0,0,1,1.35.69c.46.25.91.56,1.37.86s.89.66,1.34,1,.85.72,1.25,1.1.78.76,1.14,1.14.69.76,1,1.13.58.73.83,1.06a17.35,17.35,0,0,1,1.49,2.34l-.53-.54-1.4-1.41-.95-.92-1.07-1c-.36-.36-.77-.69-1.17-1s-.82-.69-1.23-1-.84-.67-1.27-1-.84-.63-1.27-.9-.82-.56-1.23-.78-.78-.46-1.14-.64l-1-.49c-.3-.15-.57-.23-.8-.33Zm-3.16-3.13-.95.64a7.7,7.7,0,0,1-.78.42l-.69.33.58-.5c.18-.16.42-.32.66-.56s.5-.5.8-.77.57-.63.89-1,.6-.74.93-1.12.6-.83.93-1.25.6-.89.9-1.34.59-.91.85-1.37.55-.91.78-1.36.49-.88.71-1.29l.62-1.17.89-1.78.34-.68a17.21,17.21,0,0,1-.69,2.69c-.14.39-.28.82-.46,1.26s-.37.91-.6,1.38-.46,1-.73,1.44-.56,1-.85,1.44-.63.92-1,1.37-.68.86-1,1.25a14.69,14.69,0,0,1-1.07,1.08C296.53,42.18,296.2,42.49,295.86,42.73Zm7.35,2.62q1.17-.17,2.38-.41a5.88,5.88,0,0,0-1.86,1A4.6,4.6,0,0,0,303.2,45.35Zm23.06-8.84.53-.34.11,0,1.08-.26c.39-.1.81-.26,1.25-.38s.89-.34,1.37-.5.94-.41,1.44-.6,1-.46,1.45-.7,1-.48,1.43-.75.93-.5,1.36-.77l1.26-.76,1.12-.7,1.67-1.08.64-.42a17.26,17.26,0,0,1-2,2c-.32.27-.65.57-1,.85s-.78.6-1.21.89-.88.59-1.36.87-1,.54-1.46.81-1,.47-1.52.69-1,.4-1.53.55a14.7,14.7,0,0,1-1.47.38c-.48.09-.92.18-1.34.22l-1.15.07A4.54,4.54,0,0,1,326.26,36.52ZM318,41a6.37,6.37,0,0,0-1.15,1.32,4.49,4.49,0,0,0-.83-.48C316.66,41.58,317.32,41.31,318,41Zm4.69,4.23c.5.23,1,.47,1.44.72s.9.5,1.3.75.78.5,1.13.73a17.27,17.27,0,0,1,2.16,1.74l-.68-.35-1.78-.89-1.19-.57-1.34-.61c-.46-.22-1-.4-1.44-.62s-1-.39-1.5-.59-1-.37-1.52-.53-1-.33-1.49-.44-1-.27-1.41-.34-.89-.19-1.29-.24l-1.1-.14c-.33,0-.62,0-.86-.06l-.76-.05.75-.15a7.5,7.5,0,0,1,.87-.13l1.15-.05c.42,0,.87,0,1.36.07a15.14,15.14,0,0,1,1.5.22c.52.09,1,.24,1.58.38s1.06.34,1.59.52S322.18,45,322.68,45.25ZM337,50l-.29-.08,0,0c.17-.09.38-.18.6-.32l.75-.46c.27-.17.54-.39.84-.59s.59-.47.9-.7.6-.54.93-.8.61-.58.92-.87.61-.6.88-.91.57-.6.83-.91l.76-.87.67-.8,1-1.22.37-.47a13.49,13.49,0,0,1-1,1.95c-.17.28-.35.59-.57.89s-.43.64-.69,1-.52.66-.8,1-.59.64-.89,1-.64.6-1,.89-.67.55-1,.78a11.38,11.38,0,0,1-1,.65c-.34.18-.65.36-1,.49l-.84.33A3.39,3.39,0,0,1,337,50Zm16.35,1.86.45-.06.29.08.85.3c.31.12.62.29,1,.46a11.71,11.71,0,0,1,1,.61c.35.22.69.48,1,.75s.67.56,1,.85.63.61.93.93.58.64.84,1,.5.63.73.94.42.6.6.87a13.55,13.55,0,0,1,1.06,1.91l-.39-.45-1-1.18-.7-.77-.79-.84c-.27-.3-.57-.58-.86-.88s-.61-.58-.92-.88-.63-.57-.95-.84-.63-.54-1-.77-.62-.48-.93-.67-.59-.4-.86-.56L354,52.2c-.23-.13-.44-.21-.61-.3Zm1.27-3.58c-.24.3-.46.58-.69.82l-.64.63a6.07,6.07,0,0,1-.54.43l-.49.35.38-.47c.12-.15.28-.31.43-.52s.32-.46.51-.71.35-.57.55-.87.36-.66.56-1,.35-.73.54-1.1.34-.77.51-1.16.33-.79.46-1.18.3-.78.41-1.16.25-.75.36-1.1l.31-1,.44-1.5.17-.58a13.48,13.48,0,0,1-.16,2.18c-.05.32-.1.68-.18,1s-.15.76-.27,1.15-.22.81-.36,1.22-.3.82-.45,1.23-.36.8-.55,1.19-.4.76-.63,1.11S354.88,48,354.64,48.32Zm21.68-2.13a13.54,13.54,0,0,1-1.84,1.18c-.29.15-.6.33-.94.48s-.7.33-1.08.48-.78.3-1.19.44-.84.25-1.26.38-.86.19-1.29.27-.85.13-1.27.16a11.5,11.5,0,0,1-1.19,0c-.38,0-.74,0-1.07-.06l-.89-.14a3.64,3.64,0,0,1-.53-.14l.48-.17h.09l.87,0c.32,0,.66-.06,1-.08s.74-.11,1.14-.15.79-.16,1.2-.22.82-.19,1.23-.29.83-.21,1.22-.34.8-.23,1.18-.36l1.1-.37,1-.35,1.47-.55Z" fill="#a79546"/><path d="M2.73,46.77S0,49.12,6.11,50c0,0-.6,3.15,3.89,1.12,0,0,2.15,2.12,3.93-1.24,0,0,2.45,1.5,3.58-.94a49.37,49.37,0,0,0,6.72,1.82,3.62,3.62,0,0,0-.38.5c-3.16-2.11-4,.78-4,.78-4.91.36-2.88,2.84-2.88,2.84-5,3.65-1.46,4.41-1.46,4.41-3.73,6.73,2.33,3,2.33,3,.57,1.77,1.78-.84,2.48-2.61A1.65,1.65,0,0,0,21,61.27c.89,1.15,1.58-.51,1.58-.51,2.07,1.91,2.8-4.83,2.8-4.83,2,1.82,2.43-3,2.52-4.64a43.82,43.82,0,0,0,5.52.27,2.19,2.19,0,0,0-1.8,1.85c-4.8,1.11-2.41,3.25-2.41,3.25-4.36,4.38-.76,4.59-.76,4.59-2.65,7.22,2.77,2.6,2.77,2.6.83,1.66,1.63-1.1,2-3a1.65,1.65,0,0,0,1,1.48c1.06,1,1.49-.75,1.49-.75,2.34,1.57,2-5.2,2-5.2,2.49,1.66,1.83-4.57,1.73-5.38q1.39-.22,2.68-.52A2.23,2.23,0,0,0,44,50.06c1.36-.37,2.62-.79,3.79-1.23-3.71,4,3.29,2.85,3.29,2.85-.19,2.36,2.5-.12,4.17-1.88a2.1,2.1,0,0,0,.1,2.26c.49,1.78,2.11.16,2.11.16,1.51,3.24,5.62-4.33,5.62-4.33,1.73,3.68,5.46-4.81,5.46-4.81-.08-.19-.16-.35-.25-.51a55.59,55.59,0,0,0,5.84,1.54,2.8,2.8,0,0,0-2.7,1.8c-6.26.06-3.89,3.37-3.89,3.37-6.62,4.24-2.2,5.48-2.2,5.48-5.26,8.23,2.72,4,2.72,4,.58,2.29,2.32-.92,3.35-3.12a2.1,2.1,0,0,0,.82,2.1c1,1.53,2.05-.52,2.05-.52,2.48,2.59,3.94-5.9,3.94-5.9,2.63,2.73,3.51-5.13,3.62-6.19a51.13,51.13,0,0,0,23-3.8c.32-.14,1.81-1,2.35-1.34a68.94,68.94,0,0,0,5.89,4.73,5.19,5.19,0,0,0-1.83.76c-2.88-4.62-5.75-1.37-5.75-1.37-6.63-2.44-5.45,2-5.45,2C91.43,47.94,95.6,51,95.6,51c-8.85,6.58,1.27,5.3,1.27,5.3-.31,2.65,2.82,0,4.78-1.95a2.37,2.37,0,0,0,0,2.55c.48,2,2.37.27,2.37.27,1.57,3.72,6.52-4.65,6.52-4.65,1.8,4.22,6.36-5.2,6.36-5.2l-.06-.13A63.23,63.23,0,0,0,128.72,53a5.32,5.32,0,0,0-1,.86c-3.9-3.81-5.91,0-5.91,0-7-.8-4.82,3.23-4.82,3.23-8,3.83-3.22,5.84-3.22,5.84-7,8.49,2.49,4.85,2.49,4.85.33,2.65,2.73-.7,4.18-3a2.37,2.37,0,0,0,.63,2.47c.94,1.86,2.37-.3,2.37-.3,2.41,3.24,5.23-6.06,5.23-6.06,2.52,3.36,4.56-4.92,4.89-6.35a57.17,57.17,0,0,0,9.83,1.74l.12-1.38A55.89,55.89,0,0,1,133.3,53a6.25,6.25,0,0,0,1-.16s5.21-9.08.71-8.18c0,0,4.12-8.81.16-8,0,0,.39-2.56-1.56-1.81a2.37,2.37,0,0,0-2.12,1.42c.47-2.7.93-6.79-1.09-5,0,0-4.65-9.08-5.09,1.94,0,0-4.89-1.7-1.5,6.5,0,0-4.33,1.53,1.42,5.63,0,0-1.07,4.2,4.38,4a4.48,4.48,0,0,0,1.11,3,62.64,62.64,0,0,1-17.85-9.38c1.73-1.41,7.12-6.09,3.32-6.87,0,0,7.21-6.52,3.25-7.32,0,0,1.35-2.21-.74-2.27a2.37,2.37,0,0,0-2.5.49c1.48-2.3,3.48-5.91.95-5.07,0,0-.78-10.18-5.45-.19,0,0-3.85-3.46-3.9,5.41,0,0-4.59-.27-.87,5.74,0,0-2.61,3.46,2.5,5.36a5.31,5.31,0,0,0-.37,1.64,70.06,70.06,0,0,1-6.43-6.34c0-.81-.25-10.27-3.53-7.36,0,0-.91-9.68-3.92-7,0,0-1-2.4-2.26-.77a2.37,2.37,0,0,0-1.11,2.3c-1-2.56-2.64-6.33-3.49-3.8,0,0-8.61-5.47-3.41,4.25,0,0-5.08,1,2,6.36,0,0-3,3.51,4.07,4.13,0,0,1.21,4.17,5.79,1.21,0,0,1.87,3.34,4.81,1.54q2.26,2.55,4.72,4.83c-.35.23-1.58,1-1.88,1.17a48.68,48.68,0,0,1-17.78,3.77,5.76,5.76,0,0,0,.74-.37s2.09-9-1.5-7.13c0,0,1.24-8.53-1.92-6.83,0,0-.33-2.27-1.79-1.13a2.1,2.1,0,0,0-1.43,1.75c-.29-2.41-1-6-2.22-4,0,0-6.28-6.51-3.82,2.95,0,0-4.59-.19.39,5.9,0,0-3.28,2.41,2.65,4.41,0,0,.17,3.84,4.73,2.25a4,4,0,0,0,1.68,2.23c-1.18,0-2.41-.08-3.66-.19a2.47,2.47,0,0,0-1.83-.19,54.24,54.24,0,0,1-12.24-3c.18,0,.37,0,.58,0,0,0,5.43-7.52,1.38-7.15,0,0,4.44-7.38.88-7,0,0,.58-2.22-1.21-1.74a2.1,2.1,0,0,0-2,1.06c.66-2.33,1.44-5.9-.5-4.55,0,0-3.27-8.43-4.67,1.24,0,0-4.16-1.95-1.92,5.59,0,0-4,.95.74,5.09,0,0-1.33,3.61,3.49,3.91a4.1,4.1,0,0,0,.6,2.59,61.48,61.48,0,0,1-8.32-4.34c-.58-1.69-2.92-8-4.76-5,0,0-3.25-8-5.11-4.92,0,0-1.43-1.79-2.11-.07a2.1,2.1,0,0,0-.35,2.23c-1.47-1.93-3.86-4.69-3.94-2.33,0,0-8.71-2.43-1.8,4.48,0,0-4,2.16,3.32,4.89,0,0-1.61,3.74,4.52,2.46,0,0,2.09,3.22,5.22-.46,0,0,2.62,2.53,4.69-.18a63.47,63.47,0,0,0,5.65,3.09,3,3,0,0,0-2.4,1c-5.95-1.95-4.76,1.95-4.76,1.95C46,44.44,49.81,47,49.81,47l-.06.05A41.1,41.1,0,0,1,44.52,49c0-1.74-.37-6.27-2.35-4.57,0,0-.49-6.76-2.63-4.93,0,0-.64-1.69-1.56-.57a1.66,1.66,0,0,0-.81,1.59c-.63-1.8-1.75-4.45-2.38-2.7,0,0-5.93-3.94-2.44,2.91,0,0-3.56.64,1.3,4.46,0,0-2.11,2.41,2.78,2.94,0,0,.78,2.92,4,.93a3.65,3.65,0,0,0,.61.79c-.9.18-1.83.34-2.8.47a1.94,1.94,0,0,0-1.44.16,42.57,42.57,0,0,1-9.25-.13,4.15,4.15,0,0,0,.85-.22s2.89-6.7-.15-5.73c0,0,2.16-6.43-.52-5.56,0,0,.07-1.8-1.22-1.13a1.65,1.65,0,0,0-1.36,1.15c.11-1.9.11-4.78-1.15-3.41,0,0-3.94-5.92-3.38,1.75,0,0-3.52-.79-.53,4.62,0,0-2.88,1.4,1.43,3.79,0,0-.41,3,3.35,2.41a3.29,3.29,0,0,0,.82,1.82,2,2,0,0,0-.53.16,48.32,48.32,0,0,1-7.61-2c-.74-1.21-3.59-5.63-4.5-3,0,0-3.85-5.58-4.76-2.91,0,0-1.41-1.13-1.64.3a1.65,1.65,0,0,0,.11,1.77C5.32,42.91,3,41.19,3.35,43,3.35,43-3.75,42.63,2.73,46.77Zm112.73.52c-.27,0-.6,0-1,0l-1.25.11c-.45,0-.94.16-1.46.22s-1,.23-1.61.33-1.12.31-1.7.44-1.16.35-1.74.54-1.16.38-1.72.61-1.12.41-1.65.64l-1.53.64-1.37.59-2,.93-.78.36a19.38,19.38,0,0,1,2.51-1.87c.4-.25.82-.53,1.3-.78s1-.54,1.5-.79,1.08-.52,1.66-.75,1.17-.44,1.76-.66,1.21-.36,1.81-.52,1.21-.28,1.79-.36a16.69,16.69,0,0,1,1.7-.19c.55,0,1.06-.05,1.53,0l1.29.11a8.47,8.47,0,0,1,1,.19l.84.2Zm16.7,7.3c-.26.08-.58.13-.94.26l-1.19.41c-.43.15-.88.37-1.37.56s-1,.47-1.49.7-1,.56-1.55.83-1,.62-1.56.93-1,.65-1.53,1-1,.66-1.45,1-.92.66-1.34,1l-1.19.9-1.76,1.39-.67.54a19.52,19.52,0,0,1,2-2.41c.33-.33.68-.71,1.08-1.07s.81-.76,1.27-1.12.93-.76,1.43-1.12,1-.7,1.55-1.06,1.09-.64,1.64-.93,1.11-.55,1.66-.77a16.88,16.88,0,0,1,1.61-.59c.53-.15,1-.3,1.48-.39l1.28-.2a8.43,8.43,0,0,1,1-.05H133Zm-2-7.32c-.26-.53-.48-1.11-.71-1.68s-.4-1.19-.59-1.79-.32-1.22-.44-1.83-.23-1.21-.31-1.79-.15-1.15-.19-1.69-.07-1-.09-1.52a19.41,19.41,0,0,1,.13-3.13l.14.85.38,2.21.28,1.47c.1.52.22,1.06.34,1.63s.27,1.14.4,1.72.31,1.17.47,1.76.35,1.17.54,1.74.37,1.13.6,1.65.4,1,.64,1.51.42.93.64,1.33.43.76.61,1.1.38.59.53.82c.3.45.46.73.46.73s-.23-.2-.64-.58a8.81,8.81,0,0,1-.71-.7c-.24-.3-.52-.63-.82-1s-.55-.82-.84-1.28A16.77,16.77,0,0,1,130.13,47.28ZM100.27,32.85l-1.21-.46c-.44-.18-.89-.43-1.38-.68a16.72,16.72,0,0,1-1.46-.89c-.5-.33-1-.71-1.47-1.09s-.95-.82-1.42-1.24-.9-.89-1.31-1.35-.81-.92-1.18-1.39-.71-.92-1-1.36-.59-.87-.84-1.26a19.5,19.5,0,0,1-1.47-2.76l.55.66,1.45,1.71,1,1.12c.35.4.73.81,1.12,1.23s.81.84,1.22,1.28.86.85,1.3,1.28.89.83,1.34,1.23.89.79,1.35,1.12.88.7,1.32,1,.84.59,1.23.82l.22.13.78.94Zm11.57,9a8.63,8.63,0,0,1-.38-.92c-.11-.37-.24-.78-.36-1.24s-.19-1-.28-1.51a16.69,16.69,0,0,1-.16-1.71c0-.59,0-1.21,0-1.83s.09-1.25.15-1.88.17-1.25.3-1.86.25-1.2.4-1.77.31-1.12.47-1.63.34-1,.5-1.43a19.46,19.46,0,0,1,1.33-2.84l-.2.84-.5,2.19-.31,1.46c-.11.52-.21,1.06-.31,1.63s-.19,1.15-.3,1.74-.16,1.2-.25,1.8-.13,1.21-.18,1.81-.1,1.19-.09,1.76,0,1.12,0,1.64,0,1,.08,1.47.1.87.14,1.25.13.69.17,1l.08.44-.2-.15ZM63,32.22c-.07-.55-.17-1.1-.22-1.65s-.1-1.09-.11-1.61,0-1,0-1.5,0-.93.06-1.34a17.23,17.23,0,0,1,.4-2.75l0,.76.13,2,.11,1.32c0,.47.09,1,.15,1.46s.14,1,.2,1.56S63.9,31.51,64,32s.2,1.06.31,1.58.22,1,.37,1.51.26,1,.42,1.39.29.86.44,1.23.31.71.44,1,.28.55.39.77c.22.43.34.68.34.68s-.19-.2-.51-.57a7.82,7.82,0,0,1-.56-.68c-.19-.28-.4-.6-.63-1s-.41-.77-.63-1.21a14.81,14.81,0,0,1-.57-1.41c-.18-.5-.33-1-.48-1.55S63.1,32.77,63,32.22ZM38.63,51.49c-.15.11-.35.22-.56.39l-.69.54c-.25.2-.49.45-.77.69s-.52.53-.81.81-.53.61-.83.91-.54.65-.81,1-.53.67-.77,1-.5.67-.72,1l-.65,1-.57.87L30.63,61l-.32.51a13.69,13.69,0,0,1,.75-2.05c.14-.3.28-.62.46-1s.36-.69.57-1,.44-.71.68-1.07.52-.7.77-1.06.57-.67.86-1,.6-.62.91-.9a11.66,11.66,0,0,1,.92-.76c.31-.22.6-.43.89-.6l.79-.43a5.76,5.76,0,0,1,.64-.26l.56-.2ZM35.53,52a4.61,4.61,0,0,0-1.62-.46q1,0,1.92-.09A3.62,3.62,0,0,0,35.53,52Zm45.14-6.57c-.22.1-.5.18-.8.33l-1,.49c-.36.18-.73.42-1.14.64s-.8.52-1.23.78-.83.61-1.27.9-.85.66-1.27,1-.84.68-1.23,1-.8.69-1.17,1l-1.07,1-.95.92L68.14,55l-.53.54a17.35,17.35,0,0,1,1.49-2.34c.25-.33.52-.7.83-1.06s.63-.75,1-1.13.74-.77,1.14-1.14.83-.73,1.25-1.1.89-.68,1.34-1,.91-.61,1.37-.86a14.8,14.8,0,0,1,1.35-.69c.45-.19.86-.38,1.26-.5l1.1-.32a7.47,7.47,0,0,1,.87-.15l.76-.1Zm2.82-4.29a14.69,14.69,0,0,1-1.07-1.08c-.36-.39-.69-.81-1-1.25s-.64-.91-1-1.37-.59-1-.85-1.44-.51-1-.73-1.44-.42-.94-.6-1.38-.32-.87-.46-1.26a17.21,17.21,0,0,1-.69-2.69l.34.68.89,1.78.62,1.17c.22.41.46.85.71,1.29s.52.89.78,1.36.56.91.85,1.37.59.9.9,1.34.61.86.93,1.25.61.79.93,1.12.6.68.89,1,.56.54.8.77.48.4.66.56l.58.5-.69-.33a7.7,7.7,0,0,1-.78-.42L84.53,42C84.19,41.78,83.85,41.47,83.48,41.15Zm-6.82,4.09a5.88,5.88,0,0,0-1.86-1q1.2.23,2.38.41A4.6,4.6,0,0,0,76.67,45.25ZM53.43,35.83l-1.15-.07c-.42,0-.87-.13-1.34-.22a14.7,14.7,0,0,1-1.47-.38c-.51-.15-1-.35-1.53-.55s-1-.45-1.52-.69-1-.52-1.46-.81-.93-.57-1.36-.87-.83-.6-1.21-.89-.72-.59-1-.85a17.26,17.26,0,0,1-2-2l.64.42L41.71,30l1.12.7,1.26.76c.43.27.9.51,1.36.77s.95.5,1.43.75,1,.48,1.45.7,1,.44,1.44.6.92.37,1.37.5.86.28,1.25.38l1.08.26.11,0,.53.34A4.54,4.54,0,0,1,53.43,35.83Zm10.94,5.31a4.49,4.49,0,0,0-.83.48,6.37,6.37,0,0,0-1.15-1.32C63.06,40.6,63.72,40.88,64.38,41.14Zm-5.14,2.75c.53-.18,1.06-.36,1.59-.52s1.06-.28,1.58-.38a15.14,15.14,0,0,1,1.5-.22c.48,0,.93-.08,1.36-.07l1.15.05a7.5,7.5,0,0,1,.87.13L68,43l-.76.05c-.24,0-.53,0-.86.06l-1.1.14c-.4.06-.83.17-1.29.24s-.92.24-1.41.34-1,.31-1.49.44-1,.35-1.52.53-1,.38-1.5.59-1,.4-1.44.62l-1.34.61-1.19.57-1.78.89-.68.35a17.27,17.27,0,0,1,2.16-1.74c.35-.23.71-.5,1.13-.73s.84-.51,1.3-.75.94-.49,1.44-.72S58.72,44.11,59.24,43.89ZM42.87,49.19,42,48.85c-.31-.13-.61-.31-1-.49a11.38,11.38,0,0,1-1-.65c-.34-.23-.67-.51-1-.78s-.65-.59-1-.89-.61-.63-.89-1-.55-.65-.8-1-.48-.65-.69-1-.4-.61-.57-.89a13.49,13.49,0,0,1-1-1.95l.37.47,1,1.22.67.8.76.87c.26.31.55.6.83.91s.59.6.88.91.61.59.92.87.61.56.93.8.6.5.9.7.57.42.84.59l.75.46c.22.14.43.22.6.32l0,0-.29.08A3.39,3.39,0,0,1,42.87,49.19ZM27,51.19c-.17.09-.38.17-.61.3l-.76.43c-.28.16-.55.37-.86.56s-.6.45-.93.67-.62.52-1,.77-.63.56-.95.84-.63.58-.92.88-.6.58-.86.88l-.79.84-.7.77-1,1.18-.39.45a13.55,13.55,0,0,1,1.06-1.91c.18-.27.37-.57.6-.87s.46-.62.73-.94.54-.64.84-1,.62-.62.93-.93.66-.58,1-.85.69-.52,1-.75a11.71,11.71,0,0,1,1-.61c.34-.17.66-.34,1-.46l.85-.3.29-.08.45.06Zm-1.94-4.56c-.23-.35-.42-.73-.63-1.11s-.37-.79-.55-1.19-.32-.82-.45-1.23-.26-.82-.36-1.22-.19-.78-.27-1.15-.13-.72-.18-1a13.48,13.48,0,0,1-.16-2.18l.17.58.44,1.5.31,1c.11.35.24.72.36,1.1s.28.77.41,1.16.31.79.46,1.18.33.78.51,1.16.35.75.54,1.1.36.7.56,1,.37.61.55.87.36.5.51.71.31.38.43.52l.38.47-.49-.35a6.07,6.07,0,0,1-.54-.43l-.64-.63c-.23-.24-.45-.52-.69-.82S25.29,47,25.06,46.63ZM4.62,45.7l1.47.55,1,.35,1.1.37c.38.13.78.24,1.18.36s.81.22,1.22.34.83.2,1.23.29.81.17,1.2.22.77.13,1.14.15.71.07,1,.08l.87,0h.09l.48.17a3.64,3.64,0,0,1-.53.14l-.89.14c-.33,0-.69,0-1.07.06a11.5,11.5,0,0,1-1.19,0c-.41,0-.84-.1-1.27-.16s-.86-.18-1.29-.27-.85-.23-1.26-.38-.81-.28-1.19-.44-.74-.32-1.08-.48-.65-.33-.94-.48a13.54,13.54,0,0,1-1.84-1.18Z" fill="#a79546"/></g></g></svg>