<svg xmlns="http://www.w3.org/2000/svg" viewBox="0 0 89.03 67.76"><title>Ресурс 17</title><g id="Слой_2" data-name="Слой 2"><g id="Objects"><path d="M28.69,35.94l1.47,1.55c1-1,2.05-1.91,3.12-2.84L31.88,33C30.79,34,29.72,35,28.69,35.94Z" fill="#e2ca97"/><path d="M35.19,30.27l1.33,1.65c1.11-.9,2.23-1.77,3.34-2.61l-1.28-1.69C37.46,28.47,36.32,29.35,35.19,30.27Z" fill="#e2ca97"/><path d="M22.79,42.3l1.67,1.32c.82-1,1.74-2.1,2.73-3.16L25.64,39C24.58,40.14,23.62,41.25,22.79,42.3Z" fill="#e2ca97"/><path d="M55.67,34.57c1.08.93,2.13,1.87,3.14,2.83l1.46-1.55c-1-1-2.11-1.95-3.2-2.9Z" fill="#e2ca97"/><path d="M63.34,38.9,61.8,40.36c1,1.08,1.94,2.14,2.75,3.14l1.66-1.33C65.37,41.12,64.4,40,63.34,38.9Z" fill="#e2ca97"/><path d="M49.07,29.27c1.11.83,2.23,1.7,3.34,2.59l1.33-1.65c-1.13-.92-2.27-1.8-3.4-2.64Z" fill="#e2ca97"/><path d="M88.93,61.85a8.71,8.71,0,0,0-6.15-7.29,25.91,25.91,0,0,0,3.76-8.45,23.48,23.48,0,0,0,1-6.9,22.66,22.66,0,0,0-11-19.61A20.48,20.48,0,0,0,52.2,22.35c-2.54-1.85-4.56-3.2-5.67-3.93a3.4,3.4,0,0,0,.27-1.11h0l3.6,2-5-7.78v-.07h.07l7.78,5-2-3.6h0c2.12,0,3.84-2.28,3.84-2.28S53.37,8.3,51.25,8.3h0l2-3.6-7.78,5h-.07V9.66l5-7.78-3.6,2h0C46.8,1.72,44.51,0,44.51,0s-2.29,1.72-2.29,3.84h0l-3.61-2,5,7.78v.07h-.07l-7.78-5,2,3.6h0c-2.12,0-3.84,2.27-3.84,2.27s1.72,2.28,3.84,2.28h0l-2,3.6,7.78-5h.07v.07l-5,7.78,3.61-2h0a3.28,3.28,0,0,0,.27,1.1c-1.11.72-3.14,2.08-5.69,3.93A20.49,20.49,0,0,0,12.44,19.6a23,23,0,0,0-10,26.32,26.59,26.59,0,0,0,3.83,8.63A8.72,8.72,0,0,0,.09,61.85H0v5.92H89V61.85h-.1ZM66.22,21a16.46,16.46,0,0,1,8.21,2.23,18.42,18.42,0,0,1,8.9,15.94,19.83,19.83,0,0,1-.9,5.83c-.66,3.09-2.51,6.38-4.95,9.65-.28.1-.56.17-.82.28a1,1,0,0,1-.07-.14c0-.08,0-.18,0-.27a18.56,18.56,0,0,0-.89-5.71c-1.85-8.36-12-17.66-20.06-23.89A16.44,16.44,0,0,1,66.22,21ZM44.52,61.83a6.38,6.38,0,1,1,6.38-6.38A6.38,6.38,0,0,1,44.52,61.83ZM14.59,23.27a16.25,16.25,0,0,1,18.78,1.67c-8,6.21-18.18,15.46-20,23.7a19,19,0,0,0-.95,5.92c0,.1,0,.18,0,.28s-.05.1-.07.14c-.24-.11-.52-.17-.77-.26-2.5-3.34-4.38-6.7-5.07-9.87a19.17,19.17,0,0,1-.85-5.63A18.42,18.42,0,0,1,14.59,23.27ZM31,50.64a11.88,11.88,0,0,0-7.71-2.84,12.7,12.7,0,0,0-1.68.12c.16-.31.28-.6.47-.92l-1.84-1.08A18.29,18.29,0,0,0,19,48.65a10.64,10.64,0,0,0-1.35.63c2.34-8.7,16.52-20,24.76-25.68v1.28c-.09.06,0,.53,0,.53V42.12A14.86,14.86,0,0,0,31,50.64Zm15.61-8.51V25.36s.08-.42,0-.47V23.61c8.19,5.66,22.22,16.83,24.75,25.66a10.65,10.65,0,0,0-1.31-.62,17.25,17.25,0,0,0-1.33-2.86l-1.84,1.08c.21.37.36.7.53,1A11.94,11.94,0,0,0,58,50.64,14.85,14.85,0,0,0,46.65,42.13Z" fill="#e2ca97"/></g></g></svg>