<?xml version="1.0" encoding="utf-8"?>
<!-- Generator: Adobe Illustrator 21.1.0, SVG Export Plug-In . SVG Version: 6.00 Build 0)  -->
<svg version="1.1" id="Слой_1" xmlns="http://www.w3.org/2000/svg" xmlns:xlink="http://www.w3.org/1999/xlink" x="0px" y="0px"
	 viewBox="0 0 72.7 67.8" style="enable-background:new 0 0 72.7 67.8;" xml:space="preserve">
<style type="text/css">
	.st0{fill:#362B23;}
</style>
<title>Ресурс 17</title>
<g id="Слой_2">
	<g id="Objects">
		<path class="st0" d="M23.4,35.9l1.2,1.5c0.8-1,1.7-1.9,2.5-2.8L26,33C25.1,34,24.3,35,23.4,35.9z"/>
		<path class="st0" d="M28.7,30.3l1.1,1.6c0.9-0.9,1.8-1.8,2.7-2.6l-1-1.7C30.6,28.5,29.7,29.4,28.7,30.3z"/>
		<path class="st0" d="M18.6,42.3l1.4,1.3c0.7-1,1.4-2.1,2.2-3.2L20.9,39C20.1,40.1,19.3,41.3,18.6,42.3z"/>
		<path class="st0" d="M45.5,34.6c0.9,0.9,1.7,1.9,2.6,2.8l1.2-1.5c-0.8-1-1.7-2-2.6-2.9L45.5,34.6z"/>
		<path class="st0" d="M51.7,38.9l-1.3,1.5c0.8,1.1,1.6,2.1,2.2,3.1l1.4-1.3C53.4,41.1,52.6,40,51.7,38.9z"/>
		<path class="st0" d="M40.1,29.3c0.9,0.8,1.8,1.7,2.7,2.6l1.1-1.6c-0.9-0.9-1.9-1.8-2.8-2.6L40.1,29.3z"/>
		<path class="st0" d="M72.6,61.8c-0.3-3.4-2.3-6.3-5-7.3c1.4-2.6,2.5-5.4,3.1-8.5c0.6-2.2,0.8-4.6,0.8-6.9c0.1-8-3.4-15.5-9-19.6
			C56.1,15,48,16.1,42.6,22.4c-2.1-1.9-3.7-3.2-4.6-3.9c0.1-0.4,0.2-0.7,0.2-1.1l0,0l2.9,2l-4.1-7.8v-0.1h0.1l6.4,5l-1.6-3.6l0,0
			c1.7,0,3.1-2.3,3.1-2.3s-1.4-2.3-3.1-2.3l0,0l1.6-3.6l-6.4,5h-0.1v0l4.1-7.8l-2.9,2l0,0c0-2.2-1.9-3.9-1.9-3.9s-1.9,1.7-1.9,3.8
			l0,0l-2.9-2l4.1,7.8v0.1h-0.1l-6.4-5l1.6,3.6l0,0c-1.7,0-3.1,2.3-3.1,2.3s1.4,2.3,3.1,2.3l0,0l-1.6,3.6l6.4-5h0.1v0.1l-4.1,7.8
			l2.9-2l0,0c0,0.4,0.1,0.8,0.2,1.1c-0.9,0.7-2.6,2.1-4.6,3.9c-5.4-6.2-13.5-7.3-19.9-2.7C2.9,25.1-0.5,35.9,2,45.9
			c0.6,3.1,1.7,6,3.1,8.6c-2.7,1-4.7,3.9-5,7.3H0v5.9h72.7L72.6,61.8L72.6,61.8L72.6,61.8z M54.1,21c2.4,0,4.7,0.8,6.7,2.2
			c4.6,3.4,7.3,9.4,7.3,15.9c0,2-0.3,3.9-0.7,5.8c-0.5,3.1-2,6.4-4,9.7c-0.2,0.1-0.5,0.2-0.7,0.3c0,0,0-0.1-0.1-0.1
			c0-0.1,0-0.2,0-0.3c0-1.9-0.2-3.9-0.7-5.7c-1.5-8.4-9.8-17.7-16.4-23.9C47.8,22.4,50.9,21,54.1,21z M36.3,61.8
			c-2.9,0-5.2-2.9-5.2-6.4c0-3.5,2.3-6.4,5.2-6.4c2.9,0,5.2,2.9,5.2,6.4C41.6,59,39.2,61.8,36.3,61.8L36.3,61.8z M11.9,23.3
			c4.9-3.5,11-2.8,15.3,1.7c-6.5,6.2-14.8,15.5-16.3,23.7c-0.5,1.9-0.8,3.9-0.8,5.9c0,0.1,0,0.2,0,0.3s0,0.1-0.1,0.1
			c-0.2-0.1-0.4-0.2-0.6-0.3c-2-3.3-3.6-6.7-4.1-9.9c-0.5-1.8-0.7-3.7-0.7-5.6C4.6,32.7,7.3,26.6,11.9,23.3z M25.3,50.6
			c-1.8-1.8-4-2.8-6.3-2.8c-0.5,0-0.9,0-1.4,0.1c0.1-0.3,0.2-0.6,0.4-0.9l-1.5-1.1c-0.4,0.9-0.7,1.8-1,2.7c-0.4,0.2-0.7,0.4-1.1,0.6
			c1.9-8.7,13.5-20,20.2-25.7v1.3c-0.1,0.1,0,0.5,0,0.5v16.7C30.5,42.8,27,46,25.3,50.6z M38.1,42.1V25.4c0,0,0.1-0.4,0-0.5v-1.3
			c6.7,5.7,18.1,16.8,20.2,25.7c-0.3-0.2-0.7-0.4-1.1-0.6c-0.3-1-0.7-1.9-1.1-2.9l-1.5,1.1c0.2,0.4,0.3,0.7,0.4,1
			c-2.8-0.5-5.6,0.5-7.7,2.8C45.6,46.1,42.2,42.9,38.1,42.1L38.1,42.1z"/>
	</g>
</g>
</svg>
