<svg xmlns="http://www.w3.org/2000/svg" viewBox="0 0 171.39 164.48"><title>Ресурс 15</title><g data-name="Слой 2"><path d="M64 164.48a15.29 15.29 0 0 1-4.77-.72c-5.56-1.81-9.12-6.58-12.56-11.21-2.19-2.94-4.26-5.71-6.63-7.44s-5.73-2.89-9.24-4.09c-5.42-1.85-11-3.76-14.41-8.41s-3.45-10.5-3.54-16.2c-.06-3.73-.12-7.26-1.06-10.16-.88-2.72-2.85-5.5-4.94-8.44C3.47 93.09 0 88.19 0 82.24s3.47-10.85 6.83-15.58c2.09-2.94 4.06-5.72 4.94-8.44.94-2.9 1-6.43 1.06-10.16.09-5.7.19-11.59 3.54-16.2s9-6.56 14.41-8.41c3.51-1.2 6.82-2.32 9.24-4.09s4.44-4.5 6.63-7.44c3.45-4.62 7-9.4 12.56-11.2C64.53-1 70.11.71 75.5 2.36c3.63 1.11 7 2.17 10.19 2.17s6.57-1.05 10.19-2.17C101.28.71 106.86-1 112.18.72c5.55 1.8 9.12 6.58 12.56 11.2 2.19 2.94 4.26 5.71 6.63 7.44s5.73 2.89 9.24 4.09c5.42 1.85 11 3.76 14.41 8.41s3.45 10.5 3.54 16.19c.06 3.73.12 7.26 1.06 10.16.88 2.72 2.85 5.5 4.94 8.44 3.35 4.73 6.82 9.63 6.82 15.58s-3.47 10.85-6.82 15.58c-2.09 2.94-4.06 5.73-4.94 8.44-.94 2.9-1 6.43-1.06 10.16-.09 5.7-.19 11.59-3.54 16.19s-9 6.57-14.41 8.41c-3.51 1.2-6.82 2.32-9.24 4.09s-4.44 4.5-6.63 7.44c-3.44 4.62-7 9.4-12.56 11.2-5.32 1.73-10.9 0-16.29-1.64-3.63-1.1-7.05-2.1-10.19-2.1s-6.57 1-10.2 2.12c-3.8 1.17-7.69 2.36-11.5 2.36zM64 6a9.42 9.42 0 0 0-2.92.42c-3.74 1.21-6.59 5-9.6 9.08-2.36 3.17-4.8 6.44-7.91 8.71s-7.06 3.63-10.83 4.91c-4.74 1.62-9.23 3.15-11.49 6.26s-2.31 7.78-2.39 12.76c-.07 4-.13 8.16-1.35 11.91-1.17 3.59-3.5 6.88-5.75 10.06C8.78 74.28 6 78.2 6 82.24s2.78 8 5.72 12.11c2.25 3.18 4.59 6.47 5.75 10.06 1.22 3.76 1.29 7.91 1.35 11.92.08 5 .16 9.69 2.39 12.76s6.75 4.65 11.5 6.26c3.78 1.29 7.68 2.62 10.83 4.91s5.55 5.54 7.91 8.71c3 4 5.87 7.87 9.6 9.08 3.51 1.14 8-.23 12.68-1.67 3.89-1.19 7.91-2.43 12-2.43s8.07 1.24 12 2.43c4.71 1.45 9.16 2.81 12.68 1.67 3.74-1.21 6.59-5 9.6-9.08 2.36-3.17 4.8-6.44 7.91-8.71s7.06-3.63 10.83-4.91c4.74-1.62 9.23-3.14 11.5-6.26s2.31-7.78 2.39-12.76c.06-4 .13-8.16 1.35-11.92 1.17-3.59 3.5-6.88 5.75-10.06 2.94-4.15 5.72-8.07 5.72-12.11s-2.78-8-5.72-12.11c-2.26-3.18-4.59-6.47-5.75-10.06-1.22-3.76-1.29-7.9-1.35-11.92-.08-5-.16-9.69-2.39-12.76s-6.75-4.65-11.5-6.26c-3.78-1.29-7.68-2.62-10.83-4.91s-5.55-5.54-7.91-8.71c-3-4-5.87-7.87-9.6-9.08-3.51-1.14-8 .22-12.68 1.67-3.89 1.19-7.91 2.43-12 2.43s-8.07-1.23-12-2.43C70.26 7 66.91 6 64 6z" fill="#a1944c"/><path d="M104.36 151.66a1.5 1.5 0 0 1 0-3h.43a1.5 1.5 0 1 1 .22 3h-.57zm-37.79 0h-.1l-.57-.05a1.5 1.5 0 0 1 .34-3h.43a1.5 1.5 0 0 1-.1 3zm6-.75a1.5 1.5 0 0 1-.38-3l.47-.13a1.5 1.5 0 0 1 .79 2.89l-.5.13a1.5 1.5 0 0 1-.41.08zm25.88-.12a1.49 1.49 0 0 1-.4-.05l-.5-.14a1.5 1.5 0 1 1 .82-2.89l.47.13a1.5 1.5 0 0 1-.39 2.95zm12-1.29a1.5 1.5 0 0 1-.91-2.7l.36-.28a1.5 1.5 0 1 1 1.89 2.33l-.43.34a1.49 1.49 0 0 1-.95.28zm-49.79-.28a1.49 1.49 0 0 1-.94-.33l-.42-.35a1.5 1.5 0 0 1 2-2.28l.35.29a1.5 1.5 0 0 1-.94 2.67zM78.8 149a1.5 1.5 0 0 1-.42-2.94l.5-.14a1.5 1.5 0 0 1 .81 2.89l-.46.13a1.5 1.5 0 0 1-.43.06zm13.34-.13a1.5 1.5 0 0 1-.41-.06l-.47-.13a1.5 1.5 0 0 1 .79-2.89l.5.14a1.5 1.5 0 0 1-.41 2.94zm-6.93-1.09a1.5 1.5 0 0 1 0-3h.53a1.51 1.51 0 0 1 1.51 1.5 1.49 1.49 0 0 1-1.49 1.5h-.5zm29.68-3.05a1.5 1.5 0 0 1-1.19-2.41l.3-.4a1.5 1.5 0 1 1 2.39 1.81l-.31.4a1.5 1.5 0 0 1-1.18.61zm-58.68-.36a1.5 1.5 0 0 1-1.2-.6l-.3-.41a1.5 1.5 0 1 1 2.4-1.8l.3.4a1.5 1.5 0 0 1-1.2 2.4zm62.6-4.88a1.5 1.5 0 0 1-1.17-2.43l.33-.41a1.5 1.5 0 0 1 2.33 1.9l-.3.38a1.5 1.5 0 0 1-1.18.57zm-66.54-.35a1.5 1.5 0 0 1-1.16-.55l-.31-.37a1.5 1.5 0 0 1 2.29-1.94l.34.41a1.5 1.5 0 0 1-1.16 2.45zm71.26-4.14a1.5 1.5 0 0 1-.81-2.76l.47-.29a1.5 1.5 0 0 1 1.53 2.58l-.39.24a1.5 1.5 0 0 1-.8.23zm-76-.24a1.49 1.49 0 0 1-.77-.21l-.4-.23a1.5 1.5 0 0 1 1.47-2.61l.47.27a1.5 1.5 0 0 1-.77 2.79zm82-2.46a1.5 1.5 0 0 1-.51-2.91l.48-.17a1.5 1.5 0 1 1 1 2.83l-.47.17a1.49 1.49 0 0 1-.56.08zm-88-.15a1.5 1.5 0 0 1-.5-.09l-.47-.16a1.5 1.5 0 1 1 1-2.83l.48.17a1.5 1.5 0 0 1-.5 2.92zm94.12-2.1a1.5 1.5 0 0 1-.59-2.88l.44-.19a1.5 1.5 0 1 1 1.21 2.74l-.48.21a1.5 1.5 0 0 1-.61.07zm-100.25-.18a1.49 1.49 0 0 1-.6-.13l-.49-.22a1.5 1.5 0 0 1 1.27-2.72l.42.2a1.5 1.5 0 0 1-.6 2.87zm105.75-3.29A1.5 1.5 0 0 1 140 124l.3-.32a1.5 1.5 0 0 1 2.24 2l-.39.42a1.5 1.5 0 0 1-1.04.48zM30 126.25a1.5 1.5 0 0 1-1.12-.5l-.37-.43a1.5 1.5 0 0 1 2.32-1.9l.28.33a1.5 1.5 0 0 1-1.12 2.5zm114-5.44a1.5 1.5 0 0 1-1.47-1.81c0-.15.06-.3.09-.46a1.5 1.5 0 0 1 3 .54c0 .18-.07.35-.1.53a1.5 1.5 0 0 1-1.52 1.21zm-116.68-.44a1.5 1.5 0 0 1-1.47-1.23q0-.26-.09-.52a1.5 1.5 0 0 1 3-.49l.08.47a1.5 1.5 0 0 1-1.2 1.75zm117.26-6.07a1.5 1.5 0 0 1-1.46-1.53v-.5a1.5 1.5 0 0 1 1.5-1.47 1.5 1.5 0 0 1 1.47 1.53v.51a1.5 1.5 0 0 1-1.52 1.47zm-117.75-.44a1.5 1.5 0 0 1-1.5-1.47v-.51a1.5 1.5 0 1 1 3 0v.49a1.5 1.5 0 0 1-1.47 1.53zm118-6.1h-.15a1.5 1.5 0 0 1-1.35-1.64l.05-.52a1.5 1.5 0 1 1 3 .33v.48a1.5 1.5 0 0 1-1.58 1.36zm-118.27-.44A1.5 1.5 0 0 1 25 106l-.06-.48a1.5 1.5 0 1 1 3-.37l.06.52a1.5 1.5 0 0 1-1.33 1.66zm119.9-5.85a1.5 1.5 0 0 1-1.35-2.16l.24-.48a1.5 1.5 0 0 1 2.67 1.37l-.21.42a1.5 1.5 0 0 1-1.37.85zm-121.69-.4a1.5 1.5 0 0 1-1.34-.82l-.22-.42a1.5 1.5 0 0 1 2.64-1.42l.25.47a1.5 1.5 0 0 1-1.33 2.19zm125.14-5.16a1.5 1.5 0 0 1-1.23-2.36l.29-.41a1.5 1.5 0 0 1 2.46 1.72l-.29.42a1.5 1.5 0 0 1-1.25.64zm-128.67-.35a1.5 1.5 0 0 1-1.24-.64l-.28-.41a1.5 1.5 0 1 1 2.46-1.72l.29.42a1.5 1.5 0 0 1-1.23 2.36zm132.2-5.13a1.5 1.5 0 0 1-1.31-2.22l.21-.41a1.5 1.5 0 1 1 2.66 1.37l-.25.48a1.5 1.5 0 0 1-1.31.78zM17.74 90a1.5 1.5 0 0 1-1.33-.81l-.24-.48a1.5 1.5 0 0 1 2.7-1.32l.21.42A1.5 1.5 0 0 1 17.74 90zm137.65-5.8h-.08a1.5 1.5 0 0 1-1.42-1.58v-.54a1.5 1.5 0 1 1 3 0v.7a1.5 1.5 0 0 1-1.5 1.46zM16 83.77a1.47 1.47 0 0 1-1.5-1.47v-.57a1.48 1.48 0 0 1 1.57-1.43 1.5 1.5 0 0 1 1.43 1.57v.37a1.53 1.53 0 0 1-1.5 1.53zm137.86-5.93a1.5 1.5 0 0 1-1.36-.84l-.21-.41A1.5 1.5 0 1 1 155 75.2l.25.48a1.5 1.5 0 0 1-1.35 2.16zm-136.18-.29a1.5 1.5 0 0 1-1.33-2.18l.25-.48a1.5 1.5 0 0 1 2.64 1.42l-.22.42a1.5 1.5 0 0 1-1.34.82zm132.72-5.26a1.5 1.5 0 0 1-1.23-.64l-.29-.42a1.5 1.5 0 1 1 2.46-1.71l.28.41a1.5 1.5 0 0 1-1.23 2.36zM21.17 72a1.5 1.5 0 0 1-1.23-2.36l.29-.42A1.5 1.5 0 1 1 22.69 71l-.29.41a1.5 1.5 0 0 1-1.23.59zm125.68-5.2a1.5 1.5 0 0 1-1.33-.8l-.25-.47a1.5 1.5 0 0 1 2.73-1.35l.22.42a1.5 1.5 0 0 1-1.32 2.2zm-122.16-.29a1.5 1.5 0 0 1-1.33-2.2l.21-.42a1.5 1.5 0 0 1 2.69 1.33l-.24.48a1.5 1.5 0 0 1-1.33.81zM144.9 60.6a1.5 1.5 0 0 1-1.49-1.32l-.06-.53a1.5 1.5 0 0 1 3-.31l.05.47a1.5 1.5 0 0 1-1.3 1.67zm-118.37-.32h-.17A1.5 1.5 0 0 1 25 58.61l.05-.48a1.5 1.5 0 0 1 3 .29l-.06.52a1.5 1.5 0 0 1-1.46 1.34zm118.05-6.21a1.5 1.5 0 0 1-1.5-1.48v-.49a1.5 1.5 0 0 1 1.47-1.53 1.5 1.5 0 0 1 1.5 1.47v.51a1.5 1.5 0 0 1-1.48 1.52zm-117.77-.33a1.5 1.5 0 0 1-1.47-1.53v-.51a1.52 1.52 0 0 1 1.54-1.46 1.5 1.5 0 0 1 1.46 1.53v.5a1.5 1.5 0 0 1-1.53 1.47zm117.34-6.2a1.5 1.5 0 0 1-1.48-1.27c0-.15-.05-.3-.08-.45a1.5 1.5 0 0 1 2.95-.56c0 .18.07.36.09.54a1.5 1.5 0 0 1-1.25 1.72zm-116.86-.32h-.27a1.5 1.5 0 0 1-1.21-1.74l.1-.52a1.5 1.5 0 1 1 2.94.6l-.09.46a1.5 1.5 0 0 1-1.47 1.2zm114.41-5.65a1.5 1.5 0 0 1-1.16-.55l-.28-.32a1.5 1.5 0 0 1 2.22-2l.38.44a1.5 1.5 0 0 1-1.16 2.45zm-111.8-.25a1.5 1.5 0 0 1-1.13-2.49l.39-.43a1.5 1.5 0 1 1 2.16 2.09l-.29.31a1.49 1.49 0 0 1-1.13.52zm106.53-3.52a1.49 1.49 0 0 1-.63-.14l-.43-.2a1.5 1.5 0 1 1 1.21-2.75l.48.22a1.5 1.5 0 0 1-.63 2.86zm-101.17-.14a1.5 1.5 0 0 1-.62-2.87l.49-.21a1.5 1.5 0 1 1 1.18 2.76l-.44.19a1.5 1.5 0 0 1-.61.13zm95.05-2.18a1.51 1.51 0 0 1-.49-.08l-.48-.17a1.5 1.5 0 0 1 1-2.83l.47.17a1.5 1.5 0 0 1-.49 2.92zm-88.92-.11a1.5 1.5 0 0 1-.5-2.92l.47-.17a1.5 1.5 0 1 1 1 2.83l-.48.17a1.5 1.5 0 0 1-.49.1zm82.9-2.43a1.49 1.49 0 0 1-.73-.19l-.48-.28a1.5 1.5 0 1 1 1.55-2.57l.39.23a1.5 1.5 0 0 1-.74 2.81zm-76.9-.17a1.5 1.5 0 0 1-.77-2.77l.39-.24a1.5 1.5 0 0 1 1.61 2.53l-.47.29a1.5 1.5 0 0 1-.76.2zm72-4.11a1.5 1.5 0 0 1-1.16-.54l-.33-.4a1.5 1.5 0 0 1 2.33-1.89l.31.38a1.5 1.5 0 0 1-1.15 2.46zm-67.18-.25A1.5 1.5 0 0 1 51.05 26l.3-.37a1.5 1.5 0 0 1 2.35 1.86l-.33.41a1.5 1.5 0 0 1-1.16.52zm63.23-5a1.5 1.5 0 0 1-1.2-.6l-.3-.39a1.5 1.5 0 0 1 2.39-1.82l.31.41a1.5 1.5 0 0 1-1.2 2.4zm-59.29-.26a1.5 1.5 0 0 1-1.2-2.4l.31-.41a1.5 1.5 0 0 1 2.38 1.82l-.3.39a1.5 1.5 0 0 1-1.19.64zm29.54-3.45a1.54 1.54 0 0 1-1.54-1.5 1.47 1.47 0 0 1 1.46-1.5h.46a1.5 1.5 0 0 1 .09 3zm-6-1a1.51 1.51 0 0 1-.4-.05l-.5-.14a1.5 1.5 0 1 1 .83-2.88l.47.13a1.5 1.5 0 0 1-.4 2.95zM92 18.64a1.5 1.5 0 0 1-.41-2.94l.47-.13a1.5 1.5 0 1 1 .84 2.88l-.5.14a1.52 1.52 0 0 1-.4.05zm19.06-.06a1.49 1.49 0 0 1-1-.36l-.35-.29a1.5 1.5 0 0 1 1.87-2.34l.43.35a1.5 1.5 0 0 1-1 2.64zm-50.56-.21a1.5 1.5 0 0 1-1-2.66l.44-.35a1.5 1.5 0 0 1 1.82 2.39l-.35.28a1.5 1.5 0 0 1-.87.33zm12.9-1.53a1.49 1.49 0 0 1-.41-.06l-.48-.13a1.5 1.5 0 1 1 .79-2.89l.5.14a1.5 1.5 0 0 1-.4 2.94zm24.9-.09a1.5 1.5 0 0 1-.4-2.95l.5-.13a1.5 1.5 0 1 1 .77 2.9l-.47.13a1.51 1.51 0 0 1-.39.05zm7-.86h-.6a1.5 1.5 0 1 1 .19-3h.57a1.5 1.5 0 0 1-.16 3zm-38.8 0a1.5 1.5 0 0 1-.12-3h.57a1.48 1.48 0 0 1 1.55 1.45 1.5 1.5 0 0 1-1.5 1.49h-.43z" fill="#e2ca97"/><path d="M139.11 67.71l-27.65-27.65a2.39 2.39 0 0 0-3.37 0l-7.28 7.28a2.39 2.39 0 0 0 0 3.37l.94.94L98.4 55a8 8 0 0 1-4.71 2.19h-19a6 6 0 0 0-3.52 1.13l-1.51-1.51.93-.93a2.39 2.39 0 0 0 0-3.37l-7.28-7.28a2.39 2.39 0 0 0-3.37 0L32.28 72.9a2.39 2.39 0 0 0 0 3.37l7.28 7.28a2.39 2.39 0 0 0 3.37 0l.79-.79 3.5 3.5a11.93 11.93 0 0 1 2.66 4l.14.34a16.68 16.68 0 0 0 3.71 5.63l26.81 26.81A7 7 0 0 0 92 120.75a7 7 0 0 0 9.24-3.6 7 7 0 0 0 9.51-9.5 6.89 6.89 0 0 0 2.1-1.44 7 7 0 0 0 0-9.95l-.17-.17 4.51-4.51a20.32 20.32 0 0 0 4.19-6.1l.14-.35a11.93 11.93 0 0 1 2.66-4l3.5-3.5.78.78a2.39 2.39 0 0 0 3.37 0l7.28-7.28a2.39 2.39 0 0 0 0-3.42zM41.24 78.49l-3.9-3.9 24.28-24.28 3.9 3.9zm68.24 24.32a2.2 2.2 0 0 1-3.15 0L92.37 89A2.39 2.39 0 0 0 89 92.33s17.29 17.27 17.39 17.34a2.26 2.26 0 0 1-.25 2.9 2.23 2.23 0 0 1-3.15 0L84.51 94.2a2.39 2.39 0 0 0-3.37 3.37l15.59 15.59a2.26 2.26 0 0 1-.34 2.76 2.23 2.23 0 0 1-3.15 0L76.07 98.86a2.39 2.39 0 0 0-3.37 3.37l14.72 14.72a2.26 2.26 0 0 1-.34 2.76 2.23 2.23 0 0 1-3.15 0L57.1 92.89a11.93 11.93 0 0 1-2.66-4l-.14-.34a16.68 16.68 0 0 0-3.71-5.63l-3.5-3.5L66.28 60.2l2.37 2.37a6.15 6.15 0 0 0 0 .72v.07a9.15 9.15 0 0 0 9.05 8.94h4.49l27.34 27.34a2.26 2.26 0 0 1-.04 3.17zm11.32-25.1a16.65 16.65 0 0 0-3.71 5.61l-.14.35a15.46 15.46 0 0 1-3.14 4.52l-4.51 4.51L96.64 80a20.56 20.56 0 0 0 5.49-.83 1.44 1.44 0 0 0 .86-2l-.87-1.72a1.43 1.43 0 0 0-1.66-.74 19.58 19.58 0 0 1-9.09 0l-6.54-6.54a2.41 2.41 0 0 0-1.69-.68h-5.47a4.39 4.39 0 0 1-4.27-4.28A1.34 1.34 0 0 1 74.68 62h19.51a12.76 12.76 0 0 0 7.58-3.57l3.35-3.43 19.18 19.21zm9.34-4.41L105.87 49l3.9-3.9L134 69.4z" fill="#eaca95"/></g></svg>