<svg xmlns="http://www.w3.org/2000/svg" viewBox="0 0 91.28 135.8"><title>Ресурс 6</title><path d="M37 34.81c-.71-.26-3.74-3.32-4.79-4.11-.74-.57-1.73-1.28-2.58-2a4.65 4.65 0 0 0-1.33-.85c-.6-.26-1.08-.57-1.62-.74a11.17 11.17 0 0 0-3 3.88c-.2.4.06.79-.57 1-.94.45-.88-.2-1.5-.57l-2.66-1.16c-1.39-.62-3.15-1.84-3.86.37.06 1.28 2.58 1.62 3.37 2a20.24 20.24 0 0 1 3.46 1.84 5.27 5.27 0 0 1-.79 1.84 9.49 9.49 0 0 0-.65 2c-1.59-.48-5.56-3.43-6.8-1.73a16.79 16.79 0 0 0-.28 1.84l-1.3 5.52c-1.59-.31-2.78-2-4.37-1.73-2.26.45-2.63 11.17-2.46 13.29.6 7.6 1 4.05-4.59 4.59-1 1.64-.74 2.24-.34 4.14.34 1.64 0 3.23.4 4.65s.94 2.75 1.19 3.88a26.63 26.63 0 0 0 1.42 3.86A28.32 28.32 0 0 0 5 80a41.25 41.25 0 0 0 6 8.16l1.33 1.33c.37.34.31.2.68.51l8.39 7c1.9 1.16 3.88 2.78 6.29 4l8.73 4.22c.14 1.22-1.11 2.47-1.5 3.6a7.5 7.5 0 0 1-2.41-1.11l-6.66-3.43c-2.69-1.13-3.4 1.13-1.53 2l1.11.6c.37.17.71.23 1.22.45l3.46 1.81c.71.37.48.31 1 .62.26.14.28.11.51.23l8.79 5.87c.31.23.6.51.91.77 1.08.91 3.09 2.41 3.09 3.86 0 2.13-.31 12.7.06 14.12v.2l.09.17.31.4c2.32 2.18 1.84-3.88 1.84-4.79v-6.72c0-4.39-.11-4.51 2.92-7 .71-.57 1.16-.91 1.9-1.45a25.35 25.35 0 0 1 3.71-2.78 8.46 8.46 0 0 0 1-.62l5.27-3.12c.82-.48 1.56-.68 2.3-1.08.4-.23.62-.43 1-.62s.77-.23 1.25-.45c.82-.43 1.3-.88 2-1.25v-1.16c-2-1-4 .62-5.81 1.47l-.94.51c-4.82 2.83-4.68 2.95-5.87.88l-.62-2.1c.54-.23 1.08-.48 1.67-.71a14 14 0 0 0 1.73-.71c2.64-1.39 5.3-2.55 7.85-4.14l4.31-2.86a62.11 62.11 0 0 0 10.66-9.5 28.1 28.1 0 0 0 2.86-3.66c1-1.67 2-2.55 2.86-4.59s2.41-4.39 2.83-6.75c.79-4.56 1.5-5.7 1.5-10.74 0-2-2.52-1.33-4.05-1.11h-1.59c-.2-.88.28-2.15.43-3.15.48-3.6-.23-7-.51-10.37a9.46 9.46 0 0 0-.37-2.7c-1.7-4.54-4.71.77-5.73-.28-.82-1.11-.79-6.15-1.84-7.29-1.39-1.5-4.9 1.45-6.29 1.79-.6-1-1.59-2.72-1.5-4.08.28-.14.6-.34.88-.48.45-.2.77-.23 1.25-.45.65-.28 1.33-.77 2.1-1 .4-.14.65-.11 1.13-.31 1.62-.68 1.13-1.73.23-2.72A18.14 18.14 0 0 0 70.9 31l-1.13.54c-.79.48-.17.48-1.3.62C67.18 31 66 26.45 64 27.41l-2.07 1.28a31.25 31.25 0 0 0-3.66 2.83l-3.46 3.23c-.57-1 0-.94.31-1.81.4-1.11 0-.88.65-2l4.62-8.59c.88-1.13.65-.43.65-2.35a7.13 7.13 0 0 1-1.11-.94L47.71 2.49a4.56 4.56 0 0 0-2-2.49c-1.3.4-1.93 2.41-2.89 4.08a71.8 71.8 0 0 1-6.6 9.5l-1.62 2a9.89 9.89 0 0 0-.91 1c-3.34 4.48-4.82 2.69-1.81 7 .4.62 0 .06.31.62.88 1.79 2.15 3.4 2.83 5.36a15 15 0 0 0 1.08 2.52c.4.85.57 1.81.91 2.72zm-16.59 15.9c1.28.74 2.69 2.89 3.66 4a4 4 0 0 1 .88 1.08c.57.94.17.34.82 1.08A35 35 0 0 1 29.45 63a7.57 7.57 0 0 0 .71 1.22 42.54 42.54 0 0 1 2.27 5.64 50 50 0 0 1 2.64 8.9 27.17 27.17 0 0 0 .45 3.6 36.29 36.29 0 0 1 .68 10.94c-.2 2.38-.09 1.59-1.33 2.69a32.61 32.61 0 0 1-7.77-4L24 89.83a27.64 27.64 0 0 1-4.68-3.74L10.86 75.6c-.45-.88-.71-1.47-1.13-2.24l-1.54-3.49c-.45-.91-.4-.31-.4-1.53 2.18-1.5 2.32-.11 3 1.76.28.74.74 1.28 1 2.07a10.62 10.62 0 0 0 .45 1.22 33.65 33.65 0 0 0 3.23 4.93c1.93 2 2.13 3.46 6.18 6.77l5.5 4.08c.77.51 1.33.74 2.1 1.28s3.34 2.1 4.34 2.15a54.94 54.94 0 0 0-.77-12.19c-.14-.91-.45-1.53-.6-2.52-.31-1.79-.74-.88-3.51-2.75a20.94 20.94 0 0 1-4.17-3.74l-1.39-1.73a16.57 16.57 0 0 1-2.49-3.74 36.34 36.34 0 0 1-2.83-8.42c-.31-1.87.28-4.62-.26-6.21-.57-1 .06 0-.79-.71s-1.59-1.79-2.55-1.81a39.49 39.49 0 0 0 1.28 13.66 32.85 32.85 0 0 0 1.62 4.39A33.24 33.24 0 0 0 20.69 73c.23.37 0 .06.26.45l3.74 3.94c1 1 .85.57 1.64 1.22 3.37 2.81 4.71 2.35 4.37 4.59-1.53 1-1.56.28-3.09-.6A36.62 36.62 0 0 1 18 73.28c-2.86-4.65-4-7.88-5.67-13.55-.91-3.15-.09-10.91-.45-13-1.11-.37-2.07-1.42-3.15-1.56-1.47 2.35-1 9.41-1 12.22 0 1.93 1 3.88.68 5.5-1 1.67-4.17-.54-5.58-.34-.43 1-.11 2.86.14 4.11.23 1 .4 3.06.71 3.91.4 1.16.85 2.21 1.16 3.4a29.72 29.72 0 0 0 1.45 3.34 25.8 25.8 0 0 0 1.64 2.92A37 37 0 0 0 14.32 88l2.38 2.21c.94.77 1.7 1.47 2.58 2.18.54.45.74.51 1.22 1l7 4.76 6.24 3.15c1.11.34 2.78 1.47 3.57 1.47s.85-1.5 1.53-3.54a52.94 52.94 0 0 0 1.93-14 61.93 61.93 0 0 0-2-13.49 22.18 22.18 0 0 1-.77-3.11A29.48 29.48 0 0 0 36 63l-2.38-5.3c-.68-1.7-4.76-7.7-6.09-9.37s-4.14-5-5.92-5.7a31 31 0 0 0-1.19 8.08zm30.53 33a54.62 54.62 0 0 0 1.28 13.58c.71 2.78-.11 1.47 1.56 5.39 1.9-.06 10.66-4.82 12.64-6.15l6.66-5.07a6.43 6.43 0 0 0 .71-.51 51.27 51.27 0 0 0 5.36-5.19C81 83.65 83 81.52 84.1 79l2.3-4.68c.85-1.9 3.34-10.35 2.15-11.62-1-1.08-7 3.23-5.5-1.79 1-3.46.71-13-.37-15.79a12.33 12.33 0 0 0-3 1.67c.06 4.93.17 9.89-1.22 14.54-.45 1.45-.45 3.74-2.21 6.94-.2.37-.37.62-.51.91l-4.28 6.52a32 32 0 0 1-5.64 5.44c-1.19.85-3.15 2.58-4.59 2.58-.48-.74-1-1.22-.43-2.07l2.72-1.87c.65-.43 1-.68 1.67-1.19A26.7 26.7 0 0 0 69.82 74l3-4.45c.09-.17.37-.6.54-.88l1-2.18c2.58-5.64 2.81-11.31 2.86-17.69-1.33.11-1.53.91-2.41 1.59-1.67 1.3-.94 2.44-1.36 6.24a12.49 12.49 0 0 1-.74 3.17 19.07 19.07 0 0 1-1.33 4.45l-1.28 2.58c-.26.43-.34.71-.65 1.25l-1.67 2.41c-.51.57-.48.37-1 .94a7.52 7.52 0 0 1-.94 1l-4.36 3.37a10.13 10.13 0 0 1-1.19.71c-1 .51-.62-.09-1.08.85-1.3 2.69-1.36 11.42-1.67 15 .88.37 1.36-.06 2.15-.62l5.84-3.51c.85-.57 1.11-.91 1.81-1.33l1.7-1.39a34.29 34.29 0 0 0 6.21-6.29l1.28-1.81c.43-.65.85-1.42 1.22-1.93l3.15-6.21c.74-1.7-.14-.94 1.47-1.79 1.3 1.36 1.7.85-.14 4.79l-4.48 7.57c-.17.26-.6.74-.82 1s-.45.62-.74 1l-1.67 1.9-.26.26a37.42 37.42 0 0 1-6.41 5.56c-.62.4-.43.11-1.08.65A40.45 40.45 0 0 1 56.47 96c-.6-.31-1.19-.43-1.19-1.22V86.6a48.58 48.58 0 0 1 .72-5.67c.11-1 .45-1.62.6-2.55a49.33 49.33 0 0 1 3.94-12.64l2.07-4.39c.26-.51.85-1.16 1.25-1.87l6.49-8.39c.6-.51.74-.6.74-1.42a22.33 22.33 0 0 0-1.62-6.94c-1.36.54-4.37 4.25-5.47 5.61a31.3 31.3 0 0 0-3.17 4.25 67.39 67.39 0 0 0-4.08 7.23 19.3 19.3 0 0 1-1.13 2.44c-1.36 2.64-1.56 5.73-2.83 8.45-.45 1-.28-.11-.43 1.28-.23 2.69-1.13 5.13-1.39 8-.11 1.25-.06 2.52-.06 3.8zm-18-63c.51 1.16 2.58 4 3.46 6l2.86 6.92c.28 1 .26 1.47.62 2.55.48 1.5 1.47 4.42-.45 4.54-1.33.06-1.25-.77-1.9-1.5-1-1.16-2-2.27-3.12-3.34S32.34 34 31 32.85l-3.5-2.77c-1.3.68-.62.28-1.3 1.53a20.78 20.78 0 0 0-1.13 1.79c5.87 4.42 7.48 5.87 12.33 12.08l4.6 7.61 2.78 6.32a8.22 8.22 0 0 1 .54 2.52c.51-.37.06.06.43-.4l5.64-12.16 3.15-4.54c1.25-1.39.48-1.13 1.9-2.64.57-.6.94-1 1.53-1.64 2.1-2.24.57-1 3.15-3.09.6-.48 1-.88 1.73-1.39 1.3-1 2.89-1.87 3.29-3a12.83 12.83 0 0 1-.82-1.39c-.4-.85-.57-.91-.88-1.56-2.27.54-7.6 5.84-9.27 7.68-.79.88-1.84 2.61-2.78 2.95-3 .57-.62-5.19-.23-6.46s.06-1.3.65-2.47a19.84 19.84 0 0 0 1-2.13c1.25-3.43 2-4 3.09-6.29 1.42-2.92 2.21-1.42-.09-4.31L54.2 16.2c-.45-.51-.37-.57-.82-1.11l-6.3-8.63c-1-1.42-.17-1.56-1.76-2.21a6.13 6.13 0 0 1-1.18 2.35 11.22 11.22 0 0 0-.62 1l-2.9 4.4c-.6.88-6.63 8.39-7.68 8.79zm-9.35 15.43a3.17 3.17 0 0 1-.45 2l-.77 1.76 5.5 5.24a33.11 33.11 0 0 1 3 3.74l3.91 6a11.29 11.29 0 0 0 .88 1.76 8 8 0 0 1 1 1.9l3.86 9.81 1.62 6.8c1.3 8 1.62 16.89-1 24.63-.26.71-.14 1.36-.45 2.24a15.67 15.67 0 0 1-.82 1.81 27.78 27.78 0 0 0 2.35 1.5c1.11.65 1.33 1.22 2 1.62 1.28-1.73-1-7 1.36-7.29 1.59-.17 1.33 1.47 1.3 2.83s0 2.95-.11 4.31c1.25-.17 1-.48 1.79-1 .28-.2.31-.14.62-.34.85-.48 1.81-1.11 2.52-1.53l-2-5.9c-.26-.94-.09-1.67-.28-2.61a43.57 43.57 0 0 1-.74-15.19c.17-1.81.57-3 .79-4.65.14-.88 0-1.62.2-2.49l1.9-6.46a89.24 89.24 0 0 1 4-9.69L60.18 49c.26-.4.09-.11.31-.4l8.45-8.73A9.68 9.68 0 0 0 67 35.8l-4.59 3.74a11.64 11.64 0 0 0-.85.82c-.62.62-1 1-1.64 1.7l-1.64 1.76a10.62 10.62 0 0 1-.74.94c-.65.71-.2 0-.77.91-.84 1.44-1.77 2.49-2.77 4.13-.54.91-.74 1.19-1.25 2.1s-.62 1.39-1.13 2.24a18.44 18.44 0 0 0-1.08 2.32c-1.19 2.49-1 2.61-2 4.9-.79 1.84-1.28 7.46-2.83 7.43s-1.5-3.69-2.81-7.2c-.34-.91-.57-2-.91-2.75a18.14 18.14 0 0 1-1-2.3 47.65 47.65 0 0 0-3.57-6.75l-5.41-7.31c-.43-.45 0 0-.54-.43L29 39.49c-1.25-1.11-3.69-3.46-5.39-3.34zm22.67 14.09c.68-.82 1-6.24 1.13-8a56.39 56.39 0 0 1 3-12.84 16.2 16.2 0 0 0 .61-1.78c.71-2.44 3.2-5.24 2.95-6.52a16.89 16.89 0 0 0-2.13-2.55 49.79 49.79 0 0 1-4.05-5.3c-.4-.6-.71-1-1-1.42s-.54-1-1.42-.68c-.68.26-1.3 1.39-1.64 2L39.23 19c-.37.43-2.1 1.7-1.84 2.69.14.65 0 .11.31.62l1.36 2.27a16.94 16.94 0 0 1 .68 1.73c.17.34.68 1.22.85 1.53l3.06 10.89.82 8.79c0 1.7 0 2.92 1.79 2.72zm-6.12-28.77a70.08 70.08 0 0 1 3.71 8.9 30.26 30.26 0 0 1 1.28 3.74c.17 1.08-.17 1.42.34 2.27a6.43 6.43 0 0 0 1.08-2.89l3.17-9c.6-1.39 2.3-2.41.77-3.83l-2.86-3.37c-.57-.77-1.11-2-2-2.38-1 .4 0-.2-.71.74a54.62 54.62 0 0 1-4.82 5.87zm-9.07 52c-.48-3.63-4.22-11.06-6.52-14.23L23 57a18.23 18.23 0 0 0-2.75-3 33.1 33.1 0 0 0 .91 6.49c1.9 4.88 3 7.91 7.46 11.48a9.42 9.42 0 0 0 2.47 1.5zm29.4 0c1-.14 4.68-3.74 5.81-5.16a11.93 11.93 0 0 0 .79-1.16c2.81-4 4.68-10.2 3.88-12.87l-.09-.2L70 55c0 .06-.09.09-.11.14a54.53 54.53 0 0 0-5.3 7.65l-1.83 3.71c-.65 1.33-2.61 5.84-2.3 7zM46.69 115.6c2.1.2.43-.26 3.86-2.52l3.86-2.95a17.64 17.64 0 0 0-2.07-3.74c-2.15.82-5.53 3.15-5.56 5.64 0 1-.11 2.81-.09 3.57zM37 110.13l6.32 5c.74.65-.23.51 1.16.54 0-3.77.54-5.22-2.13-7.26a14.52 14.52 0 0 0-1.53-1.11c-.28-.17-1.56-.85-2-1zm34.86-68.89c.71 2.38.54 2.49 1.16 5l.26 1.19c.17.51 0 .17.23.57a5.19 5.19 0 0 0 1.67-1c.11-.09.2-.17.4-.31a5.23 5.23 0 0 1 .42-.29 7 7 0 0 0 .79-.65 25.59 25.59 0 0 0-.85-6c-.34-.94-.94-.91-2.15-.11a6 6 0 0 0-2 1.59zM17.83 48c.62-.79.62-2.47.85-3.43.28-1.16.54-2.41.82-3.57a13.69 13.69 0 0 0-3-1.81c-.88-.28-.74-.26-1.08.65a6.49 6.49 0 0 0-.48 2.16c-.23 5.64-.74 3.4 1.33 4.93.88.65.54.94 1.56 1.08z" fill="#a1944c" fill-rule="evenodd" data-name="Слой 2"/></svg>