<svg xmlns="http://www.w3.org/2000/svg" viewBox="0 0 46.52 20.76"><title>Ресурс 12</title><path d="M40.08 7.51s4.2-5.71-7.88-4.59c0 0-.25-6.28-7.92-.42 0 0-5.06-3.1-7 4.11 0 0-5.39-1.8-6.43 3.43A108.61 108.61 0 0 0 0 11.82l.37 1.7a107.78 107.78 0 0 1 10.82-1.75c1.92 2 9.38 9.19 9.95 3.76 0 0 9.84 8.94 10.39 3.44 0 0 3.19 1.54 3-1.31a3.24 3.24 0 0 0-1-3.34c3.33 1.71 8.5 4 7 .62.02 0 13.76-2.41-.45-7.43zm-3.13 2.89l-3-.39-2-.23c-.72-.08-1.48-.14-2.26-.21S28 9.46 27.2 9.4s-1.65-.06-2.49-.1-1.67 0-2.48 0-1.63 0-2.4.12-1.54.1-2.24.22-1.38.18-2 .3-1.17.25-1.68.35-.92.26-1.28.36l-.89.25v-.08l.77-.45a11.63 11.63 0 0 1 1.2-.64c.48-.2 1-.43 1.64-.66s1.29-.39 2-.58A22.54 22.54 0 0 1 19.68 8c.8-.13 1.64-.19 2.49-.25s1.71 0 2.58-.05 1.72.07 2.57.16 1.67.18 2.47.31 1.56.27 2.28.43 1.39.34 2 .49a26.55 26.55 0 0 1 4 1.43z" fill="#a1944c" data-name="Слой 2"/></svg>