<svg xmlns="http://www.w3.org/2000/svg" viewBox="0 0 112.2 112.2"><title>Ресурс 3</title><path d="M56.1 0a56.1 56.1 0 1 0 56.1 56.1A56.1 56.1 0 0 0 56.1 0zm30.17 74.88L77.4 75a6.28 6.28 0 0 1-4.4-1.34c-3.32-2.28-6.44-8.2-8.88-7.42s-2.39 6.11-2.39 6.11a2.9 2.9 0 0 1-.55 1.74 3.35 3.35 0 0 1-1.81.79h-4s-8.76.53-16.47-7.5c-8.41-8.76-15.84-26.13-15.84-26.13s-.43-1.14 0-1.69 1.95-.66 1.95-.66l9.49-.06a4.14 4.14 0 0 1 1.53.62 3 3 0 0 1 .82 1.11 63.66 63.66 0 0 0 3.56 7.39c4 6.85 5.81 8.35 7.16 7.61 2-1.07 1.37-9.68 1.37-9.68s0-3.13-1-4.52a4.48 4.48 0 0 0-2.95-1.48c-.53-.07.34-1.31 1.48-1.87 1.71-.84 4.72-.88 8.28-.85a17 17 0 0 1 4.66.46c3.27.79 2.16 3.84 2.16 11.16 0 2.34-.42 5.64 1.27 6.73.73.47 2.5.07 6.95-7.48a57.81 57.81 0 0 0 3.69-7.78 2.8 2.8 0 0 1 .88-1.07 2.27 2.27 0 0 1 1.36-.19l10-.06s3-.36 3.49 1-1.14 4.69-5.21 10.13c-6.7 8.93-7.44 8.09-1.88 13.25 5.31 4.93 6.41 7.33 6.59 7.63 2.19 3.64-2.44 3.93-2.44 3.93z" fill="#a79546" data-name="Слой 2"/></svg>