<svg xmlns="http://www.w3.org/2000/svg" viewBox="0 0 112.67 112.67"><title>Ресурс 2</title><g id="Слой_2" data-name="Слой 2"><g id="Objects"><path d="M73.12,30H39.54a9.73,9.73,0,0,0-9.72,9.72V73.28A9.73,9.73,0,0,0,39.54,83H73.12a9.73,9.73,0,0,0,9.72-9.72V39.7A9.73,9.73,0,0,0,73.12,30Zm-16.79,44A17.45,17.45,0,1,1,73.79,56.49,17.47,17.47,0,0,1,56.33,73.94Zm18-31.3a4.13,4.13,0,1,1,4.13-4.13A4.13,4.13,0,0,1,74.35,42.64Z" fill="#a79546"/><path d="M56.33,46.41A10.08,10.08,0,1,0,66.41,56.49,10.09,10.09,0,0,0,56.33,46.41Z" fill="#a79546"/><path d="M56.33,0a56.33,56.33,0,1,0,56.33,56.33A56.34,56.34,0,0,0,56.33,0ZM90.22,73.28a17.11,17.11,0,0,1-17.1,17.1H39.54a17.12,17.12,0,0,1-17.1-17.1V39.7a17.12,17.12,0,0,1,17.1-17.1H73.12a17.12,17.12,0,0,1,17.1,17.1Z" fill="#a79546"/></g></g></svg>