<svg xmlns="http://www.w3.org/2000/svg" viewBox="0 0 112.67 112.67"><title>Ресурс 2</title><g fill="#a79546" data-name="Слой 2"><path d="M73.12 30H39.54a9.73 9.73 0 0 0-9.72 9.72v33.56A9.73 9.73 0 0 0 39.54 83h33.58a9.73 9.73 0 0 0 9.72-9.72V39.7a9.73 9.73 0 0 0-9.72-9.7zM56.33 74a17.45 17.45 0 1 1 17.46-17.51 17.47 17.47 0 0 1-17.46 17.45zm18-31.3a4.13 4.13 0 1 1 4.13-4.13 4.13 4.13 0 0 1-4.11 4.07z"/><path d="M56.33 46.41a10.08 10.08 0 1 0 10.08 10.08 10.09 10.09 0 0 0-10.08-10.08z"/><path d="M56.33 0a56.33 56.33 0 1 0 56.33 56.33A56.34 56.34 0 0 0 56.33 0zm33.89 73.28a17.11 17.11 0 0 1-17.1 17.1H39.54a17.12 17.12 0 0 1-17.1-17.1V39.7a17.12 17.12 0 0 1 17.1-17.1h33.58a17.12 17.12 0 0 1 17.1 17.1z"/></g></svg>