<?xml version="1.0" encoding="utf-8"?>
<!-- Generator: Adobe Illustrator 22.0.0, SVG Export Plug-In . SVG Version: 6.00 Build 0)  -->
<svg version="1.1" id="Слой_1" xmlns="http://www.w3.org/2000/svg" xmlns:xlink="http://www.w3.org/1999/xlink" x="0px" y="0px"
	 viewBox="0 0 99 13.8" style="enable-background:new 0 0 99 13.8;" xml:space="preserve">
<g>
	<polygon style="fill:#968F52;" points="51.7,4.6 56.8,5.3 53.1,8.8 54,13.8 49.5,11.4 45,13.8 45.9,8.8 42.3,5.3 47.3,4.6 49.5,0 	
		"/>
	<polygon style="fill:#968F52;" points="28,5.9 31.7,6.4 29,9 29.7,12.7 26.4,10.9 23.1,12.7 23.8,9 21.1,6.4 24.8,5.9 26.4,2.6 	
		"/>
	<polygon style="fill:#968F52;" points="74.2,5.9 77.9,6.4 75.2,9 75.9,12.7 72.6,10.9 69.3,12.7 70,9 67.3,6.4 71,5.9 72.6,2.6 	
		"/>
	<polygon style="fill:#968F52;" points="4.3,7.3 6.6,7.6 4.9,9.2 5.4,11.5 3.3,10.4 1.3,11.5 1.7,9.2 0,7.6 2.3,7.3 3.3,5.2 	"/>
	<polygon style="fill:#968F52;" points="96.7,7.3 99,7.6 97.4,9.2 97.8,11.5 95.7,10.4 93.7,11.5 94.1,9.2 92.4,7.6 94.7,7.3 
		95.7,5.2 	"/>
</g>
</svg>
