<svg xmlns="http://www.w3.org/2000/svg" viewBox="0 0 125.89 23.48"><title>Ресурс 13</title><path d="M65.85 7.81l8.58 1.15-6.26 5.99 1.56 8.52-7.63-4.1-7.62 4.11 1.54-8.52-6.27-5.98 8.59-1.17L62.08 0l3.77 7.81zm-33.49 2.25l6.29.84-4.59 4.39 1.15 6.25-5.6-3.01-5.58 3.02 1.13-6.25-4.59-4.38 6.29-.86 2.74-5.72 2.76 5.72zm64.97 0l6.29.84-4.59 4.39 1.15 6.25-5.6-3.01L89 21.55l1.13-6.25-4.6-4.38 6.3-.86 2.74-5.72 2.76 5.72zM7.34 12.39l3.91.53-2.85 2.73.71 3.88-3.48-1.87-3.48 1.88.71-3.89L0 12.93l3.91-.53 1.71-3.56 1.72 3.55zm114.63 0l3.92.53-2.86 2.73.71 3.88-3.47-1.87-3.48 1.88.71-3.89-2.86-2.72 3.91-.53 1.71-3.56 1.71 3.55z" fill="#f0651d" data-name="Слой 2"/></svg>