<?xml version="1.0" encoding="utf-8"?>
<!-- Generator: Adobe Illustrator 21.1.0, SVG Export Plug-In . SVG Version: 6.00 Build 0)  -->
<svg version="1.1" id="Слой_1" xmlns="http://www.w3.org/2000/svg" xmlns:xlink="http://www.w3.org/1999/xlink" x="0px" y="0px"
	 viewBox="0 0 143.5 53.4" style="enable-background:new 0 0 143.5 53.4;" xml:space="preserve">
<style type="text/css">
	.st0{fill:#A79546;}
</style>
<title>Ресурс 11</title>
<path class="st0" d="M2.7,31.4c0,0-2.7,2.4,3.4,3.2c0,0-0.6,3.2,3.9,1.1c0,0,2.1,2.1,3.9-1.2c0,0,2.4,1.5,3.6-0.9
	c2.2,0.8,4.4,1.4,6.7,1.8c-0.1,0.2-0.3,0.3-0.4,0.5c-3.2-2.1-4,0.8-4,0.8C14.9,37,17,39.5,17,39.5c-5,3.7-1.5,4.4-1.5,4.4
	c-3.7,6.7,2.3,3,2.3,3c0.6,1.8,1.8-0.8,2.5-2.6c-0.1,0.6,0.2,1.2,0.7,1.6c0.9,1.2,1.6-0.5,1.6-0.5c2.1,1.9,2.8-4.8,2.8-4.8
	c2,1.8,2.4-3,2.5-4.6c1.8,0.2,3.7,0.3,5.5,0.3c-0.9,0.2-1.7,0.9-1.8,1.8c-4.8,1.1-2.4,3.3-2.4,3.3c-4.4,4.4-0.8,4.6-0.8,4.6
	c-2.6,7.2,2.8,2.6,2.8,2.6c0.8,1.7,1.6-1.1,2-3c0,0.6,0.4,1.2,1,1.5c1.1,1,1.5-0.8,1.5-0.8c2.3,1.6,2-5.2,2-5.2
	c2.5,1.7,1.8-4.6,1.7-5.4c0.9-0.1,1.8-0.3,2.7-0.5c0.7,0.2,1.3,0,1.9-0.4c1.4-0.4,2.6-0.8,3.8-1.2c-3.7,4,3.3,2.8,3.3,2.8
	c-0.2,2.4,2.5-0.1,4.2-1.9c-0.4,0.7-0.4,1.6,0.1,2.3c0.5,1.8,2.1,0.2,2.1,0.2c1.5,3.2,5.6-4.3,5.6-4.3c1.7,3.7,5.5-4.8,5.5-4.8
	c-0.1-0.2-0.2-0.3-0.3-0.5c1.9,0.6,3.9,1.1,5.8,1.5c-1.2,0-2.3,0.7-2.7,1.8c-6.3,0.1-3.9,3.4-3.9,3.4c-6.6,4.2-2.2,5.5-2.2,5.5
	c-5.3,8.2,2.7,4,2.7,4c0.6,2.3,2.3-0.9,3.3-3.1c-0.2,0.8,0.2,1.6,0.8,2.1c1,1.5,2.1-0.5,2.1-0.5c2.5,2.6,3.9-5.9,3.9-5.9
	c2.6,2.7,3.5-5.1,3.6-6.2c7.9,0.5,15.7-0.8,23-3.8c0.3-0.1,1.8-1,2.3-1.3c1.9,1.7,3.8,3.3,5.9,4.7c-0.7,0.1-1.3,0.4-1.8,0.8
	c-2.9-4.6-5.8-1.4-5.8-1.4c-6.6-2.4-5.4,2-5.4,2c-8.6,1.8-4.5,4.9-4.5,4.9c-8.8,6.6,1.3,5.3,1.3,5.3c-0.3,2.7,2.8,0,4.8-2
	c-0.5,0.8-0.5,1.8,0,2.5c0.5,2,2.4,0.3,2.4,0.3c1.6,3.7,6.5-4.7,6.5-4.7c1.8,4.2,6.4-5.2,6.4-5.2l-0.1-0.1c3.7,2.3,7.7,4.3,11.9,5.8
	c-0.4,0.2-0.7,0.5-1,0.9c-3.9-3.8-5.9,0-5.9,0c-7-0.8-4.8,3.2-4.8,3.2c-8,3.8-3.2,5.8-3.2,5.8c-7,8.5,2.5,4.8,2.5,4.8
	c0.3,2.7,2.7-0.7,4.2-3c-0.3,0.9,0,1.8,0.6,2.5c0.9,1.9,2.4-0.3,2.4-0.3c2.4,3.2,5.2-6.1,5.2-6.1c2.5,3.4,4.6-4.9,4.9-6.3
	c3.2,0.9,6.5,1.4,9.8,1.7l0.1-1.4c-3.5-0.3-6.9-1-10.2-1.9c0.3,0,0.7-0.1,1-0.2c0,0,5.2-9.1,0.7-8.2c0,0,4.1-8.8,0.2-8
	c0,0,0.4-2.6-1.6-1.8c-0.9,0-1.8,0.6-2.1,1.4c0.5-2.7,0.9-6.8-1.1-5c0,0-4.7-9.1-5.1,1.9c0,0-4.9-1.7-1.5,6.5c0,0-4.3,1.5,1.4,5.6
	c0,0-1.1,4.2,4.4,4c0,1.1,0.4,2.2,1.1,3c-6.4-2.1-12.4-5.3-17.8-9.4c1.7-1.4,7.1-6.1,3.3-6.9c0,0,7.2-6.5,3.3-7.3
	c0,0,1.3-2.2-0.7-2.3c-0.9-0.3-1.8-0.1-2.5,0.5c1.5-2.3,3.5-5.9,0.9-5.1c0,0-0.8-10.2-5.4-0.2c0,0-3.8-3.5-3.9,5.4
	c0,0-4.6-0.3-0.9,5.7c0,0-2.6,3.5,2.5,5.4c-0.2,0.5-0.3,1.1-0.4,1.6c-2.3-2-4.4-4.1-6.4-6.3c0-0.8-0.3-10.3-3.5-7.4
	c0,0-0.9-9.7-3.9-7c0,0-1-2.4-2.3-0.8c-0.8,0.5-1.2,1.4-1.1,2.3c-1-2.6-2.6-6.3-3.5-3.8c0,0-8.6-5.5-3.4,4.3c0,0-5.1,1,2,6.4
	c0,0-3,3.5,4.1,4.1c0,0,1.2,4.2,5.8,1.2c0,0,1.9,3.3,4.8,1.5c1.5,1.7,3.1,3.3,4.7,4.8c-0.3,0.2-1.6,1-1.9,1.2
	c-5.6,2.4-11.7,3.6-17.8,3.8c0.3-0.1,0.5-0.2,0.7-0.4c0,0,2.1-9-1.5-7.1c0,0,1.2-8.5-1.9-6.8c0,0-0.3-2.3-1.8-1.1
	c-0.8,0.3-1.3,0.9-1.4,1.8c-0.3-2.4-1-6-2.2-4c0,0-6.3-6.5-3.8,3c0,0-4.6-0.2,0.4,5.9c0,0-3.3,2.4,2.7,4.4c0,0,0.2,3.8,4.7,2.3
	c0.3,0.9,0.9,1.7,1.7,2.2c-1.2,0-2.4-0.1-3.7-0.2c-0.6-0.3-1.2-0.4-1.8-0.2c-4.2-0.5-8.3-1.5-12.2-3c0.2,0,0.4,0,0.6,0
	c0,0,5.4-7.5,1.4-7.2c0,0,4.4-7.4,0.9-7c0,0,0.6-2.2-1.2-1.7c-0.8-0.1-1.6,0.3-2,1.1c0.7-2.3,1.4-5.9-0.5-4.5c0,0-3.3-8.4-4.7,1.2
	c0,0-4.2-2-1.9,5.6c0,0-4,1,0.7,5.1c0,0-1.3,3.6,3.5,3.9c-0.1,0.9,0.1,1.8,0.6,2.6c-2.9-1.2-5.7-2.7-8.3-4.3c-0.6-1.7-2.9-8-4.8-5
	c0,0-3.3-8-5.1-4.9c0,0-1.4-1.8-2.1-0.1c-0.5,0.6-0.7,1.5-0.3,2.2c-1.5-1.9-3.9-4.7-3.9-2.3c0,0-8.7-2.4-1.8,4.5c0,0-4,2.2,3.3,4.9
	c0,0-1.6,3.7,4.5,2.5c0,0,2.1,3.2,5.2-0.5c0,0,2.6,2.5,4.7-0.2c1.8,1.1,3.7,2.2,5.7,3.1c-0.9,0-1.8,0.3-2.4,1c-6-2-4.8,2-4.8,2
	c-7.6,1.8-3.8,4.3-3.8,4.3l-0.1,0c-1.7,0.8-3.4,1.4-5.2,2c0-1.7-0.4-6.3-2.3-4.6c0,0-0.5-6.8-2.6-4.9c0,0-0.6-1.7-1.6-0.6
	c-0.6,0.3-0.9,0.9-0.8,1.6c-0.6-1.8-1.8-4.5-2.4-2.7c0,0-5.9-3.9-2.4,2.9c0,0-3.6,0.6,1.3,4.5c0,0-2.1,2.4,2.8,2.9
	c0,0,0.8,2.9,4,0.9c0.2,0.3,0.4,0.6,0.6,0.8c-0.9,0.2-1.8,0.3-2.8,0.5c-0.5-0.1-1-0.1-1.4,0.2c-3.1,0.3-6.2,0.2-9.3-0.1
	c0.3,0,0.6-0.1,0.9-0.2c0,0,2.9-6.7-0.1-5.7c0,0,2.2-6.4-0.5-5.6c0,0,0.1-1.8-1.2-1.1c-0.6,0.1-1.2,0.5-1.4,1.2
	c0.1-1.9,0.1-4.8-1.1-3.4c0,0-3.9-5.9-3.4,1.8c0,0-3.5-0.8-0.5,4.6c0,0-2.9,1.4,1.4,3.8c0,0-0.4,3,3.4,2.4c0.1,0.7,0.4,1.3,0.8,1.8
	c-0.2,0-0.4,0.1-0.5,0.2c-2.6-0.5-5.1-1.1-7.6-2c-0.7-1.2-3.6-5.6-4.5-3c0,0-3.9-5.6-4.8-2.9c0,0-1.4-1.1-1.6,0.3
	c-0.3,0.6-0.3,1.3,0.1,1.8c-1.4-1.2-3.8-3-3.4-1.2C3.3,27.6-3.8,27.3,2.7,31.4z M115.5,31.9c-0.3,0-0.6,0-1,0l-1.3,0.1
	c-0.4,0-0.9,0.2-1.5,0.2s-1,0.2-1.6,0.3s-1.1,0.3-1.7,0.4s-1.2,0.3-1.7,0.5s-1.2,0.4-1.7,0.6s-1.1,0.4-1.7,0.6l-1.5,0.6l-1.4,0.6
	l-2,0.9l-0.8,0.4c0.8-0.7,1.6-1.3,2.5-1.9c0.4-0.3,0.8-0.5,1.3-0.8s1-0.5,1.5-0.8s1.1-0.5,1.7-0.8s1.2-0.4,1.8-0.7s1.2-0.4,1.8-0.5
	c0.6-0.2,1.2-0.3,1.8-0.4c0.6-0.1,1.1-0.2,1.7-0.2c0.6,0,1.1,0,1.5,0l1.3,0.1c0.3,0,0.7,0.1,1,0.2l0.8,0.2L115.5,31.9z M132.2,39.2
	c-0.3,0.1-0.6,0.1-0.9,0.3l-1.2,0.4c-0.4,0.2-0.9,0.4-1.4,0.6s-1,0.5-1.5,0.7s-1,0.6-1.6,0.8s-1,0.6-1.6,0.9s-1,0.7-1.5,1
	s-1,0.7-1.4,1s-0.9,0.7-1.3,1l-1.2,0.9l-1.8,1.4l-0.7,0.5c0.6-0.9,1.3-1.7,2-2.4c0.3-0.3,0.7-0.7,1.1-1.1s0.8-0.8,1.3-1.1
	s0.9-0.8,1.4-1.1s1-0.7,1.6-1.1s1.1-0.6,1.6-0.9s1.1-0.5,1.7-0.8c0.5-0.2,1.1-0.4,1.6-0.6c0.5-0.2,1-0.3,1.5-0.4l1.3-0.2
	c0.3,0,0.7-0.1,1,0h0.9L132.2,39.2z M130.2,31.9c-0.3-0.5-0.5-1.1-0.7-1.7s-0.4-1.2-0.6-1.8s-0.3-1.2-0.4-1.8s-0.2-1.2-0.3-1.8
	s-0.2-1.2-0.2-1.7s-0.1-1-0.1-1.5c0-1,0-2.1,0.1-3.1l0.1,0.8l0.4,2.2l0.3,1.5c0.1,0.5,0.2,1.1,0.3,1.6s0.3,1.1,0.4,1.7
	s0.3,1.2,0.5,1.8s0.4,1.2,0.5,1.7s0.4,1.1,0.6,1.7c0.2,0.5,0.4,1,0.6,1.5s0.4,0.9,0.6,1.3s0.4,0.8,0.6,1.1s0.4,0.6,0.5,0.8
	c0.3,0.5,0.5,0.7,0.5,0.7s-0.2-0.2-0.6-0.6c-0.2-0.2-0.5-0.5-0.7-0.7c-0.2-0.3-0.5-0.6-0.8-1s-0.6-0.8-0.8-1.3
	C130.7,32.9,130.4,32.4,130.2,31.9L130.2,31.9z M100.3,17.5L99.1,17c-0.4-0.2-0.9-0.4-1.4-0.7c-0.5-0.3-1-0.6-1.5-0.9
	c-0.5-0.3-1-0.7-1.5-1.1s-0.9-0.8-1.4-1.2s-0.9-0.9-1.3-1.4s-0.8-0.9-1.2-1.4s-0.7-0.9-1-1.4S89.2,8.1,89,7.8
	C88.4,6.9,87.9,6,87.5,5l0.6,0.7l1.4,1.7l1,1.1c0.3,0.4,0.7,0.8,1.1,1.2s0.8,0.8,1.2,1.3s0.9,0.9,1.3,1.3s0.9,0.8,1.3,1.2
	s0.9,0.8,1.3,1.1s0.9,0.7,1.3,1s0.8,0.6,1.2,0.8l0.2,0.1l0.8,0.9L100.3,17.5z M111.8,26.5c-0.1-0.3-0.3-0.6-0.4-0.9
	c-0.1-0.4-0.2-0.8-0.4-1.2s-0.2-1-0.3-1.5c-0.1-0.6-0.1-1.1-0.2-1.7c0-0.6,0-1.2,0-1.8s0.1-1.3,0.2-1.9s0.2-1.3,0.3-1.9
	s0.3-1.2,0.4-1.8s0.3-1.1,0.5-1.6s0.3-1,0.5-1.4c0.4-1,0.8-1.9,1.3-2.8l-0.2,0.8l-0.5,2.2l-0.3,1.5c-0.1,0.5-0.2,1.1-0.3,1.6
	s-0.2,1.1-0.3,1.7s-0.2,1.2-0.3,1.8s-0.1,1.2-0.2,1.8s-0.1,1.2-0.1,1.8s0,1.1,0,1.6s0,1,0.1,1.5s0.1,0.9,0.1,1.3s0.1,0.7,0.2,1
	l0.1,0.4l-0.2-0.2L111.8,26.5z M63,16.8c-0.1-0.5-0.2-1.1-0.2-1.6s-0.1-1.1-0.1-1.6s0-1,0-1.5s0-0.9,0.1-1.3
	c0.1-0.9,0.2-1.8,0.4-2.8v0.8l0.1,2l0.1,1.3c0,0.5,0.1,1,0.2,1.5s0.1,1,0.2,1.6s0.2,1,0.3,1.5c0.1,0.5,0.2,1.1,0.3,1.6
	s0.2,1,0.4,1.5s0.3,1,0.4,1.4s0.3,0.9,0.4,1.2s0.3,0.7,0.4,1s0.3,0.5,0.4,0.8c0.2,0.4,0.3,0.7,0.3,0.7s-0.2-0.2-0.5-0.6
	c-0.2-0.2-0.4-0.4-0.6-0.7c-0.2-0.3-0.4-0.6-0.6-1s-0.4-0.8-0.6-1.2c-0.2-0.5-0.4-0.9-0.6-1.4c-0.2-0.5-0.3-1-0.5-1.5
	S63.1,17.4,63,16.8z M38.6,36.1c-0.2,0.1-0.3,0.2-0.6,0.4L37.4,37c-0.3,0.2-0.5,0.5-0.8,0.7s-0.5,0.5-0.8,0.8s-0.5,0.6-0.8,0.9
	s-0.5,0.7-0.8,1s-0.5,0.7-0.8,1s-0.5,0.7-0.7,1l-0.7,1l-0.6,0.9l-0.8,1.3l-0.3,0.5c0.2-0.7,0.4-1.4,0.8-2c0.1-0.3,0.3-0.6,0.5-1
	s0.4-0.7,0.6-1s0.4-0.7,0.7-1.1s0.5-0.7,0.8-1.1s0.6-0.7,0.9-1s0.6-0.6,0.9-0.9c0.3-0.3,0.6-0.5,0.9-0.8c0.3-0.2,0.6-0.4,0.9-0.6
	l0.8-0.4c0.2-0.1,0.4-0.2,0.6-0.3l0.6-0.2L38.6,36.1z M35.5,36.6c-0.5-0.3-1.1-0.4-1.6-0.5c0.7,0,1.3,0,1.9-0.1
	C35.7,36.2,35.6,36.4,35.5,36.6z M80.7,30.1c-0.2,0.1-0.5,0.2-0.8,0.3l-1,0.5c-0.4,0.2-0.7,0.4-1.1,0.6s-0.8,0.5-1.2,0.8
	s-0.8,0.6-1.3,0.9s-0.8,0.7-1.3,1s-0.8,0.7-1.2,1s-0.8,0.7-1.2,1l-1.1,1l-0.9,0.9l-1.4,1.5l-0.5,0.5c0.4-0.8,0.9-1.6,1.5-2.3
	c0.3-0.3,0.5-0.7,0.8-1.1s0.6-0.8,1-1.1s0.7-0.8,1.1-1.1s0.8-0.7,1.3-1.1s0.9-0.7,1.3-1s0.9-0.6,1.4-0.9c0.4-0.3,0.9-0.5,1.3-0.7
	c0.4-0.2,0.9-0.4,1.3-0.5l1.1-0.3c0.3-0.1,0.6-0.1,0.9-0.2l0.8-0.1L80.7,30.1z M83.5,25.8c-0.4-0.3-0.7-0.7-1.1-1.1
	c-0.4-0.4-0.7-0.8-1-1.3s-0.6-0.9-1-1.4s-0.6-1-0.8-1.4s-0.5-1-0.7-1.4s-0.4-0.9-0.6-1.4s-0.3-0.9-0.5-1.3c-0.3-0.9-0.5-1.8-0.7-2.7
	l0.3,0.7l0.9,1.8l0.6,1.2c0.2,0.4,0.5,0.8,0.7,1.3s0.5,0.9,0.8,1.4s0.6,0.9,0.8,1.4s0.6,0.9,0.9,1.3s0.6,0.9,0.9,1.3
	s0.6,0.8,0.9,1.1s0.6,0.7,0.9,1s0.6,0.5,0.8,0.8s0.5,0.4,0.7,0.6L87,28l-0.7-0.3c-0.3-0.1-0.5-0.3-0.8-0.4l-1-0.7
	C84.2,26.4,83.8,26.1,83.5,25.8L83.5,25.8z M76.7,29.9c-0.6-0.4-1.2-0.8-1.9-1c0.8,0.2,1.6,0.3,2.4,0.4C77,29.5,76.8,29.7,76.7,29.9
	L76.7,29.9z M53.4,20.5l-1.2-0.1c-0.4,0-0.9-0.1-1.3-0.2c-0.5-0.1-1-0.2-1.5-0.4c-0.5-0.2-1-0.3-1.5-0.5s-1-0.5-1.5-0.7
	s-1-0.5-1.5-0.8s-0.9-0.6-1.4-0.9s-0.8-0.6-1.2-0.9s-0.7-0.6-1-0.9c-0.7-0.6-1.4-1.3-2-2l0.6,0.4l1.7,1.1l1.1,0.7l1.3,0.8
	c0.4,0.3,0.9,0.5,1.4,0.8s1,0.5,1.4,0.8s1,0.5,1.5,0.7s1,0.4,1.4,0.6s0.9,0.4,1.4,0.5s0.9,0.3,1.3,0.4l1.1,0.3h0.1l0.5,0.3
	C53.9,20.4,53.7,20.4,53.4,20.5z M64.4,25.8c-0.3,0.1-0.6,0.3-0.8,0.5c-0.3-0.5-0.7-0.9-1.2-1.3C63.1,25.2,63.7,25.5,64.4,25.8
	L64.4,25.8z M59.2,28.5c0.5-0.2,1.1-0.4,1.6-0.5s1.1-0.3,1.6-0.4c0.5-0.1,1-0.2,1.5-0.2c0.5,0,0.9-0.1,1.4-0.1l1.2,0
	c0.3,0,0.6,0.1,0.9,0.1l0.7,0.1l-0.8,0c-0.2,0-0.5,0-0.9,0.1l-1.1,0.1c-0.4,0.1-0.8,0.2-1.3,0.2s-0.9,0.2-1.4,0.3s-1,0.3-1.5,0.4
	s-1,0.3-1.5,0.5s-1,0.4-1.5,0.6s-1,0.4-1.4,0.6l-1.3,0.6l-1.2,0.6l-1.8,0.9l-0.7,0.3c0.7-0.6,1.4-1.2,2.2-1.7
	c0.3-0.2,0.7-0.5,1.1-0.7s0.8-0.5,1.3-0.8s0.9-0.5,1.4-0.7S58.7,28.7,59.2,28.5L59.2,28.5z M42.9,33.8L42,33.5
	c-0.3-0.1-0.6-0.3-1-0.5c-0.3-0.2-0.7-0.4-1-0.7c-0.3-0.2-0.7-0.5-1-0.8s-0.7-0.6-1-0.9s-0.6-0.6-0.9-1s-0.5-0.7-0.8-1
	s-0.5-0.7-0.7-1s-0.4-0.6-0.6-0.9c-0.4-0.6-0.7-1.3-1-2l0.4,0.5l1,1.2l0.7,0.8l0.8,0.9c0.3,0.3,0.5,0.6,0.8,0.9s0.6,0.6,0.9,0.9
	s0.6,0.6,0.9,0.9s0.6,0.6,0.9,0.8s0.6,0.5,0.9,0.7s0.6,0.4,0.8,0.6l0.8,0.5c0.2,0.1,0.4,0.2,0.6,0.3l0,0l-0.3,0.1
	C43.1,33.8,43,33.8,42.9,33.8z M27,35.8c-0.2,0.1-0.4,0.2-0.6,0.3l-0.8,0.4c-0.3,0.2-0.5,0.4-0.9,0.6s-0.6,0.5-0.9,0.7
	s-0.6,0.5-1,0.8s-0.6,0.6-1,0.8S21.3,40,21,40.3s-0.6,0.6-0.9,0.9L19.3,42l-0.7,0.8l-1,1.2l-0.4,0.5c0.3-0.7,0.7-1.3,1.1-1.9
	c0.2-0.3,0.4-0.6,0.6-0.9s0.5-0.6,0.7-0.9s0.5-0.6,0.8-1s0.6-0.6,0.9-0.9s0.7-0.6,1-0.8s0.7-0.5,1-0.8c0.3-0.2,0.7-0.4,1-0.6
	c0.3-0.2,0.7-0.3,1-0.5l0.9-0.3l0.3-0.1L27,35.8L27,35.8z M25.1,31.3c-0.2-0.3-0.4-0.7-0.6-1.1s-0.4-0.8-0.5-1.2s-0.3-0.8-0.5-1.2
	s-0.3-0.8-0.4-1.2s-0.2-0.8-0.3-1.2s-0.1-0.7-0.2-1c-0.1-0.7-0.2-1.5-0.2-2.2l0.2,0.6l0.4,1.5l0.3,1c0.1,0.3,0.2,0.7,0.4,1.1
	s0.3,0.8,0.4,1.2s0.3,0.8,0.5,1.2s0.3,0.8,0.5,1.2s0.4,0.8,0.5,1.1s0.4,0.7,0.6,1c0.2,0.3,0.4,0.6,0.5,0.9s0.4,0.5,0.5,0.7
	s0.3,0.4,0.4,0.5l0.4,0.5l-0.5-0.3c-0.2-0.1-0.4-0.3-0.5-0.4l-0.6-0.6c-0.2-0.2-0.5-0.5-0.7-0.8C25.5,32,25.3,31.6,25.1,31.3z
	 M4.6,30.3l1.5,0.5l1,0.3l1.1,0.4C8.6,31.7,9,31.8,9.4,32c0.4,0.1,0.8,0.2,1.2,0.3s0.8,0.2,1.2,0.3s0.8,0.2,1.2,0.2s0.8,0.1,1.1,0.2
	s0.7,0.1,1,0.1H16h0.1l0.5,0.2c-0.2,0.1-0.4,0.1-0.5,0.1l-0.9,0.1c-0.3,0-0.7,0-1.1,0.1c-0.4,0-0.8,0-1.2,0c-0.4,0-0.8-0.1-1.3-0.2
	s-0.9-0.2-1.3-0.3s-0.9-0.2-1.3-0.4s-0.8-0.3-1.2-0.4c-0.4-0.2-0.7-0.3-1.1-0.5s-0.7-0.3-0.9-0.5C5.2,31,4.6,30.6,4,30.2L4.6,30.3z"
	/>
</svg>
