<?xml version="1.0" encoding="utf-8"?>
<!-- Generator: Adobe Illustrator 21.1.0, SVG Export Plug-In . SVG Version: 6.00 Build 0)  -->
<svg version="1.1" id="Слой_1" xmlns="http://www.w3.org/2000/svg" xmlns:xlink="http://www.w3.org/1999/xlink" x="0px" y="0px"
	 viewBox="0 0 144.8 202.8" style="enable-background:new 0 0 144.8 202.8;" xml:space="preserve">
<style type="text/css">
	.st0{fill:#0B0B09;}
	.st1{fill:#A0934D;}
</style>
<g>
	<g>
		<g>
			<path class="st0" d="M38.1,181.2c-1.1,3.5,3.8,0.6,7-1.5c-1.5,1.7-0.6,3.5-0.6,3.5c0.2,2.9,3.2,0.9,3.2,0.9
				c1.2,5.4,10-4.7,10-4.7c1.3,5.5,8.3-3.4,9.6-5.2c6-1.5,11.7-2.3,17.1-2.7c0.1,0,0.2,0.1,0.3,0.1c-1.1,1.2-1.4,2.9-1.4,2.9
				c-7.3-1.9-7.1,4-7.1,4c-9,3.8-3.6,7.1-3.6,7.1c-7,10,0.1,9.2,0.1,9.2C70,209.8,79,199,79,199c2.2,3,2.8-2.7,3-6.5
				c0.5,2.2,2.4,2.5,2.4,2.5c2.4,1.6,2.6-2,2.6-2c5.1,2.3,2.2-10.8,2.2-10.8c5.3,2.3,2.2-9,1.6-10.9c9,0.1,17,1.6,23.9,3.8
				c-1.6,0.7-2.6,2.2-2.6,2.2c-5.9-4.6-8.1,1-8.1,1c-9.7,0-6.1,5.2-6.1,5.2c-10.3,6.5-3.5,8.5-3.5,8.5c-8.3,12.7,4.2,6.2,4.2,6.2
				c0.9,3.6,3.6-1.4,5.2-4.8c-0.4,2.2,1.3,3.3,1.3,3.3c1.6,2.4,3.2-0.8,3.2-0.8c3.8,4.1,6.2-9.1,6.2-9.1c4.2,4.4,5.6-8.7,5.7-9.7
				c14.9,5.9,23.2,14.2,23.3,14.3l1.3-1.2c-0.2-0.2-12.2-12.3-33.6-17.9c0.2-0.1,0.3-0.2,0.5-0.3c0,0,3.4-14-2.2-11.1
				c0,0,2-13.2-2.9-10.6c0,0-0.5-3.5-2.8-1.8c0,0-1.9,0.5-2.2,2.7c-0.4-3.7-1.4-9.3-3.4-6.2c0,0-9.7-10.2-6,4.5c0,0-7.1-0.3,0.5,9.2
				c0,0-5.1,3.7,4.1,6.9c0,0,0.2,6,7.3,3.6c0,0,0.2,0.9,0.8,1.8c-4.7-0.9-9.8-1.4-15.3-1.4c0,0,0,0,0,0c0,0-1.3-14.4-5.7-9.8
				c0,0-2.3-13.2-6.2-9.2c0,0-1.6-3.2-3.2-0.8c0,0-1.6,1-1.3,3.3c-1.6-3.4-4.3-8.4-5.2-4.8c0,0-12.4-6.6-4.2,6.2c0,0-6.9,2,3.4,8.5
				c0,0-3.7,5.2,6.1,5.2c0,0,0.7,1.7,2.3,2.5c-2.8,0.4-5.7,1-8.6,1.7c-1.8-4.8-6.8-2.4-6.8-2.4c-2.8-7-7.5-3.2-7.5-3.2
				c-8.4-4.9-7.9,1.4-7.9,1.4c-12.2,0.4-7.3,5.6-7.3,5.6C24.1,180.5,38.1,181.2,38.1,181.2z M111,171.6c0,0-0.4-0.2-1.1-0.5
				c-0.3-0.2-0.8-0.4-1.2-0.7c-0.4-0.3-0.9-0.6-1.5-1c-0.5-0.4-1-0.9-1.6-1.4c-0.6-0.5-1.1-1.1-1.7-1.7c-0.6-0.6-1.1-1.3-1.6-1.9
				c-0.5-0.7-1-1.4-1.5-2.1c-0.4-0.8-0.9-1.5-1.3-2.2c-0.4-0.8-0.8-1.5-1.1-2.2c-0.4-0.7-0.6-1.5-0.9-2.2c-0.3-0.7-0.5-1.4-0.7-2
				c-0.8-2.5-1-4.2-1-4.2s0.2,0.4,0.5,1.1c0.3,0.7,0.8,1.6,1.4,2.8c0.3,0.6,0.6,1.2,0.9,1.8c0.3,0.6,0.7,1.3,1.1,2
				c0.4,0.7,0.8,1.4,1.2,2.1c0.4,0.7,0.9,1.4,1.3,2.1c0.5,0.7,0.9,1.4,1.4,2.1c0.5,0.6,0.9,1.3,1.4,2c0.5,0.6,0.9,1.2,1.4,1.8
				c0.5,0.5,0.9,1.1,1.4,1.5c0.5,0.4,0.9,0.8,1.2,1.2c0.4,0.4,0.7,0.6,1,0.9C110.7,171.3,111,171.6,111,171.6z M115.2,178.1
				c0.6-0.2,1.2-0.3,1.7-0.5c0.5-0.1,1-0.2,1.4-0.2c0.8-0.1,1.2-0.1,1.2-0.1s-0.4,0.2-1.1,0.4c-0.3,0.1-0.8,0.3-1.2,0.5
				c-0.5,0.2-1,0.5-1.6,0.7c-0.6,0.3-1.1,0.7-1.8,1c-0.6,0.3-1.2,0.8-1.9,1.2c-0.7,0.4-1.3,0.9-2,1.4c-0.7,0.5-1.3,1-2,1.5
				c-0.6,0.5-1.3,1-1.9,1.6c-0.6,0.6-1.3,1.1-1.8,1.6c-0.6,0.5-1.2,1.1-1.7,1.6c-0.5,0.5-1,1-1.5,1.4c-0.9,0.9-1.7,1.7-2.2,2.2
				c-0.5,0.5-0.8,0.8-0.8,0.8s0.8-1.6,2.3-3.6c0.4-0.5,0.8-1.1,1.3-1.6c0.5-0.6,1-1.2,1.6-1.7c0.6-0.6,1.2-1.2,1.8-1.8
				c0.6-0.6,1.3-1.1,2-1.7c0.7-0.5,1.4-1,2.1-1.5c0.7-0.5,1.4-0.9,2.1-1.3c0.7-0.4,1.4-0.8,2.1-1.1
				C113.9,178.6,114.5,178.3,115.2,178.1z M88.9,169.4c0,0-0.4,0-1.2-0.1c-0.4-0.1-0.8-0.1-1.4-0.2c-0.5-0.1-1.1-0.3-1.7-0.5
				c-0.6-0.2-1.3-0.5-2-0.8c-0.7-0.3-1.4-0.7-2.1-1.1c-0.7-0.4-1.4-0.9-2.1-1.3c-0.7-0.5-1.4-1-2.1-1.5c-0.7-0.6-1.3-1.1-1.9-1.7
				c-0.6-0.6-1.2-1.2-1.8-1.8c-0.6-0.6-1.1-1.2-1.6-1.7c-0.5-0.6-0.9-1.1-1.3-1.6c-1.6-2.1-2.3-3.6-2.3-3.6s0.3,0.3,0.8,0.8
				c0.5,0.5,1.3,1.3,2.2,2.2c0.5,0.4,1,0.9,1.5,1.4c0.5,0.5,1.1,1,1.7,1.6c0.6,0.6,1.2,1.1,1.8,1.6c0.6,0.6,1.3,1.1,1.9,1.6
				c0.7,0.5,1.3,1,2,1.5c0.7,0.5,1.3,1,2,1.4c0.7,0.4,1.3,0.9,1.9,1.2c0.6,0.3,1.2,0.7,1.8,1c0.6,0.3,1.1,0.5,1.6,0.8
				c0.5,0.2,0.9,0.4,1.2,0.5C88.5,169.2,88.9,169.4,88.9,169.4z M82.1,169.9c-0.6,0.1-1.2,0.1-1.9,0.2c0.4-0.2,0.8-0.5,1.3-0.9
				C81.6,169.2,81.8,169.5,82.1,169.9z M84.9,175.5c0.5-0.5,1-1,1.5-1.5c0.5-0.4,1-0.8,1.4-1.1c0.4-0.3,0.8-0.5,1.2-0.7
				c0.7-0.4,1-0.6,1-0.6s-0.3,0.3-0.8,0.8c-0.3,0.3-0.6,0.6-1,0.9c-0.3,0.4-0.7,0.8-1.2,1.3c-0.4,0.5-0.8,1-1.3,1.6
				c-0.5,0.6-0.8,1.2-1.3,1.8c-0.5,0.6-0.8,1.4-1.3,2c-0.4,0.7-0.8,1.4-1.2,2.2c-0.4,0.7-0.8,1.5-1.2,2.2c-0.4,0.8-0.7,1.5-1.1,2.2
				c-0.3,0.7-0.7,1.4-0.9,2.1c-0.3,0.7-0.6,1.3-0.8,1.9c-0.5,1.2-0.9,2.2-1.2,2.9c-0.3,0.7-0.4,1.1-0.4,1.1s0.1-1.7,0.8-4.2
				c0.2-0.6,0.3-1.3,0.6-2c0.2-0.7,0.5-1.5,0.8-2.2c0.3-0.8,0.6-1.5,1-2.3c0.3-0.8,0.8-1.5,1.1-2.3c0.4-0.8,0.9-1.5,1.3-2.2
				c0.5-0.7,1-1.4,1.5-2.1C83.9,176.6,84.4,176,84.9,175.5z M40,176.5c0,0,1.5-0.9,3.9-1.9c0.6-0.2,1.2-0.5,2-0.7
				c0.7-0.2,1.4-0.5,2.2-0.7c0.8-0.2,1.6-0.4,2.4-0.6c0.8-0.2,1.7-0.3,2.5-0.5c0.9-0.1,1.7-0.2,2.6-0.3c0.9,0,1.7-0.1,2.5-0.1
				c0.8,0,1.6,0,2.4,0.2c0.7,0.1,1.4,0.2,2.1,0.3c0.6,0.2,1.2,0.3,1.7,0.5c0.3,0.1,0.5,0.2,0.7,0.3c-0.4,0.1-0.8,0.2-1.2,0.3
				c-0.4,0-0.9-0.1-1.4-0.1c-0.6,0-1.3,0-2-0.1c-0.7,0-1.5,0.1-2.3,0.1c-0.8,0-1.6,0.1-2.4,0.2c-0.8,0.1-1.7,0.2-2.5,0.3
				c-0.8,0.1-1.7,0.2-2.5,0.4c-0.8,0.2-1.6,0.3-2.4,0.5c-0.8,0.2-1.5,0.3-2.2,0.5c-0.7,0.2-1.4,0.3-2,0.5c-1.2,0.3-2.3,0.6-3,0.8
				C40.5,176.4,40,176.5,40,176.5z"/>
			<path class="st0" d="M5.6,110.4c-2.1,2.2,2.6,1.9,5.8,1.5c-1.7,0.8-1.7,2.4-1.7,2.4c-1,2.2,2,1.9,2,1.9c-1.1,4.5,9.2,0.2,9.2,0.2
				c-1.3,5.1,9.5-0.4,9.5-0.4c0,0,0,0,0,0c3.6,0.9,6.9,1.9,10,3.1c-1,0.6-1.6,1.4-1.6,1.4c-4.7-4.2-6.8,0.3-6.8,0.3
				c-8.1-0.6-5.4,4-5.4,4c-9,4.8-3.4,6.9-3.4,6.9c-7.7,10.1,3.1,5.5,3.1,5.5c0.5,3,3.1-1,4.7-3.7c-0.4,1.9,0.8,2.8,0.8,2.8
				c1.2,2.1,2.7-0.5,2.7-0.5c2.9,3.6,5.7-7.3,5.7-7.3c2.9,3.6,4.8-5,5.3-7.3c5.5,2.6,10.2,5.7,14.2,8.9c0.3,0.8,1,1.5,2.2,1.8
				c0.7,0.6,1.4,1.3,2.1,1.9c-1.1,0.1-1.9,0.6-1.9,0.6c-2.7-5.7-6.4-2.3-6.4-2.3c-7.3-3.7-6.5,1.6-6.5,1.6c-10.2,1-5.8,5-5.8,5
				c-11,6.4,0.8,6.2,0.8,6.2c-0.7,3,3.2,0.3,5.7-1.6c-1.1,1.5-0.3,2.9-0.3,2.9c0.3,2.4,2.7,0.6,2.7,0.6c1.3,4.5,8.1-4.5,8.1-4.5
				c1.3,4.3,6.2-2.5,7.6-4.6c9,10.1,12,19.4,12.1,19.6l1.4-0.4c-0.1-0.2-3.6-11-14.2-22.1c-0.1-0.1-0.1-0.1-0.2-0.2
				c-0.9-1-1.9-1.9-2.9-2.9c1-1.2,7.3-9,2.4-9c0,0,6.5-9.1,1.9-9.1c0,0,1-2.8-1.4-2.4c0,0-1.6-0.4-2.7,1.2c1.1-3,2.5-7.5-0.2-6
				c0,0-3.4-11.3-6.2,1.1c0,0-5.2-3-3.1,7.1c0,0-5.2,0.8,0.4,6.7c0,0-0.9,2,0.3,3.6c-1.7-1.1-3.4-2.2-5.3-3.2
				c0.2-0.1,0.5-0.2,0.8-0.3c0,0,4.4-11.2-0.5-9.5c0,0,3.3-10.7-1.1-9.2c0,0,0-3-2.1-1.8c0,0-1.6,0.2-2.2,2c0.1-3.2-0.1-7.9-2.1-5.6
				c0,0-6.8-9.6-5.5,3.1c0,0-5.9-1.1-0.6,7.7c0,0-4.7,2.5,2.6,6.2c0,0-0.2,1.6,0.9,2.8c-3-1.1-6.3-2.1-9.7-3c0.3-4-4.2-4.1-4.2-4.1
				c0.5-6.3-4.4-5.3-4.4-5.3c-4.4-6.8-6.4-1.9-6.4-1.9c-9.3-4.3-7.6,1.4-7.6,1.4C-4.6,104.5,5.6,110.4,5.6,110.4z M60.6,112.8
				c0,0.5,0,1.1,0,1.7c0,0.6,0,1.3,0,1.9c0,0.7,0.1,1.3,0.1,2c0,0.7,0.1,1.4,0.2,2.1c0.1,0.7,0.1,1.4,0.2,2.1c0.1,0.7,0.2,1.4,0.3,2
				c0.2,0.6,0.2,1.3,0.4,1.9c0.2,0.6,0.3,1.1,0.5,1.6c0.2,0.5,0.3,1,0.5,1.4c0.1,0.4,0.3,0.7,0.4,1c0.2,0.6,0.4,0.9,0.4,0.9
				s-0.2-0.3-0.6-0.8c-0.2-0.3-0.4-0.6-0.7-0.9c-0.2-0.4-0.5-0.8-0.7-1.3c-0.2-0.5-0.5-1-0.7-1.6c-0.2-0.6-0.4-1.2-0.6-1.9
				c-0.2-0.7-0.3-1.4-0.5-2.1c-0.1-0.7-0.2-1.4-0.3-2.2c0-0.7-0.1-1.5-0.1-2.2c0-0.7,0-1.4,0-2.1c0-0.7,0.1-1.3,0.1-2
				c0-0.6,0.1-1.2,0.2-1.7c0.3-2.1,0.8-3.5,0.8-3.5s0,0.4,0,1C60.6,110.9,60.6,111.8,60.6,112.8z M59.3,127.9
				c-0.6-0.4-1.2-0.9-1.8-1.3c0.5,0.2,1.1,0.3,1.9,0.5C59.4,127.1,59.3,127.4,59.3,127.9z M67.1,137c0.1,0.1,0.1,0.1,0.2,0.2
				c-0.2,0-0.4,0-0.6-0.1c-0.3,0-0.7-0.1-1.1-0.1c-0.4,0-0.9,0-1.4,0c-0.5,0-1.1,0.1-1.7,0.1c-0.6,0-1.2,0.1-1.9,0.2
				c-0.7,0.1-1.3,0.2-2,0.3c-0.7,0.1-1.4,0.3-2.1,0.4c-0.7,0.2-1.4,0.3-2,0.5c-0.7,0.2-1.3,0.3-2,0.5c-0.6,0.2-1.3,0.4-1.8,0.5
				c-0.6,0.2-1.1,0.3-1.6,0.5c-1,0.3-1.9,0.6-2.5,0.8c-0.6,0.2-0.9,0.3-0.9,0.3s1.2-0.9,3.1-1.8c0.5-0.2,1-0.5,1.6-0.7
				c0.6-0.2,1.2-0.5,1.8-0.7c0.6-0.2,1.3-0.4,2-0.6c0.7-0.2,1.4-0.4,2.1-0.5c0.7-0.1,1.4-0.3,2.1-0.4c0.7-0.1,1.4-0.2,2.1-0.2
				c0.7,0,1.3-0.1,2,0c0.6,0.1,1.2,0.1,1.8,0.2c0.5,0.1,1,0.2,1.5,0.3c0.4,0.1,0.8,0.2,1.1,0.3C66.8,136.9,66.9,136.9,67.1,137z
				 M50.6,121.3c0,0-0.3-0.2-0.8-0.6c-0.3-0.2-0.6-0.4-0.9-0.7c-0.3-0.3-0.7-0.6-1.1-1c-0.4-0.4-0.8-0.8-1.2-1.3
				c-0.4-0.5-0.8-1-1.2-1.6c-0.4-0.6-0.7-1.2-1.1-1.8c-0.3-0.6-0.7-1.3-1-1.9c-0.3-0.7-0.6-1.3-0.8-2c-0.2-0.7-0.5-1.3-0.7-2
				c-0.2-0.6-0.4-1.3-0.5-1.9c-0.2-0.6-0.2-1.2-0.4-1.7c-0.4-2.1-0.4-3.6-0.4-3.6s0.1,0.3,0.3,0.9c0.2,0.6,0.5,1.4,0.8,2.5
				c0.2,0.5,0.4,1,0.6,1.6c0.2,0.6,0.4,1.2,0.7,1.8c0.2,0.6,0.5,1.3,0.7,1.9c0.2,0.6,0.6,1.3,0.8,1.9c0.3,0.6,0.6,1.3,0.9,1.9
				c0.3,0.6,0.6,1.2,1,1.8c0.4,0.6,0.6,1.1,1,1.6c0.3,0.5,0.6,1,1,1.4c0.3,0.4,0.6,0.8,0.9,1.1c0.3,0.3,0.5,0.6,0.7,0.8
				C50.3,121.1,50.6,121.3,50.6,121.3z M45.4,119.6c-0.7-0.3-1.4-0.6-2.1-0.9c0.5,0,1.1,0,1.8-0.2C45.1,118.5,45.2,119,45.4,119.6z
				 M44.5,120.8c0,0,0.1,0,0.1,0.1c-0.2,0.1-0.4,0.1-0.7,0.2c-0.3,0.1-0.7,0.2-1.1,0.3c-0.4,0.2-0.9,0.3-1.3,0.5
				c-0.5,0.2-1,0.5-1.5,0.7c-0.6,0.2-1.1,0.6-1.7,0.9c-0.6,0.3-1.1,0.7-1.7,1c-0.6,0.4-1.2,0.8-1.7,1.2c-0.6,0.4-1.2,0.8-1.7,1.2
				c-0.5,0.4-1.1,0.8-1.6,1.2c-0.5,0.4-1,0.8-1.5,1.2c-0.5,0.4-0.9,0.8-1.3,1.1c-0.8,0.7-1.5,1.3-2,1.7c-0.5,0.4-0.7,0.7-0.7,0.7
				s0.7-1.2,2.2-2.9c0.4-0.4,0.7-0.9,1.2-1.3c0.4-0.4,0.9-0.9,1.4-1.4c0.5-0.5,1-0.9,1.6-1.4c0.6-0.5,1.2-0.9,1.7-1.3
				c0.6-0.4,1.2-0.8,1.8-1.2c0.6-0.3,1.2-0.7,1.9-1c0.6-0.3,1.2-0.6,1.8-0.8c0.6-0.2,1.2-0.4,1.7-0.5c0.5-0.1,1-0.2,1.5-0.3
				c0.4-0.1,0.8-0.1,1.1-0.1C44.2,120.8,44.4,120.8,44.5,120.8z M8.8,107.6c0,0,1.4-0.1,3.6,0c0.5,0.1,1.1,0.1,1.7,0.2
				c0.6,0.1,1.3,0.2,1.9,0.3c0.7,0.1,1.4,0.3,2,0.5c0.7,0.2,1.4,0.4,2.1,0.6c0.7,0.3,1.4,0.5,2,0.8c0.7,0.3,1.3,0.6,1.9,0.9
				c0.6,0.3,1.2,0.6,1.7,1c0.5,0.4,1,0.7,1.4,1c0.4,0.4,0.8,0.7,1.1,1c0.1,0,0.1,0.1,0.1,0.1c-0.4-0.1-0.9-0.2-1.3-0.3
				c-0.1-0.1-0.2-0.1-0.4-0.2c-0.5-0.3-1-0.5-1.5-0.8c-0.5-0.3-1.1-0.5-1.7-0.8c-0.6-0.3-1.2-0.5-1.9-0.8c-0.6-0.2-1.3-0.5-2-0.7
				c-0.7-0.2-1.3-0.5-2-0.6c-0.7-0.2-1.3-0.4-2-0.6c-0.6-0.2-1.3-0.3-1.9-0.5c-0.6-0.1-1.2-0.3-1.7-0.4c-1-0.2-1.9-0.4-2.5-0.6
				C9.2,107.7,8.8,107.6,8.8,107.6z"/>
			<path class="st0" d="M18.5,70.1c-1,2.3,2.6,0.8,4.9-0.4c-1.1,1.1-0.7,2.3-0.7,2.3c-0.2,2,2.1,0.9,2.1,0.9
				c0.4,3.8,7.2-2.3,7.2-2.3c0.4,4.3,7.2-2.9,7.2-2.9c0-0.2,0-0.4-0.1-0.6c2.5,4.2,4.3,8.3,5.6,12.3c-0.1,0.6,0.1,1.2,0.6,1.9
				c0.4,1.3,0.7,2.5,0.9,3.7c-0.7-0.3-1.3-0.3-1.3-0.3c0.8-5.1-3.3-4.5-3.3-4.5c-3.3-5.8-5.2-1.9-5.2-1.9c-7.4-4-6.3,0.8-6.3,0.8
				c-10.4-0.7-2.3,4.6-2.3,4.6c-1.8,1.7,2.1,1.7,4.6,1.5C31,85.6,30.9,87,30.9,87c-0.9,1.8,1.5,1.6,1.5,1.6
				c-1.1,3.6,7.5,0.6,7.5,0.6c-1,3.4,4.8,1.3,7,0.5c1.3,10.5-0.8,17.8-0.9,17.9l1.2,0.3c0-0.2,2.3-8.2,0.7-19.5
				c0.2-1.1,0-1.9-0.4-2.5c-0.2-1.2-0.5-2.4-0.8-3.6c1.1-0.3,9.2-2.8,5.8-5c0,0,8.6-3.2,5.4-5.3c0,0,2-1.5,0.1-2.3
				c0,0-0.9-1-2.4-0.4c2.1-1.5,5.1-4,2.6-4.1c0,0,2.8-9.2-4.7-2.1c0,0-2.2-4.4-5.3,3.4c0,0-3.9-1.8-2.8,4.7c0,0-1.9,1.2-1.3,3.2
				c-0.8-1.9-1.7-3.9-2.8-5.8c0.2,0.1,0.4,0.1,0.6,0.2c0,0,8.2-5.6,4-6.7c0,0,7.1-5.8,3.4-6.8c0,0,1.4-2-0.6-2.2
				c0,0-1.2-0.6-2.4,0.3c1.5-2.1,3.6-5.4,1.1-4.7c0,0-0.3-9.6-5.1-0.4c0,0-3.5-3.4-3.9,4.9c0,0-4.3-0.5-1.1,5.4c0,0-1,1.3-0.6,2.7
				c-1.3-1.8-2.8-3.5-4.4-5.3c2.4-2.7-0.7-5-0.7-5c3.2-4-0.6-5.6-0.6-5.6c0.1-6.7-3.5-4.2-3.5-4.2c-4.3-7.2-5.8-2.5-5.8-2.5
				c-8.6-5.9-4.3,2.8-4.3,2.8c-2.5,0.6,0.9,2.5,3.2,3.7c-1.5-0.3-2.3,0.8-2.3,0.8c-1.7,1.1,0.5,2.2,0.5,2.2
				c-2.8,2.6,6.2,4.4,6.2,4.4c-2.8,2.5,4.3,3.7,6.2,4c2.4,2.6,4.5,5.2,6.2,7.9c-1.3-0.6-2.9-0.1-2.9-0.1c-1.3-5-4.8-2.9-4.8-2.9
				c-5.3-4.1-5.5,0.2-5.5,0.2c-8.3-0.8-5.5,3.1-5.5,3.1C9.1,68.3,18.5,70.1,18.5,70.1z M31.5,55.2c-0.2-0.2-0.3-0.3-0.5-0.5
				c0,0,0-0.1,0-0.1c-0.2-0.3-0.3-0.7-0.5-1.1c-0.2-0.4-0.4-0.8-0.7-1.2c-0.2-0.4-0.5-0.9-0.8-1.3c-0.3-0.5-0.6-0.9-0.9-1.4
				c-0.3-0.5-0.7-0.9-1-1.4c-0.4-0.5-0.7-0.9-1.1-1.3c-0.4-0.4-0.7-0.9-1.1-1.3c-0.4-0.4-0.7-0.8-1-1.2c-0.3-0.4-0.7-0.7-1-1
				c-0.6-0.6-1.1-1.2-1.5-1.5c-0.4-0.4-0.6-0.6-0.6-0.6s1.1,0.6,2.5,1.7c0.3,0.3,0.7,0.6,1.1,0.9c0.4,0.3,0.8,0.7,1.2,1.1
				c0.4,0.4,0.8,0.8,1.2,1.2c0.4,0.4,0.8,0.9,1.1,1.4c0.3,0.5,0.7,1,1,1.5c0.3,0.5,0.6,1,0.9,1.5c0.3,0.5,0.5,1,0.7,1.5
				c0.2,0.5,0.4,0.9,0.5,1.4c0.1,0.4,0.2,0.8,0.3,1.2C31.5,54.7,31.5,54.9,31.5,55.2z M41,65.4c-0.1-0.4-0.1-0.9-0.2-1.4
				c-0.1-0.5-0.1-1.1-0.1-1.6c0-0.6,0-1.1,0.1-1.7c0.1-0.6,0.1-1.2,0.2-1.8c0.1-0.6,0.2-1.2,0.4-1.7c0.1-0.6,0.3-1.1,0.5-1.7
				c0.2-0.5,0.3-1,0.5-1.5c0.2-0.5,0.4-0.9,0.5-1.3c0.7-1.6,1.4-2.6,1.4-2.6s-0.1,0.3-0.2,0.8c-0.1,0.5-0.3,1.2-0.6,2
				c-0.1,0.4-0.2,0.9-0.4,1.4c-0.1,0.5-0.2,1-0.4,1.5c-0.1,0.5-0.2,1.1-0.4,1.6c-0.1,0.6-0.2,1.1-0.3,1.7c-0.1,0.6-0.2,1.1-0.3,1.7
				c0,0.6-0.1,1.1-0.2,1.7c0,0.5-0.1,1.1-0.1,1.6c0,0.5,0,1,0,1.4c0,0.4,0.1,0.8,0.1,1.2c0,0.4,0.1,0.7,0.1,0.9
				c0.1,0.5,0.1,0.8,0.1,0.8s-0.1-0.3-0.3-0.8c-0.1-0.2-0.2-0.5-0.3-0.9C41.2,66.3,41.1,65.9,41,65.4z M39.2,64.8
				c-0.4-0.7-0.9-1.3-1.3-2c0.4,0.3,0.9,0.7,1.7,1C39.5,63.9,39.3,64.3,39.2,64.8z M46.8,81.8c0,0,0-0.3,0-0.8c0-0.3,0-0.6,0-0.9
				c0-0.4,0.1-0.8,0.1-1.2c0.1-0.4,0.2-0.9,0.3-1.4c0.1-0.5,0.3-1,0.5-1.6c0.2-0.5,0.4-1.1,0.6-1.6c0.2-0.5,0.5-1.1,0.8-1.6
				c0.3-0.5,0.6-1,0.9-1.5c0.3-0.5,0.6-1,1-1.4c0.3-0.5,0.7-0.9,1-1.3c0.3-0.4,0.6-0.8,0.9-1.1c1.2-1.3,2.2-2,2.2-2
				s-0.2,0.2-0.5,0.7c-0.3,0.4-0.7,1-1.2,1.8c-0.2,0.4-0.5,0.8-0.8,1.2c-0.3,0.4-0.6,0.9-0.8,1.3c-0.3,0.5-0.6,0.9-0.9,1.4
				c-0.3,0.5-0.6,1-0.8,1.5c-0.3,0.5-0.5,1-0.8,1.5c-0.2,0.5-0.5,1-0.7,1.5c-0.2,0.5-0.4,1-0.6,1.4c-0.1,0.5-0.3,0.9-0.4,1.3
				c-0.1,0.4-0.2,0.8-0.3,1.1C47,80.5,47,80.8,46.9,81C46.8,81.6,46.8,81.8,46.8,81.8z M46.3,87.6c0.2,0.2,0.3,0.4,0.4,0.5
				c0,0.1,0,0.3,0.1,0.4c0,0,0,0-0.1,0c-0.2-0.2-0.4-0.4-0.7-0.6c-0.3-0.2-0.6-0.4-1-0.7c-0.4-0.2-0.8-0.5-1.2-0.7
				c-0.4-0.3-0.9-0.5-1.4-0.7c-0.5-0.3-1-0.5-1.5-0.7c-0.5-0.2-1.1-0.5-1.6-0.7c-0.5-0.2-1.1-0.4-1.6-0.6c-0.5-0.2-1.1-0.4-1.6-0.5
				c-0.5-0.2-1-0.3-1.5-0.5c-0.5-0.1-0.9-0.3-1.4-0.4c-0.8-0.2-1.6-0.4-2-0.6c-0.5-0.1-0.8-0.2-0.8-0.2s1.2-0.1,3,0.2
				c0.4,0.1,0.9,0.1,1.4,0.2c0.5,0.1,1,0.2,1.6,0.3c0.5,0.1,1.1,0.3,1.7,0.5c0.6,0.2,1.1,0.4,1.7,0.6c0.5,0.2,1.1,0.5,1.6,0.7
				c0.5,0.3,1,0.5,1.5,0.8c0.5,0.3,0.9,0.6,1.3,0.9c0.4,0.3,0.8,0.6,1.1,0.9C45.8,87,46.1,87.3,46.3,87.6z M45.4,77.6
				c-0.3-0.8-0.6-1.6-0.9-2.4c0.3,0.5,0.7,1.1,1.4,1.8C45.9,76.9,45.7,77.1,45.4,77.6z M20.3,67c0,0,1.1-0.5,2.8-1
				c0.4-0.1,0.9-0.2,1.4-0.3c0.5-0.1,1-0.2,1.6-0.3c0.5-0.1,1.1-0.2,1.7-0.2c0.6-0.1,1.2-0.1,1.8-0.1c0.6,0,1.2,0,1.8,0
				c0.6,0.1,1.2,0.1,1.7,0.2c0.6,0.1,1.1,0.2,1.6,0.3c0.5,0.1,1,0.3,1.4,0.4c0.4,0.2,0.8,0.3,1.1,0.5c0.3,0.1,0.6,0.3,0.8,0.4
				c0.4,0.3,0.7,0.4,0.7,0.4s-0.3-0.1-0.8-0.2c-0.2-0.1-0.5-0.2-0.9-0.3c-0.3-0.1-0.7-0.2-1.2-0.3c-0.4-0.1-0.9-0.1-1.4-0.2
				c-0.5-0.1-1-0.1-1.5-0.2c-0.5-0.1-1.1,0-1.7-0.1c-0.6,0-1.1,0-1.7,0c-0.6,0-1.2,0-1.7,0.1c-0.6,0-1.1,0-1.7,0.1
				c-0.5,0-1.1,0.1-1.6,0.1c-0.5,0.1-1,0.1-1.4,0.1c-0.9,0.1-1.6,0.2-2.1,0.3C20.6,67,20.3,67,20.3,67z"/>
			<path class="st0" d="M44.9,59.6l0.6,0.7c0.1-0.1,4.9-4.6,8.4-12.8c0.6-0.7,0.8-1.3,0.7-1.9c0.3-0.9,0.6-1.8,0.9-2.8
				c0.8,0.2,7.3,1.8,5.9-1.1c0,0,7.1,1.3,5.8-1.4c0,0,1.9-0.2,1-1.5c0,0-0.2-1-1.4-1.3c2-0.2,5.1-0.6,3.4-1.7c0,0,5.6-5.1-2.4-3.3
				c0,0,0.3-3.8-5,0.2c0,0-1.9-2.8-3.8,2.1c0,0-1.8,0-2.2,1.6c0.2-1.6,0.4-3.3,0.5-5.1c0.1,0.1,0.2,0.2,0.3,0.3c0,0,7.8-0.5,5.4-2.9
				c0,0,7.2-1.1,5-3.2c0,0,1.7-0.8,0.5-1.7c0,0-0.5-0.9-1.8-0.7c1.9-0.8,4.6-2.2,2.7-2.8c0,0,3.7-6.6-3.3-2.4c0,0-1-3.7-4.6,1.7
				c0,0-2.7-2.1-2.9,3.2c0,0-1.2,0.4-1.5,1.6c-0.2-1.7-0.4-3.5-0.8-5.3c2.7-0.8,1.5-3.7,1.5-3.7c3.8-1.4,1.9-4,1.9-4
				c2.8-4.5-0.6-4.3-0.6-4.3c0-6.6-2.9-4-2.9-4c-3.5-7.4-4.1,0.1-4.1,0.1c-1.9-0.6-0.4,2.1,0.7,3.8C51.9,6.4,51,6.8,51,6.8
				c-1.6,0-0.6,1.7-0.6,1.7c-2.9,0.6,2.4,5.4,2.4,5.4c-2.9,0.6,1.4,4.2,2.6,5.2c0.6,2.7,0.9,5.4,1,7.8c-0.6-0.9-1.9-1.2-1.9-1.2
				c1.1-3.9-2.1-3.9-2.1-3.9c-1.9-4.9-3.8-2-3.8-2c-5.3-3.9-5-0.1-5-0.1c-8-1.7-2.3,3.3-2.3,3.3c-1.6,1.1,1.4,1.6,3.4,1.7
				C43.7,25,43.5,26,43.5,26c-0.9,1.3,1,1.5,1,1.5c-1.3,2.7,5.8,1.3,5.8,1.3c-1.5,3.1,6,1,6,1c0.1-0.2,0.2-0.3,0.2-0.5
				c0,3.9-0.4,7.4-1.2,10.5c-0.3,0.4-0.4,0.9-0.4,1.5c-0.3,1-0.6,2-0.9,2.9c-0.4-0.5-0.7-0.8-0.7-0.8c2.6-3.1-0.4-4.4-0.4-4.4
				c0.1-5.3-2.7-3.4-2.7-3.4c-3.4-5.7-4.5-2-4.5-2c-6.8-4.7-3.4,2.2-3.4,2.2c-1.9,0.4,0.7,2,2.5,2.9c-1.2-0.2-1.8,0.6-1.8,0.6
				c-1.3,0.8,0.4,1.7,0.4,1.7c-2.2,2,4.8,3.5,4.8,3.5c-2.1,1.9,2.7,2.8,4.5,3.1C49.4,55.4,45,59.5,44.9,59.6z M56.1,29.4
				c0,0-0.2-0.2-0.4-0.5c-0.1-0.1-0.3-0.3-0.5-0.5c-0.2-0.2-0.4-0.4-0.7-0.6c-0.2-0.2-0.6-0.4-0.8-0.7c-0.3-0.3-0.6-0.5-1-0.7
				c-0.3-0.3-0.7-0.5-1.1-0.7c-0.4-0.2-0.8-0.5-1.2-0.7c-0.4-0.2-0.8-0.5-1.2-0.7c-0.4-0.2-0.8-0.4-1.2-0.6
				c-0.4-0.2-0.8-0.4-1.1-0.5c-0.4-0.2-0.7-0.3-1-0.5c-0.6-0.3-1.2-0.5-1.5-0.7c-0.4-0.2-0.6-0.3-0.6-0.3s0.9,0.1,2.3,0.5
				c0.3,0.1,0.7,0.2,1.1,0.3c0.4,0.1,0.8,0.3,1.2,0.4c0.4,0.2,0.8,0.3,1.2,0.6c0.4,0.2,0.8,0.4,1.2,0.7c0.4,0.2,0.8,0.5,1.2,0.8
				c0.4,0.3,0.7,0.5,1.1,0.8c0.3,0.3,0.7,0.6,0.9,0.9c0.3,0.3,0.6,0.6,0.8,0.8c0.2,0.3,0.4,0.5,0.6,0.8c0.2,0.2,0.3,0.5,0.4,0.6
				C56,29.2,56.1,29.4,56.1,29.4z M53.2,46.6c0,0.1-0.1,0.2-0.1,0.3c0,0,0,0,0-0.1c-0.1-0.2-0.1-0.4-0.3-0.7
				c-0.1-0.3-0.2-0.5-0.4-0.9c-0.1-0.3-0.3-0.6-0.5-1c-0.2-0.3-0.4-0.7-0.6-1.1c-0.2-0.4-0.5-0.7-0.7-1.1c-0.3-0.4-0.5-0.7-0.8-1.1
				c-0.3-0.4-0.5-0.7-0.8-1.1c-0.3-0.3-0.6-0.7-0.8-1c-0.3-0.3-0.6-0.6-0.8-0.9c-0.3-0.3-0.5-0.6-0.7-0.8c-0.5-0.5-0.9-0.9-1.1-1.2
				c-0.3-0.3-0.4-0.5-0.4-0.5s0.8,0.4,1.9,1.3c0.3,0.2,0.6,0.5,0.9,0.7c0.3,0.3,0.6,0.5,0.9,0.9c0.3,0.3,0.6,0.6,0.9,1
				c0.3,0.3,0.6,0.7,0.9,1.1c0.3,0.4,0.5,0.8,0.8,1.2c0.2,0.4,0.5,0.8,0.7,1.2c0.2,0.4,0.4,0.8,0.5,1.2c0.1,0.4,0.3,0.7,0.4,1.1
				c0.1,0.3,0.2,0.7,0.2,0.9C53.2,46.3,53.2,46.5,53.2,46.6z M56.2,18.2c0-0.2-0.1-0.3-0.1-0.5c0,0,0-0.1,0-0.1
				c0-0.3,0.1-0.6,0.1-0.9c0-0.3,0-0.7,0.1-1.1c0-0.4,0-0.8,0-1.2c0-0.4-0.1-0.9-0.1-1.3c0-0.4-0.1-0.9-0.1-1.3
				c-0.1-0.5-0.1-0.9-0.2-1.3c-0.1-0.4-0.1-0.9-0.2-1.3c-0.1-0.4-0.2-0.8-0.2-1.2c-0.1-0.4-0.2-0.8-0.2-1.1
				c-0.2-0.7-0.3-1.2-0.4-1.6c-0.1-0.4-0.1-0.6-0.1-0.6s0.5,0.8,1,2.1c0.1,0.3,0.3,0.7,0.4,1.1c0.1,0.4,0.3,0.8,0.4,1.2
				c0.1,0.4,0.2,0.9,0.3,1.3c0.1,0.5,0.1,0.9,0.2,1.4c0,0.5,0.1,0.9,0.1,1.4c0,0.5,0,0.9,0,1.4c0,0.4,0,0.9-0.1,1.3
				c-0.1,0.4-0.1,0.8-0.2,1.1c-0.1,0.3-0.2,0.7-0.3,0.9C56.3,17.9,56.3,18.1,56.2,18.2z M57.9,31.3c0,0,0-0.2,0.1-0.6
				c0-0.2,0.1-0.5,0.1-0.7c0.1-0.3,0.2-0.6,0.3-0.9c0.1-0.3,0.3-0.7,0.4-1c0.2-0.4,0.4-0.7,0.6-1.1c0.2-0.4,0.5-0.8,0.8-1.1
				c0.3-0.4,0.6-0.7,0.9-1.1c0.3-0.3,0.6-0.7,0.9-1c0.3-0.3,0.7-0.6,1-0.9c0.3-0.3,0.7-0.6,1-0.8c0.3-0.3,0.6-0.5,0.9-0.7
				c1.1-0.8,2-1.2,2-1.2s-0.2,0.2-0.5,0.4c-0.3,0.3-0.7,0.7-1.2,1.1c-0.2,0.2-0.5,0.5-0.8,0.8c-0.3,0.3-0.6,0.6-0.9,0.9
				c-0.3,0.3-0.6,0.6-0.9,1c-0.3,0.3-0.6,0.7-0.9,1c-0.3,0.3-0.6,0.7-0.9,1c-0.3,0.4-0.5,0.7-0.8,1.1c-0.2,0.4-0.5,0.7-0.7,1
				c-0.2,0.3-0.4,0.6-0.6,0.9c-0.1,0.3-0.3,0.6-0.4,0.8c-0.1,0.2-0.2,0.5-0.3,0.7C58,31,57.9,31.3,57.9,31.3z M57.5,27.8
				c0-0.6-0.1-1.2-0.1-1.9c0.1,0.4,0.4,0.8,0.7,1.3C58.1,27.3,57.8,27.5,57.5,27.8z M55.7,42.4c0,0,0.1-0.2,0.3-0.6
				c0.1-0.2,0.2-0.4,0.4-0.6c0.2-0.2,0.4-0.5,0.6-0.8c0.2-0.3,0.5-0.6,0.8-0.9c0.3-0.3,0.6-0.6,0.9-0.9c0.3-0.3,0.7-0.6,1.1-0.8
				c0.4-0.3,0.8-0.5,1.2-0.8c0.4-0.2,0.8-0.5,1.2-0.7c0.4-0.2,0.8-0.4,1.2-0.6c0.4-0.2,0.8-0.3,1.2-0.5c0.4-0.1,0.7-0.2,1.1-0.4
				c1.3-0.4,2.3-0.5,2.3-0.5s-0.2,0.1-0.6,0.3c-0.4,0.2-0.9,0.4-1.5,0.7c-0.3,0.2-0.6,0.3-1,0.5c-0.4,0.2-0.7,0.4-1.1,0.6
				c-0.4,0.2-0.8,0.4-1.2,0.6c-0.4,0.2-0.8,0.4-1.2,0.7c-0.4,0.2-0.8,0.5-1.1,0.7c-0.4,0.3-0.7,0.5-1.1,0.7c-0.3,0.3-0.7,0.5-1,0.7
				c-0.3,0.3-0.6,0.5-0.8,0.7c-0.2,0.2-0.5,0.5-0.7,0.6c-0.2,0.2-0.3,0.4-0.5,0.5C55.9,42.2,55.7,42.4,55.7,42.4z M56.5,38.9
				c0.1-0.7,0.3-1.3,0.4-2c0,0.5,0,1.1,0.3,1.8C57.2,38.7,56.9,38.8,56.5,38.9z"/>
		</g>
	</g>
	<g>
		<path class="st1" d="M36.4,181.2c-1.1,3.5,3.8,0.6,7-1.5c-1.5,1.7-0.6,3.5-0.6,3.5c0.2,2.9,3.2,0.9,3.2,0.9c1.2,5.4,10-4.7,10-4.7
			c1.3,5.5,8.3-3.4,9.6-5.2c6-1.5,11.7-2.3,17.1-2.7c0.1,0,0.2,0.1,0.3,0.1c-1.1,1.2-1.4,2.9-1.4,2.9c-7.3-1.9-7.1,4-7.1,4
			c-9,3.8-3.6,7.1-3.6,7.1c-7,10,0.1,9.2,0.1,9.2c-2.7,15,6.3,4.1,6.3,4.1c2.2,3,2.8-2.7,3-6.5c0.5,2.2,2.4,2.5,2.4,2.5
			c2.4,1.6,2.6-2,2.6-2c5.1,2.3,2.2-10.8,2.2-10.8c5.3,2.3,2.2-9,1.6-10.9c9,0.1,17,1.6,23.9,3.8c-1.6,0.7-2.6,2.2-2.6,2.2
			c-5.9-4.6-8.1,1-8.1,1c-9.7,0-6.1,5.2-6.1,5.2c-10.3,6.5-3.5,8.5-3.5,8.5c-8.3,12.7,4.2,6.2,4.2,6.2c0.9,3.6,3.6-1.4,5.2-4.8
			c-0.4,2.2,1.3,3.3,1.3,3.3c1.6,2.4,3.2-0.8,3.2-0.8c3.8,4.1,6.2-9.1,6.2-9.1c4.2,4.4,5.6-8.7,5.7-9.7
			c14.9,5.9,23.2,14.2,23.3,14.3l1.3-1.2c-0.2-0.2-12.2-12.3-33.6-17.9c0.2-0.1,0.3-0.2,0.5-0.3c0,0,3.4-14-2.2-11.1
			c0,0,2-13.2-2.9-10.6c0,0-0.5-3.5-2.8-1.8c0,0-1.9,0.5-2.2,2.7c-0.4-3.7-1.4-9.3-3.4-6.2c0,0-9.7-10.2-6,4.5c0,0-7.1-0.3,0.5,9.2
			c0,0-5.1,3.7,4.1,6.9c0,0,0.2,6,7.3,3.6c0,0,0.2,0.9,0.8,1.8c-4.7-0.9-9.8-1.4-15.3-1.4c0,0,0,0,0,0c0,0-1.3-14.4-5.7-9.8
			c0,0-2.3-13.2-6.2-9.2c0,0-1.6-3.2-3.2-0.8c0,0-1.6,1-1.3,3.3c-1.6-3.4-4.3-8.4-5.2-4.8c0,0-12.4-6.6-4.2,6.2c0,0-6.9,2,3.4,8.5
			c0,0-3.7,5.2,6.1,5.2c0,0,0.7,1.7,2.3,2.5c-2.8,0.4-5.7,1-8.6,1.7c-1.8-4.8-6.8-2.4-6.8-2.4c-2.8-7-7.5-3.2-7.5-3.2
			c-8.4-4.9-7.9,1.4-7.9,1.4c-12.2,0.4-7.3,5.6-7.3,5.6C22.4,180.5,36.4,181.2,36.4,181.2z M109.3,171.6c0,0-0.4-0.2-1.1-0.5
			c-0.3-0.2-0.8-0.4-1.2-0.7c-0.4-0.3-0.9-0.6-1.5-1c-0.5-0.4-1-0.9-1.6-1.4c-0.6-0.5-1.1-1.1-1.7-1.7c-0.6-0.6-1.1-1.3-1.6-1.9
			c-0.5-0.7-1-1.4-1.5-2.1c-0.4-0.8-0.9-1.5-1.3-2.2c-0.4-0.8-0.8-1.5-1.1-2.2c-0.4-0.7-0.6-1.5-0.9-2.2c-0.3-0.7-0.5-1.4-0.7-2
			c-0.8-2.5-1-4.2-1-4.2s0.2,0.4,0.5,1.1c0.3,0.7,0.8,1.6,1.4,2.8c0.3,0.6,0.6,1.2,0.9,1.8c0.3,0.6,0.7,1.3,1.1,2
			c0.4,0.7,0.8,1.4,1.2,2.1c0.4,0.7,0.9,1.4,1.3,2.1c0.5,0.7,0.9,1.4,1.4,2.1c0.5,0.6,0.9,1.3,1.4,2c0.5,0.6,0.9,1.2,1.4,1.8
			c0.5,0.5,0.9,1.1,1.4,1.5c0.5,0.4,0.9,0.8,1.2,1.2c0.4,0.4,0.7,0.6,1,0.9C109,171.3,109.3,171.6,109.3,171.6z M113.4,178.1
			c0.6-0.2,1.2-0.3,1.7-0.5c0.5-0.1,1-0.2,1.4-0.2c0.8-0.1,1.2-0.1,1.2-0.1s-0.4,0.2-1.1,0.4c-0.3,0.1-0.8,0.3-1.2,0.5
			c-0.5,0.2-1,0.5-1.6,0.7c-0.6,0.3-1.1,0.7-1.8,1c-0.6,0.3-1.2,0.8-1.9,1.2c-0.7,0.4-1.3,0.9-2,1.4c-0.7,0.5-1.3,1-2,1.5
			c-0.6,0.5-1.3,1-1.9,1.6c-0.6,0.6-1.3,1.1-1.8,1.6c-0.6,0.5-1.2,1.1-1.7,1.6c-0.5,0.5-1,1-1.5,1.4c-0.9,0.9-1.7,1.7-2.2,2.2
			c-0.5,0.5-0.8,0.8-0.8,0.8s0.8-1.6,2.3-3.6c0.4-0.5,0.8-1.1,1.3-1.6c0.5-0.6,1-1.2,1.6-1.7c0.6-0.6,1.2-1.2,1.8-1.8
			c0.6-0.6,1.3-1.1,2-1.7c0.7-0.5,1.4-1,2.1-1.5c0.7-0.5,1.4-0.9,2.1-1.3c0.7-0.4,1.4-0.8,2.1-1.1
			C112.1,178.6,112.8,178.3,113.4,178.1z M87.1,169.4c0,0-0.4,0-1.2-0.1c-0.4-0.1-0.8-0.1-1.4-0.2c-0.5-0.1-1.1-0.3-1.7-0.5
			c-0.6-0.2-1.3-0.5-2-0.8c-0.7-0.3-1.4-0.7-2.1-1.1c-0.7-0.4-1.4-0.9-2.1-1.3c-0.7-0.5-1.4-1-2.1-1.5c-0.7-0.6-1.3-1.1-1.9-1.7
			c-0.6-0.6-1.2-1.2-1.8-1.8c-0.6-0.6-1.1-1.2-1.6-1.7c-0.5-0.6-0.9-1.1-1.3-1.6c-1.6-2.1-2.3-3.6-2.3-3.6s0.3,0.3,0.8,0.8
			c0.5,0.5,1.3,1.3,2.2,2.2c0.5,0.4,1,0.9,1.5,1.4c0.5,0.5,1.1,1,1.7,1.6c0.6,0.6,1.2,1.1,1.8,1.6c0.6,0.6,1.3,1.1,1.9,1.6
			c0.7,0.5,1.3,1,2,1.5c0.7,0.5,1.3,1,2,1.4c0.7,0.4,1.3,0.9,1.9,1.2c0.6,0.3,1.2,0.7,1.8,1c0.6,0.3,1.1,0.5,1.6,0.8
			c0.5,0.2,0.9,0.4,1.2,0.5C86.7,169.2,87.1,169.4,87.1,169.4z M80.4,169.9c-0.6,0.1-1.2,0.1-1.9,0.2c0.4-0.2,0.8-0.5,1.3-0.9
			C79.8,169.2,80,169.5,80.4,169.9z M83.2,175.5c0.5-0.5,1-1,1.5-1.5c0.5-0.4,1-0.8,1.4-1.1c0.4-0.3,0.8-0.5,1.2-0.7
			c0.7-0.4,1-0.6,1-0.6s-0.3,0.3-0.8,0.8c-0.3,0.3-0.6,0.6-1,0.9c-0.3,0.4-0.7,0.8-1.2,1.3c-0.4,0.5-0.8,1-1.3,1.6
			c-0.5,0.6-0.8,1.2-1.3,1.8c-0.5,0.6-0.8,1.4-1.3,2c-0.4,0.7-0.8,1.4-1.2,2.2c-0.4,0.7-0.8,1.5-1.2,2.2c-0.4,0.8-0.7,1.5-1.1,2.2
			c-0.3,0.7-0.7,1.4-0.9,2.1c-0.3,0.7-0.6,1.3-0.8,1.9c-0.5,1.2-0.9,2.2-1.2,2.9c-0.3,0.7-0.4,1.1-0.4,1.1s0.1-1.7,0.8-4.2
			c0.2-0.6,0.3-1.3,0.6-2c0.2-0.7,0.5-1.5,0.8-2.2c0.3-0.8,0.6-1.5,1-2.3c0.3-0.8,0.8-1.5,1.1-2.3c0.4-0.8,0.9-1.5,1.3-2.2
			c0.5-0.7,1-1.4,1.5-2.1C82.1,176.6,82.6,176,83.2,175.5z M38.3,176.5c0,0,1.5-0.9,3.9-1.9c0.6-0.2,1.2-0.5,2-0.7
			c0.7-0.2,1.4-0.5,2.2-0.7c0.8-0.2,1.6-0.4,2.4-0.6c0.8-0.2,1.7-0.3,2.5-0.5c0.9-0.1,1.7-0.2,2.6-0.3c0.9,0,1.7-0.1,2.5-0.1
			c0.8,0,1.6,0,2.4,0.2c0.7,0.1,1.4,0.2,2.1,0.3c0.6,0.2,1.2,0.3,1.7,0.5c0.3,0.1,0.5,0.2,0.7,0.3c-0.4,0.1-0.8,0.2-1.2,0.3
			c-0.4,0-0.9-0.1-1.4-0.1c-0.6,0-1.3,0-2-0.1c-0.7,0-1.5,0.1-2.3,0.1c-0.8,0-1.6,0.1-2.4,0.2c-0.8,0.1-1.7,0.2-2.5,0.3
			c-0.8,0.1-1.7,0.2-2.5,0.4c-0.8,0.2-1.6,0.3-2.4,0.5c-0.8,0.2-1.5,0.3-2.2,0.5c-0.7,0.2-1.4,0.3-2,0.5c-1.2,0.3-2.3,0.6-3,0.8
			C38.7,176.4,38.3,176.5,38.3,176.5z"/>
		<path class="st1" d="M3.9,110.4c-2.1,2.2,2.6,1.9,5.8,1.5c-1.7,0.8-1.7,2.4-1.7,2.4c-1,2.2,2,1.9,2,1.9c-1.1,4.5,9.2,0.2,9.2,0.2
			c-1.3,5.1,9.5-0.4,9.5-0.4c0,0,0,0,0,0c3.6,0.9,6.9,1.9,10,3.1c-1,0.6-1.6,1.4-1.6,1.4c-4.7-4.2-6.8,0.3-6.8,0.3
			c-8.1-0.6-5.4,4-5.4,4c-9,4.8-3.4,6.9-3.4,6.9c-7.7,10.1,3.1,5.5,3.1,5.5c0.5,3,3.1-1,4.7-3.7c-0.4,1.9,0.8,2.8,0.8,2.8
			c1.2,2.1,2.7-0.5,2.7-0.5c2.9,3.6,5.7-7.3,5.7-7.3c2.9,3.6,4.8-5,5.3-7.3c5.5,2.6,10.2,5.7,14.2,8.9c0.3,0.8,1,1.5,2.2,1.8
			c0.7,0.6,1.4,1.3,2.1,1.9c-1.1,0.1-1.9,0.6-1.9,0.6c-2.7-5.7-6.4-2.3-6.4-2.3c-7.3-3.7-6.5,1.6-6.5,1.6c-10.2,1-5.8,5-5.8,5
			c-11,6.4,0.8,6.2,0.8,6.2c-0.7,3,3.2,0.3,5.7-1.6c-1.1,1.5-0.3,2.9-0.3,2.9c0.3,2.4,2.7,0.6,2.7,0.6c1.3,4.5,8.1-4.5,8.1-4.5
			c1.3,4.3,6.2-2.5,7.6-4.6c9,10.1,12,19.4,12.1,19.6l1.4-0.4c-0.1-0.2-3.6-11-14.2-22.1c-0.1-0.1-0.1-0.1-0.2-0.2
			c-0.9-1-1.9-1.9-2.9-2.9c1-1.2,7.3-9,2.4-9c0,0,6.5-9.1,1.9-9.1c0,0,1-2.8-1.4-2.4c0,0-1.6-0.4-2.7,1.2c1.1-3,2.5-7.5-0.2-6
			c0,0-3.4-11.3-6.2,1.1c0,0-5.2-3-3.1,7.1c0,0-5.2,0.8,0.4,6.7c0,0-0.9,2,0.3,3.6c-1.7-1.1-3.4-2.2-5.3-3.2
			c0.2-0.1,0.5-0.2,0.8-0.3c0,0,4.4-11.2-0.5-9.5c0,0,3.3-10.7-1.1-9.2c0,0,0-3-2.1-1.8c0,0-1.6,0.2-2.2,2c0.1-3.2-0.1-7.9-2.1-5.6
			c0,0-6.8-9.6-5.5,3.1c0,0-5.9-1.1-0.6,7.7c0,0-4.7,2.5,2.6,6.2c0,0-0.2,1.6,0.9,2.8c-3-1.1-6.3-2.1-9.7-3c0.3-4-4.2-4.1-4.2-4.1
			c0.5-6.3-4.4-5.3-4.4-5.3c-4.4-6.8-6.4-1.9-6.4-1.9c-9.3-4.3-7.6,1.4-7.6,1.4C-6.3,104.5,3.9,110.4,3.9,110.4z M58.9,112.8
			c0,0.5,0,1.1,0,1.7c0,0.6,0,1.3,0,1.9c0,0.7,0.1,1.3,0.1,2c0,0.7,0.1,1.4,0.2,2.1c0.1,0.7,0.1,1.4,0.2,2.1c0.1,0.7,0.2,1.4,0.3,2
			c0.2,0.6,0.2,1.3,0.4,1.9c0.2,0.6,0.3,1.1,0.5,1.6c0.2,0.5,0.3,1,0.5,1.4c0.1,0.4,0.3,0.7,0.4,1c0.2,0.6,0.4,0.9,0.4,0.9
			s-0.2-0.3-0.6-0.8c-0.2-0.3-0.4-0.6-0.7-0.9c-0.2-0.4-0.5-0.8-0.7-1.3c-0.2-0.5-0.5-1-0.7-1.6c-0.2-0.6-0.4-1.2-0.6-1.9
			c-0.2-0.7-0.3-1.4-0.5-2.1c-0.1-0.7-0.2-1.4-0.3-2.2c0-0.7-0.1-1.5-0.1-2.2c0-0.7,0-1.4,0-2.1c0-0.7,0.1-1.3,0.1-2
			c0-0.6,0.1-1.2,0.2-1.7c0.3-2.1,0.8-3.5,0.8-3.5s0,0.4,0,1C58.9,110.9,58.9,111.8,58.9,112.8z M57.6,127.9
			c-0.6-0.4-1.2-0.9-1.8-1.3c0.5,0.2,1.1,0.3,1.9,0.5C57.7,127.1,57.6,127.4,57.6,127.9z M65.3,137c0.1,0.1,0.1,0.1,0.2,0.2
			c-0.2,0-0.4,0-0.6-0.1c-0.3,0-0.7-0.1-1.1-0.1c-0.4,0-0.9,0-1.4,0c-0.5,0-1.1,0.1-1.7,0.1c-0.6,0-1.2,0.1-1.9,0.2
			c-0.7,0.1-1.3,0.2-2,0.3c-0.7,0.1-1.4,0.3-2.1,0.4c-0.7,0.2-1.4,0.3-2,0.5c-0.7,0.2-1.3,0.3-2,0.5c-0.6,0.2-1.3,0.4-1.8,0.5
			c-0.6,0.2-1.1,0.3-1.6,0.5c-1,0.3-1.9,0.6-2.5,0.8c-0.6,0.2-0.9,0.3-0.9,0.3s1.2-0.9,3.1-1.8c0.5-0.2,1-0.5,1.6-0.7
			c0.6-0.2,1.2-0.5,1.8-0.7c0.6-0.2,1.3-0.4,2-0.6c0.7-0.2,1.4-0.4,2.1-0.5c0.7-0.1,1.4-0.3,2.1-0.4c0.7-0.1,1.4-0.2,2.1-0.2
			c0.7,0,1.3-0.1,2,0c0.6,0.1,1.2,0.1,1.8,0.2c0.5,0.1,1,0.2,1.5,0.3c0.4,0.1,0.8,0.2,1.1,0.3C65.1,136.9,65.2,136.9,65.3,137z
			 M48.8,121.3c0,0-0.3-0.2-0.8-0.6c-0.3-0.2-0.6-0.4-0.9-0.7c-0.3-0.3-0.7-0.6-1.1-1c-0.4-0.4-0.8-0.8-1.2-1.3
			c-0.4-0.5-0.8-1-1.2-1.6c-0.4-0.6-0.7-1.2-1.1-1.8c-0.3-0.6-0.7-1.3-1-1.9c-0.3-0.7-0.6-1.3-0.8-2c-0.2-0.7-0.5-1.3-0.7-2
			c-0.2-0.6-0.4-1.3-0.5-1.9c-0.2-0.6-0.2-1.2-0.4-1.7c-0.4-2.1-0.4-3.6-0.4-3.6s0.1,0.3,0.3,0.9c0.2,0.6,0.5,1.4,0.8,2.5
			c0.2,0.5,0.4,1,0.6,1.6c0.2,0.6,0.4,1.2,0.7,1.8c0.2,0.6,0.5,1.3,0.7,1.9c0.2,0.6,0.6,1.3,0.8,1.9c0.3,0.6,0.6,1.3,0.9,1.9
			c0.3,0.6,0.6,1.2,1,1.8c0.4,0.6,0.6,1.1,1,1.6c0.3,0.5,0.6,1,1,1.4c0.3,0.4,0.6,0.8,0.9,1.1c0.3,0.3,0.5,0.6,0.7,0.8
			C48.6,121.1,48.8,121.3,48.8,121.3z M43.7,119.6c-0.7-0.3-1.4-0.6-2.1-0.9c0.5,0,1.1,0,1.8-0.2C43.4,118.5,43.4,119,43.7,119.6z
			 M42.8,120.8c0,0,0.1,0,0.1,0.1c-0.2,0.1-0.4,0.1-0.7,0.2c-0.3,0.1-0.7,0.2-1.1,0.3c-0.4,0.2-0.9,0.3-1.3,0.5
			c-0.5,0.2-1,0.5-1.5,0.7c-0.6,0.2-1.1,0.6-1.7,0.9c-0.6,0.3-1.1,0.7-1.7,1c-0.6,0.4-1.2,0.8-1.7,1.2c-0.6,0.4-1.2,0.8-1.7,1.2
			c-0.5,0.4-1.1,0.8-1.6,1.2c-0.5,0.4-1,0.8-1.5,1.2c-0.5,0.4-0.9,0.8-1.3,1.1c-0.8,0.7-1.5,1.3-2,1.7c-0.5,0.4-0.7,0.7-0.7,0.7
			s0.7-1.2,2.2-2.9c0.4-0.4,0.7-0.9,1.2-1.3c0.4-0.4,0.9-0.9,1.4-1.4c0.5-0.5,1-0.9,1.6-1.4c0.6-0.5,1.2-0.9,1.7-1.3
			c0.6-0.4,1.2-0.8,1.8-1.2c0.6-0.3,1.2-0.7,1.9-1c0.6-0.3,1.2-0.6,1.8-0.8c0.6-0.2,1.2-0.4,1.7-0.5c0.5-0.1,1-0.2,1.5-0.3
			c0.4-0.1,0.8-0.1,1.1-0.1C42.4,120.8,42.6,120.8,42.8,120.8z M7.1,107.6c0,0,1.4-0.1,3.6,0c0.5,0.1,1.1,0.1,1.7,0.2
			c0.6,0.1,1.3,0.2,1.9,0.3c0.7,0.1,1.4,0.3,2,0.5c0.7,0.2,1.4,0.4,2.1,0.6c0.7,0.3,1.4,0.5,2,0.8c0.7,0.3,1.3,0.6,1.9,0.9
			c0.6,0.3,1.2,0.6,1.7,1c0.5,0.4,1,0.7,1.4,1c0.4,0.4,0.8,0.7,1.1,1c0.1,0,0.1,0.1,0.1,0.1c-0.4-0.1-0.9-0.2-1.3-0.3
			c-0.1-0.1-0.2-0.1-0.4-0.2c-0.5-0.3-1-0.5-1.5-0.8c-0.5-0.3-1.1-0.5-1.7-0.8c-0.6-0.3-1.2-0.5-1.9-0.8c-0.6-0.2-1.3-0.5-2-0.7
			c-0.7-0.2-1.3-0.5-2-0.6c-0.7-0.2-1.3-0.4-2-0.6c-0.6-0.2-1.3-0.3-1.9-0.5c-0.6-0.1-1.2-0.3-1.7-0.4c-1-0.2-1.9-0.4-2.5-0.6
			C7.4,107.7,7.1,107.6,7.1,107.6z"/>
		<path class="st1" d="M16.8,70.1c-1,2.3,2.6,0.8,4.9-0.4C20.5,70.7,21,72,21,72c-0.2,2,2.1,0.9,2.1,0.9c0.4,3.8,7.2-2.3,7.2-2.3
			c0.4,4.3,7.2-2.9,7.2-2.9c0-0.2,0-0.4-0.1-0.6c2.5,4.2,4.3,8.3,5.6,12.3c-0.1,0.6,0.1,1.2,0.6,1.9c0.4,1.3,0.7,2.5,0.9,3.7
			c-0.7-0.3-1.3-0.3-1.3-0.3c0.8-5.1-3.3-4.5-3.3-4.5c-3.3-5.8-5.2-1.9-5.2-1.9c-7.4-4-6.3,0.8-6.3,0.8c-10.4-0.7-2.3,4.6-2.3,4.6
			c-1.8,1.7,2.1,1.7,4.6,1.5c-1.5,0.5-1.5,1.9-1.5,1.9c-0.9,1.8,1.5,1.6,1.5,1.6c-1.1,3.6,7.5,0.6,7.5,0.6c-1,3.4,4.8,1.3,7,0.5
			c1.3,10.5-0.8,17.8-0.9,17.9l1.2,0.3c0-0.2,2.3-8.2,0.7-19.5c0.2-1.1,0-1.9-0.4-2.5c-0.2-1.2-0.5-2.4-0.8-3.6
			c1.1-0.3,9.2-2.8,5.8-5c0,0,8.6-3.2,5.4-5.3c0,0,2-1.5,0.1-2.3c0,0-0.9-1-2.4-0.4c2.1-1.5,5.1-4,2.6-4.1c0,0,2.8-9.2-4.7-2.1
			c0,0-2.2-4.4-5.3,3.4c0,0-3.9-1.8-2.8,4.7c0,0-1.9,1.2-1.3,3.2c-0.8-1.9-1.7-3.9-2.8-5.8c0.2,0.1,0.4,0.1,0.6,0.2
			c0,0,8.2-5.6,4-6.7c0,0,7.1-5.8,3.4-6.8c0,0,1.4-2-0.6-2.2c0,0-1.2-0.6-2.4,0.3c1.5-2.1,3.6-5.4,1.1-4.7c0,0-0.3-9.6-5.1-0.4
			c0,0-3.5-3.4-3.9,4.9c0,0-4.3-0.5-1.1,5.4c0,0-1,1.3-0.6,2.7c-1.3-1.8-2.8-3.5-4.4-5.3c2.4-2.7-0.7-5-0.7-5c3.2-4-0.6-5.6-0.6-5.6
			c0.1-6.7-3.5-4.2-3.5-4.2c-4.3-7.2-5.8-2.5-5.8-2.5c-8.6-5.9-4.3,2.8-4.3,2.8c-2.5,0.6,0.9,2.5,3.2,3.7c-1.5-0.3-2.3,0.8-2.3,0.8
			c-1.7,1.1,0.5,2.2,0.5,2.2c-2.8,2.6,6.2,4.4,6.2,4.4c-2.8,2.5,4.3,3.7,6.2,4c2.4,2.6,4.5,5.2,6.2,7.9c-1.3-0.6-2.9-0.1-2.9-0.1
			c-1.3-5-4.8-2.9-4.8-2.9c-5.3-4.1-5.5,0.2-5.5,0.2c-8.3-0.8-5.5,3.1-5.5,3.1C7.3,68.3,16.8,70.1,16.8,70.1z M29.8,55.2
			c-0.2-0.2-0.3-0.3-0.5-0.5c0,0,0-0.1,0-0.1c-0.2-0.3-0.3-0.7-0.5-1.1c-0.2-0.4-0.4-0.8-0.7-1.2c-0.2-0.4-0.5-0.9-0.8-1.3
			c-0.3-0.5-0.6-0.9-0.9-1.4c-0.3-0.5-0.7-0.9-1-1.4c-0.4-0.5-0.7-0.9-1.1-1.3c-0.4-0.4-0.7-0.9-1.1-1.3c-0.4-0.4-0.7-0.8-1-1.2
			c-0.3-0.4-0.7-0.7-1-1c-0.6-0.6-1.1-1.2-1.5-1.5c-0.4-0.4-0.6-0.6-0.6-0.6s1.1,0.6,2.5,1.7c0.3,0.3,0.7,0.6,1.1,0.9
			c0.4,0.3,0.8,0.7,1.2,1.1c0.4,0.4,0.8,0.8,1.2,1.2c0.4,0.4,0.8,0.9,1.1,1.4c0.3,0.5,0.7,1,1,1.5c0.3,0.5,0.6,1,0.9,1.5
			c0.3,0.5,0.5,1,0.7,1.5c0.2,0.5,0.4,0.9,0.5,1.4c0.1,0.4,0.2,0.8,0.3,1.2C29.7,54.7,29.7,54.9,29.8,55.2z M39.2,65.4
			C39.1,65,39.1,64.5,39,64C39,63.5,39,63,39,62.4c0-0.6,0-1.1,0.1-1.7c0.1-0.6,0.1-1.2,0.2-1.8c0.1-0.6,0.2-1.2,0.4-1.7
			c0.1-0.6,0.3-1.1,0.5-1.7c0.2-0.5,0.3-1,0.5-1.5c0.2-0.5,0.4-0.9,0.5-1.3c0.7-1.6,1.4-2.6,1.4-2.6s-0.1,0.3-0.2,0.8
			c-0.1,0.5-0.3,1.2-0.6,2c-0.1,0.4-0.2,0.9-0.4,1.4c-0.1,0.5-0.2,1-0.4,1.5c-0.1,0.5-0.2,1.1-0.4,1.6c-0.1,0.6-0.2,1.1-0.3,1.7
			c-0.1,0.6-0.2,1.1-0.3,1.7c0,0.6-0.1,1.1-0.2,1.7c0,0.5-0.1,1.1-0.1,1.6c0,0.5,0,1,0,1.4c0,0.4,0.1,0.8,0.1,1.2
			c0,0.4,0.1,0.7,0.1,0.9c0.1,0.5,0.1,0.8,0.1,0.8S40,68,39.8,67.5c-0.1-0.2-0.2-0.5-0.3-0.9C39.4,66.3,39.3,65.9,39.2,65.4z
			 M37.4,64.8c-0.4-0.7-0.9-1.3-1.3-2c0.4,0.3,0.9,0.7,1.7,1C37.7,63.9,37.5,64.3,37.4,64.8z M45,81.8c0,0,0-0.3,0-0.8
			c0-0.3,0-0.6,0-0.9c0-0.4,0.1-0.8,0.1-1.2c0.1-0.4,0.2-0.9,0.3-1.4c0.1-0.5,0.3-1,0.5-1.6c0.2-0.5,0.4-1.1,0.6-1.6
			c0.2-0.5,0.5-1.1,0.8-1.6c0.3-0.5,0.6-1,0.9-1.5c0.3-0.5,0.6-1,1-1.4c0.3-0.5,0.7-0.9,1-1.3c0.3-0.4,0.6-0.8,0.9-1.1
			c1.2-1.3,2.2-2,2.2-2S53,65.6,52.7,66c-0.3,0.4-0.7,1-1.2,1.8c-0.2,0.4-0.5,0.8-0.8,1.2c-0.3,0.4-0.6,0.9-0.8,1.3
			c-0.3,0.5-0.6,0.9-0.9,1.4c-0.3,0.5-0.6,1-0.8,1.5c-0.3,0.5-0.5,1-0.8,1.5c-0.2,0.5-0.5,1-0.7,1.5c-0.2,0.5-0.4,1-0.6,1.4
			c-0.1,0.5-0.3,0.9-0.4,1.3c-0.1,0.4-0.2,0.8-0.3,1.1c-0.1,0.3-0.1,0.6-0.2,0.9C45.1,81.6,45,81.8,45,81.8z M44.6,87.6
			c0.2,0.2,0.3,0.4,0.4,0.5c0,0.1,0,0.3,0.1,0.4c0,0,0,0-0.1,0c-0.2-0.2-0.4-0.4-0.7-0.6c-0.3-0.2-0.6-0.4-1-0.7
			c-0.4-0.2-0.8-0.5-1.2-0.7c-0.4-0.3-0.9-0.5-1.4-0.7c-0.5-0.3-1-0.5-1.5-0.7c-0.5-0.2-1.1-0.5-1.6-0.7c-0.5-0.2-1.1-0.4-1.6-0.6
			c-0.5-0.2-1.1-0.4-1.6-0.5c-0.5-0.2-1-0.3-1.5-0.5c-0.5-0.1-0.9-0.3-1.4-0.4c-0.8-0.2-1.6-0.4-2-0.6c-0.5-0.1-0.8-0.2-0.8-0.2
			s1.2-0.1,3,0.2c0.4,0.1,0.9,0.1,1.4,0.2c0.5,0.1,1,0.2,1.6,0.3c0.5,0.1,1.1,0.3,1.7,0.5c0.6,0.2,1.1,0.4,1.7,0.6
			c0.5,0.2,1.1,0.5,1.6,0.7c0.5,0.3,1,0.5,1.5,0.8c0.5,0.3,0.9,0.6,1.3,0.9c0.4,0.3,0.8,0.6,1.1,0.9C44,87,44.3,87.3,44.6,87.6z
			 M43.6,77.6c-0.3-0.8-0.6-1.6-0.9-2.4c0.3,0.5,0.7,1.1,1.4,1.8C44.2,76.9,43.9,77.1,43.6,77.6z M18.5,67c0,0,1.1-0.5,2.8-1
			c0.4-0.1,0.9-0.2,1.4-0.3c0.5-0.1,1-0.2,1.6-0.3c0.5-0.1,1.1-0.2,1.7-0.2c0.6-0.1,1.2-0.1,1.8-0.1c0.6,0,1.2,0,1.8,0
			c0.6,0.1,1.2,0.1,1.7,0.2c0.6,0.1,1.1,0.2,1.6,0.3c0.5,0.1,1,0.3,1.4,0.4c0.4,0.2,0.8,0.3,1.1,0.5c0.3,0.1,0.6,0.3,0.8,0.4
			c0.4,0.3,0.7,0.4,0.7,0.4s-0.3-0.1-0.8-0.2c-0.2-0.1-0.5-0.2-0.9-0.3c-0.3-0.1-0.7-0.2-1.2-0.3c-0.4-0.1-0.9-0.1-1.4-0.2
			c-0.5-0.1-1-0.1-1.5-0.2c-0.5-0.1-1.1,0-1.7-0.1c-0.6,0-1.1,0-1.7,0c-0.6,0-1.2,0-1.7,0.1c-0.6,0-1.1,0-1.7,0.1
			c-0.5,0-1.1,0.1-1.6,0.1c-0.5,0.1-1,0.1-1.4,0.1c-0.9,0.1-1.6,0.2-2.1,0.3C18.8,67,18.5,67,18.5,67z"/>
		<path class="st1" d="M43.2,59.6l0.6,0.7c0.1-0.1,4.9-4.6,8.4-12.8c0.6-0.7,0.8-1.3,0.7-1.9c0.3-0.9,0.6-1.8,0.9-2.8
			c0.8,0.2,7.3,1.8,5.9-1.1c0,0,7.1,1.3,5.8-1.4c0,0,1.9-0.2,1-1.5c0,0-0.2-1-1.4-1.3c2-0.2,5.1-0.6,3.4-1.7c0,0,5.6-5.1-2.4-3.3
			c0,0,0.3-3.8-5,0.2c0,0-1.9-2.8-3.8,2.1c0,0-1.8,0-2.2,1.6c0.2-1.6,0.4-3.3,0.5-5.1c0.1,0.1,0.2,0.2,0.3,0.3c0,0,7.8-0.5,5.4-2.9
			c0,0,7.2-1.1,5-3.2c0,0,1.7-0.8,0.5-1.7c0,0-0.5-0.9-1.8-0.7c1.9-0.8,4.6-2.2,2.7-2.8c0,0,3.7-6.6-3.3-2.4c0,0-1-3.7-4.6,1.7
			c0,0-2.7-2.1-2.9,3.2c0,0-1.2,0.4-1.5,1.6c-0.2-1.7-0.4-3.5-0.8-5.3c2.7-0.8,1.5-3.7,1.5-3.7c3.8-1.4,1.9-4,1.9-4
			c2.8-4.5-0.6-4.3-0.6-4.3c0-6.6-2.9-4-2.9-4c-3.5-7.4-4.1,0.1-4.1,0.1c-1.9-0.6-0.4,2.1,0.7,3.8c-0.9-0.8-1.9-0.4-1.9-0.4
			c-1.6,0-0.6,1.7-0.6,1.7c-2.9,0.6,2.4,5.4,2.4,5.4c-2.9,0.6,1.4,4.2,2.6,5.2c0.6,2.7,0.9,5.4,1,7.8c-0.6-0.9-1.9-1.2-1.9-1.2
			c1.1-3.9-2.1-3.9-2.1-3.9c-1.9-4.9-3.8-2-3.8-2c-5.3-3.9-5-0.1-5-0.1c-8-1.7-2.3,3.3-2.3,3.3c-1.6,1.1,1.4,1.6,3.4,1.7
			C41.9,25,41.7,26,41.7,26c-0.9,1.3,1,1.5,1,1.5c-1.3,2.7,5.8,1.3,5.8,1.3c-1.5,3.1,6,1,6,1c0.1-0.2,0.2-0.3,0.2-0.5
			c0,3.9-0.4,7.4-1.2,10.5c-0.3,0.4-0.4,0.9-0.4,1.5c-0.3,1-0.6,2-0.9,2.9c-0.4-0.5-0.7-0.8-0.7-0.8c2.6-3.1-0.4-4.4-0.4-4.4
			c0.1-5.3-2.7-3.4-2.7-3.4c-3.4-5.7-4.5-2-4.5-2c-6.8-4.7-3.4,2.2-3.4,2.2c-1.9,0.4,0.7,2,2.5,2.9c-1.2-0.2-1.8,0.6-1.8,0.6
			c-1.3,0.8,0.4,1.7,0.4,1.7c-2.2,2,4.8,3.5,4.8,3.5c-2.1,1.9,2.7,2.8,4.5,3.1C47.6,55.4,43.2,59.5,43.2,59.6z M54.3,29.4
			c0,0-0.2-0.2-0.4-0.5c-0.1-0.1-0.3-0.3-0.5-0.5c-0.2-0.2-0.4-0.4-0.7-0.6c-0.2-0.2-0.6-0.4-0.8-0.7c-0.3-0.3-0.6-0.5-1-0.7
			c-0.3-0.3-0.7-0.5-1.1-0.7c-0.4-0.2-0.8-0.5-1.2-0.7c-0.4-0.2-0.8-0.5-1.2-0.7c-0.4-0.2-0.8-0.4-1.2-0.6c-0.4-0.2-0.8-0.4-1.1-0.5
			c-0.4-0.2-0.7-0.3-1-0.5c-0.6-0.3-1.2-0.5-1.5-0.7c-0.4-0.2-0.6-0.3-0.6-0.3s0.9,0.1,2.3,0.5c0.3,0.1,0.7,0.2,1.1,0.3
			c0.4,0.1,0.8,0.3,1.2,0.4c0.4,0.2,0.8,0.3,1.2,0.6c0.4,0.2,0.8,0.4,1.2,0.7c0.4,0.2,0.8,0.5,1.2,0.8c0.4,0.3,0.7,0.5,1.1,0.8
			c0.3,0.3,0.7,0.6,0.9,0.9c0.3,0.3,0.6,0.6,0.8,0.8c0.2,0.3,0.4,0.5,0.6,0.8c0.2,0.2,0.3,0.5,0.4,0.6
			C54.2,29.2,54.3,29.4,54.3,29.4z M51.5,46.6c0,0.1-0.1,0.2-0.1,0.3c0,0,0,0,0-0.1c-0.1-0.2-0.1-0.4-0.3-0.7
			c-0.1-0.3-0.2-0.5-0.4-0.9c-0.1-0.3-0.3-0.6-0.5-1c-0.2-0.3-0.4-0.7-0.6-1.1c-0.2-0.4-0.5-0.7-0.7-1.1c-0.3-0.4-0.5-0.7-0.8-1.1
			c-0.3-0.4-0.5-0.7-0.8-1.1c-0.3-0.3-0.6-0.7-0.8-1c-0.3-0.3-0.6-0.6-0.8-0.9c-0.3-0.3-0.5-0.6-0.7-0.8c-0.5-0.5-0.9-0.9-1.1-1.2
			c-0.3-0.3-0.4-0.5-0.4-0.5s0.8,0.4,1.9,1.3c0.3,0.2,0.6,0.5,0.9,0.7c0.3,0.3,0.6,0.5,0.9,0.9c0.3,0.3,0.6,0.6,0.9,1
			c0.3,0.3,0.6,0.7,0.9,1.1c0.3,0.4,0.5,0.8,0.8,1.2c0.2,0.4,0.5,0.8,0.7,1.2c0.2,0.4,0.4,0.8,0.5,1.2c0.1,0.4,0.3,0.7,0.4,1.1
			c0.1,0.3,0.2,0.7,0.2,0.9C51.4,46.3,51.5,46.5,51.5,46.6z M54.4,18.2c0-0.2-0.1-0.3-0.1-0.5c0,0,0-0.1,0-0.1
			c0-0.3,0.1-0.6,0.1-0.9c0-0.3,0-0.7,0.1-1.1c0-0.4,0-0.8,0-1.2c0-0.4-0.1-0.9-0.1-1.3c0-0.4-0.1-0.9-0.1-1.3
			c-0.1-0.5-0.1-0.9-0.2-1.3C54,9.9,54,9.5,53.9,9.1c-0.1-0.4-0.2-0.8-0.2-1.2c-0.1-0.4-0.2-0.8-0.2-1.1c-0.2-0.7-0.3-1.2-0.4-1.6
			c-0.1-0.4-0.1-0.6-0.1-0.6s0.5,0.8,1,2.1c0.1,0.3,0.3,0.7,0.4,1.1c0.1,0.4,0.3,0.8,0.4,1.2c0.1,0.4,0.2,0.9,0.3,1.3
			c0.1,0.5,0.1,0.9,0.2,1.4c0,0.5,0.1,0.9,0.1,1.4c0,0.5,0,0.9,0,1.4c0,0.4,0,0.9-0.1,1.3c-0.1,0.4-0.1,0.8-0.2,1.1
			c-0.1,0.3-0.2,0.7-0.3,0.9C54.6,17.9,54.5,18.1,54.4,18.2z M56.2,31.3c0,0,0-0.2,0.1-0.6c0-0.2,0.1-0.5,0.1-0.7
			c0.1-0.3,0.2-0.6,0.3-0.9c0.1-0.3,0.3-0.7,0.4-1c0.2-0.4,0.4-0.7,0.6-1.1c0.2-0.4,0.5-0.8,0.8-1.1c0.3-0.4,0.6-0.7,0.9-1.1
			c0.3-0.3,0.6-0.7,0.9-1c0.3-0.3,0.7-0.6,1-0.9c0.3-0.3,0.7-0.6,1-0.8c0.3-0.3,0.6-0.5,0.9-0.7c1.1-0.8,2-1.2,2-1.2
			s-0.2,0.2-0.5,0.4c-0.3,0.3-0.7,0.7-1.2,1.1c-0.2,0.2-0.5,0.5-0.8,0.8c-0.3,0.3-0.6,0.6-0.9,0.9c-0.3,0.3-0.6,0.6-0.9,1
			c-0.3,0.3-0.6,0.7-0.9,1c-0.3,0.3-0.6,0.7-0.9,1c-0.3,0.4-0.5,0.7-0.8,1.1c-0.2,0.4-0.5,0.7-0.7,1c-0.2,0.3-0.4,0.6-0.6,0.9
			c-0.1,0.3-0.3,0.6-0.4,0.8c-0.1,0.2-0.2,0.5-0.3,0.7C56.3,31,56.2,31.3,56.2,31.3z M55.7,27.8c0-0.6-0.1-1.2-0.1-1.9
			c0.1,0.4,0.4,0.8,0.7,1.3C56.3,27.3,56,27.5,55.7,27.8z M54,42.4c0,0,0.1-0.2,0.3-0.6c0.1-0.2,0.2-0.4,0.4-0.6
			c0.2-0.2,0.4-0.5,0.6-0.8c0.2-0.3,0.5-0.6,0.8-0.9c0.3-0.3,0.6-0.6,0.9-0.9c0.3-0.3,0.7-0.6,1.1-0.8c0.4-0.3,0.8-0.5,1.2-0.8
			c0.4-0.2,0.8-0.5,1.2-0.7c0.4-0.2,0.8-0.4,1.2-0.6c0.4-0.2,0.8-0.3,1.2-0.5c0.4-0.1,0.7-0.2,1.1-0.4c1.3-0.4,2.3-0.5,2.3-0.5
			s-0.2,0.1-0.6,0.3c-0.4,0.2-0.9,0.4-1.5,0.7c-0.3,0.2-0.6,0.3-1,0.5c-0.4,0.2-0.7,0.4-1.1,0.6c-0.4,0.2-0.8,0.4-1.2,0.6
			c-0.4,0.2-0.8,0.4-1.2,0.7c-0.4,0.2-0.8,0.5-1.1,0.7c-0.4,0.3-0.7,0.5-1.1,0.7c-0.3,0.3-0.7,0.5-1,0.7c-0.3,0.3-0.6,0.5-0.8,0.7
			c-0.2,0.2-0.5,0.5-0.7,0.6c-0.2,0.2-0.3,0.4-0.5,0.5C54.2,42.2,54,42.4,54,42.4z M54.8,38.9c0.1-0.7,0.3-1.3,0.4-2
			c0,0.5,0,1.1,0.3,1.8C55.4,38.7,55.1,38.8,54.8,38.9z"/>
	</g>
</g>
</svg>
