<svg xmlns="http://www.w3.org/2000/svg" viewBox="0 0 125.86 120.78"><title>Ресурс 9</title><g id="Слой_2" data-name="Слой 2"><g id="Objects"><path d="M47,120.78a11.23,11.23,0,0,1-3.5-.53c-4.08-1.33-6.69-4.83-9.22-8.23a25.83,25.83,0,0,0-4.87-5.46,26.16,26.16,0,0,0-6.79-3c-4-1.36-8.09-2.76-10.58-6.18s-2.53-7.71-2.6-11.89A26.57,26.57,0,0,0,8.64,78,25.35,25.35,0,0,0,5,71.83c-2.46-3.48-5-7.07-5-11.44s2.55-8,5-11.44a25.34,25.34,0,0,0,3.63-6.2,26.61,26.61,0,0,0,.78-7.46c.07-4.18.14-8.51,2.6-11.89s6.6-4.82,10.58-6.18a26.14,26.14,0,0,0,6.78-3,25.82,25.82,0,0,0,4.87-5.46c2.53-3.39,5.15-6.9,9.22-8.23,3.91-1.27,8,0,12,1.21a26.94,26.94,0,0,0,7.48,1.59,26.94,26.94,0,0,0,7.49-1.59c4-1.22,8.06-2.48,12-1.21,4.08,1.32,6.69,4.83,9.22,8.23a25.84,25.84,0,0,0,4.87,5.46,26.15,26.15,0,0,0,6.79,3c4,1.36,8.09,2.76,10.58,6.18s2.53,7.71,2.6,11.89a26.54,26.54,0,0,0,.78,7.46,25.34,25.34,0,0,0,3.63,6.2c2.46,3.48,5,7.07,5,11.44s-2.55,8-5,11.44a25.36,25.36,0,0,0-3.63,6.2,26.56,26.56,0,0,0-.78,7.46c-.07,4.18-.14,8.51-2.6,11.89s-6.6,4.82-10.58,6.18a26.17,26.17,0,0,0-6.78,3A25.86,25.86,0,0,0,91.6,112c-2.53,3.39-5.14,6.9-9.22,8.23-3.91,1.27-8,0-12-1.21a26.94,26.94,0,0,0-7.49-1.59A27,27,0,0,0,55.44,119,29.64,29.64,0,0,1,47,120.78ZM47,4.41a6.92,6.92,0,0,0-2.15.31c-2.75.89-4.84,3.7-7.05,6.67A29.32,29.32,0,0,1,32,17.78a29.63,29.63,0,0,1-8,3.61c-3.48,1.19-6.77,2.31-8.44,4.6s-1.7,5.71-1.76,9.37a30.09,30.09,0,0,1-1,8.75A28.77,28.77,0,0,1,8.61,51.5c-2.16,3-4.2,5.93-4.2,8.89s2,5.84,4.2,8.89a28.79,28.79,0,0,1,4.22,7.39,30.08,30.08,0,0,1,1,8.75c.06,3.66.11,7.12,1.76,9.37s5,3.41,8.44,4.6A29.65,29.65,0,0,1,32,103a29.29,29.29,0,0,1,5.81,6.39c2.22,3,4.31,5.78,7.05,6.67,2.58.84,5.85-.17,9.31-1.23a30.49,30.49,0,0,1,8.78-1.78,30.48,30.48,0,0,1,8.78,1.78c3.46,1.06,6.73,2.07,9.31,1.23,2.75-.89,4.84-3.7,7.05-6.67A29.32,29.32,0,0,1,93.88,103a29.64,29.64,0,0,1,8-3.61c3.48-1.19,6.77-2.31,8.44-4.6s1.7-5.71,1.76-9.37a30.07,30.07,0,0,1,1-8.75,28.8,28.8,0,0,1,4.22-7.39c2.16-3,4.2-5.92,4.2-8.89s-2-5.84-4.2-8.89A28.78,28.78,0,0,1,113,44.11a30.06,30.06,0,0,1-1-8.75c-.06-3.66-.11-7.11-1.76-9.37s-5-3.41-8.44-4.6a29.64,29.64,0,0,1-8-3.61,29.29,29.29,0,0,1-5.81-6.39c-2.21-3-4.31-5.78-7.05-6.67-2.58-.84-5.85.16-9.31,1.23a30.48,30.48,0,0,1-8.78,1.78,30.47,30.47,0,0,1-8.78-1.78A26.27,26.27,0,0,0,47,4.41Z" fill="#a1944c"/><path d="M76.64,111.36a1.1,1.1,0,0,1,0-2.2l.32,0a1.1,1.1,0,0,1,.16,2.2l-.42,0Zm-27.75,0h-.07l-.42,0a1.1,1.1,0,0,1,.25-2.19l.32,0a1.1,1.1,0,0,1-.07,2.2Zm4.38-.55a1.1,1.1,0,0,1-.28-2.17l.34-.09a1.1,1.1,0,0,1,.58,2.12l-.37.1A1.1,1.1,0,0,1,53.27,110.8Zm19-.09a1.1,1.1,0,0,1-.29,0l-.37-.1a1.1,1.1,0,1,1,.6-2.12l.35.1a1.1,1.1,0,0,1-.29,2.16Zm8.81-1a1.1,1.1,0,0,1-.67-2l.26-.21a1.1,1.1,0,1,1,1.39,1.71l-.32.25A1.1,1.1,0,0,1,81.08,109.76Zm-36.56-.2a1.1,1.1,0,0,1-.69-.24l-.31-.26A1.1,1.1,0,0,1,45,107.38l.26.22a1.1,1.1,0,0,1-.69,2Zm13.35-.14a1.1,1.1,0,0,1-.31-2.16l.37-.11a1.1,1.1,0,0,1,.6,2.12l-.34.1A1.1,1.1,0,0,1,57.87,109.42Zm9.8-.09a1.1,1.1,0,0,1-.3,0l-.35-.1a1.1,1.1,0,0,1,.58-2.12l.37.1a1.1,1.1,0,0,1-.3,2.16Zm-5.09-.8a1.1,1.1,0,0,1,0-2.2h.39a1.11,1.11,0,0,1,1.11,1.1,1.09,1.09,0,0,1-1.09,1.1h-.37Zm21.8-2.24a1.1,1.1,0,0,1-.88-1.77l.22-.29a1.1,1.1,0,1,1,1.75,1.33l-.22.3A1.1,1.1,0,0,1,84.37,106.28ZM41.28,106a1.1,1.1,0,0,1-.88-.44l-.22-.3A1.1,1.1,0,1,1,41.94,104l.22.29a1.1,1.1,0,0,1-.88,1.76Zm46-3.58a1.1,1.1,0,0,1-.86-1.79l.24-.3a1.1,1.1,0,0,1,1.71,1.39l-.22.28A1.1,1.1,0,0,1,87.25,102.44Zm-48.86-.26a1.1,1.1,0,0,1-.85-.4l-.22-.27A1.1,1.1,0,0,1,39,100.09l.25.3a1.1,1.1,0,0,1-.85,1.8Zm52.31-3.05a1.1,1.1,0,0,1-.59-2l.34-.21a1.1,1.1,0,0,1,1.13,1.89L91.3,99A1.1,1.1,0,0,1,90.71,99.13ZM34.87,99a1.1,1.1,0,0,1-.57-.16L34,98.63a1.1,1.1,0,0,1,1.08-1.92l.34.2a1.1,1.1,0,0,1-.57,2Zm60.2-1.81A1.1,1.1,0,0,1,94.7,95l.35-.13A1.1,1.1,0,1,1,95.79,97l-.34.12A1.1,1.1,0,0,1,95.07,97.15ZM30.47,97a1.1,1.1,0,0,1-.37-.06l-.34-.12a1.1,1.1,0,1,1,.72-2.08l.35.12A1.1,1.1,0,0,1,30.47,97ZM99.59,95.5a1.1,1.1,0,0,1-.43-2.12l.32-.14a1.1,1.1,0,1,1,.89,2l-.35.15A1.1,1.1,0,0,1,99.59,95.5ZM26,95.37a1.1,1.1,0,0,1-.44-.09l-.36-.16a1.1,1.1,0,0,1,.93-2l.31.14A1.1,1.1,0,0,1,26,95.37Zm77.65-2.42a1.1,1.1,0,0,1-.79-1.87l.22-.23a1.1,1.1,0,0,1,1.65,1.46l-.28.31A1.1,1.1,0,0,1,103.62,92.95ZM22,92.71a1.1,1.1,0,0,1-.82-.37L20.92,92a1.1,1.1,0,0,1,1.71-1.39l.21.24A1.1,1.1,0,0,1,22,92.71Zm83.72-4-.23,0a1.1,1.1,0,0,1-.85-1.3l.07-.34a1.1,1.1,0,0,1,2.17.4l-.08.39A1.1,1.1,0,0,1,105.74,88.72ZM20.05,88.4A1.1,1.1,0,0,1,19,87.5l-.07-.39a1.1,1.1,0,0,1,2.17-.36l.06.34a1.1,1.1,0,0,1-.88,1.28Zm86.11-4.46h0a1.1,1.1,0,0,1-1.08-1.13v-.36a1.1,1.1,0,0,1,1.1-1.08h0a1.1,1.1,0,0,1,1.08,1.12v.38A1.1,1.1,0,0,1,106.16,83.94Zm-86.47-.33a1.1,1.1,0,0,1-1.1-1.08v-.38a1.1,1.1,0,0,1,2.2,0v.36a1.1,1.1,0,0,1-1.08,1.12Zm86.64-4.48h-.11a1.1,1.1,0,0,1-1-1.2l0-.38a1.1,1.1,0,1,1,2.19.24l0,.35A1.1,1.1,0,0,1,106.33,79.14Zm-86.85-.32a1.1,1.1,0,0,1-1.09-1l0-.35a1.1,1.1,0,1,1,2.19-.27l0,.38a1.1,1.1,0,0,1-1,1.22Zm88-4.3a1.1,1.1,0,0,1-1-1.59l.18-.35a1.1,1.1,0,0,1,2,1l-.16.31A1.1,1.1,0,0,1,107.53,74.51Zm-89.36-.29a1.1,1.1,0,0,1-1-.6L17,73.32a1.1,1.1,0,0,1,1.94-1l.18.35a1.1,1.1,0,0,1-1,1.6Zm91.89-3.79a1.1,1.1,0,0,1-.9-1.74l.21-.3a1.1,1.1,0,0,1,1.81,1.26L111,70A1.1,1.1,0,0,1,110.07,70.44ZM15.6,70.17a1.1,1.1,0,0,1-.9-.47l-.21-.3a1.1,1.1,0,1,1,1.8-1.27l.21.31a1.1,1.1,0,0,1-.9,1.73Zm97.08-3.77a1.1,1.1,0,0,1-1-1.63l.16-.3a1.1,1.1,0,0,1,2,1l-.19.35A1.1,1.1,0,0,1,112.68,66.4ZM13,66.12a1.1,1.1,0,0,1-1-.6l-.18-.35a1.1,1.1,0,0,1,2-1l.15.31a1.1,1.1,0,0,1-1,1.61ZM114.1,61.86H114a1.1,1.1,0,0,1-1-1.16c0-.1,0-.21,0-.31V60.3a1.1,1.1,0,1,1,2.2,0v.06c0,.17,0,.31,0,.45A1.1,1.1,0,0,1,114.1,61.86ZM11.74,61.52a1.08,1.08,0,0,1-1.1-1.08v0q0-.19,0-.38a1.09,1.09,0,0,1,1.15-1,1.1,1.1,0,0,1,1,1.15c0,.09,0,.18,0,.27A1.12,1.12,0,0,1,11.74,61.52ZM113,57.16a1.1,1.1,0,0,1-1-.62l-.15-.3a1.1,1.1,0,1,1,2-1l.18.36a1.1,1.1,0,0,1-1,1.59ZM13,57a1.1,1.1,0,0,1-1-1.6l.18-.35a1.1,1.1,0,0,1,1.94,1l-.16.31A1.1,1.1,0,0,1,13,57Zm97.46-3.87a1.1,1.1,0,0,1-.9-.47l-.21-.31A1.1,1.1,0,1,1,111.14,51l.21.3a1.1,1.1,0,0,1-.9,1.73Zm-94.9-.19a1.1,1.1,0,0,1-.9-1.73l.21-.31a1.1,1.1,0,1,1,1.8,1.27l-.21.3A1.1,1.1,0,0,1,15.55,52.89Zm92.29-3.84a1.1,1.1,0,0,1-1-.59l-.18-.35a1.1,1.1,0,0,1,2-1l.16.31a1.1,1.1,0,0,1-1,1.62Zm-89.7-.21a1.1,1.1,0,0,1-1-1.61l.16-.31a1.1,1.1,0,0,1,2,1l-.18.35A1.1,1.1,0,0,1,18.13,48.84ZM106.4,44.5a1.1,1.1,0,0,1-1.09-1l0-.39a1.1,1.1,0,0,1,2.19-.23l0,.35a1.1,1.1,0,0,1-1,1.23Zm-86.92-.23h-.12a1.1,1.1,0,0,1-1-1.22l0-.35a1.1,1.1,0,0,1,2.19.22l0,.38A1.1,1.1,0,0,1,19.48,44.26Zm86.69-4.56a1.1,1.1,0,0,1-1.1-1.09v-.36a1.1,1.1,0,0,1,1.08-1.12h0a1.1,1.1,0,0,1,1.1,1.08v.38a1.1,1.1,0,0,1-1.09,1.11Zm-86.48-.24h0a1.1,1.1,0,0,1-1.08-1.12V38a1.12,1.12,0,0,1,1.13-1.08A1.1,1.1,0,0,1,20.8,38v.36A1.1,1.1,0,0,1,19.69,39.47Zm86.16-4.55a1.1,1.1,0,0,1-1.09-.93l-.06-.33a1.1,1.1,0,0,1,2.16-.41c0,.13,0,.26.07.4A1.1,1.1,0,0,1,106,34.9ZM20,34.68l-.2,0A1.1,1.1,0,0,1,19,33.38L19,33a1.1,1.1,0,1,1,2.16.44l-.07.34A1.1,1.1,0,0,1,20,34.68Zm84-4.15a1.1,1.1,0,0,1-.85-.4l-.21-.24a1.1,1.1,0,0,1,1.63-1.48l.28.32a1.1,1.1,0,0,1-.85,1.8ZM22,30.34a1.1,1.1,0,0,1-.83-1.83l.29-.31A1.1,1.1,0,1,1,23,29.74l-.21.23A1.1,1.1,0,0,1,22,30.34Zm78.23-2.59a1.1,1.1,0,0,1-.46-.1l-.32-.14a1.1,1.1,0,1,1,.89-2l.35.16a1.1,1.1,0,0,1-.46,2.1Zm-74.29-.1a1.1,1.1,0,0,1-.45-2.11l.36-.16a1.1,1.1,0,1,1,.86,2l-.32.14A1.1,1.1,0,0,1,25.89,27.66Zm69.8-1.6a1.11,1.11,0,0,1-.36-.06L95,25.87a1.1,1.1,0,0,1,.73-2.08l.35.12a1.1,1.1,0,0,1-.36,2.14ZM30.39,26A1.1,1.1,0,0,1,30,23.84l.34-.12a1.1,1.1,0,1,1,.74,2.08l-.35.13A1.1,1.1,0,0,1,30.39,26Zm60.88-1.79a1.1,1.1,0,0,1-.54-.14l-.35-.2A1.1,1.1,0,1,1,91.52,22l.29.17a1.1,1.1,0,0,1-.54,2.06ZM34.8,24.07a1.1,1.1,0,0,1-.56-2l.28-.17a1.1,1.1,0,0,1,1.18,1.86l-.34.21A1.1,1.1,0,0,1,34.8,24.07Zm52.87-3a1.1,1.1,0,0,1-.85-.4l-.24-.29A1.1,1.1,0,0,1,88.29,19l.23.28a1.1,1.1,0,0,1-.85,1.8Zm-49.33-.19a1.1,1.1,0,0,1-.85-1.8l.22-.27a1.1,1.1,0,0,1,1.73,1.37l-.25.3A1.1,1.1,0,0,1,38.34,20.87Zm46.43-3.64a1.1,1.1,0,0,1-.88-.44l-.22-.29a1.1,1.1,0,1,1,1.75-1.34l.23.3a1.1,1.1,0,0,1-.88,1.76ZM41.23,17a1.1,1.1,0,0,1-.88-1.77l.23-.3a1.1,1.1,0,0,1,1.75,1.34l-.22.29A1.1,1.1,0,0,1,41.23,17Zm21.7-2.56a1.13,1.13,0,0,1-1.13-1.1,1.08,1.08,0,0,1,1.07-1.1h.33a1.1,1.1,0,0,1,.07,2.2Zm-4.42-.72a1.11,1.11,0,0,1-.29,0l-.37-.1a1.1,1.1,0,1,1,.61-2.12l.34.1a1.1,1.1,0,0,1-.29,2.16Zm9.08-.07a1.1,1.1,0,0,1-.3-2.16l.34-.1a1.1,1.1,0,1,1,.62,2.11l-.36.11A1.11,1.11,0,0,1,67.59,13.68Zm14,0a1.1,1.1,0,0,1-.71-.26l-.26-.21A1.1,1.1,0,0,1,82,11.44l.31.26a1.1,1.1,0,0,1-.72,1.94Zm-37.13-.16a1.1,1.1,0,0,1-.7-2l.32-.25A1.1,1.1,0,0,1,45.41,13l-.26.2A1.1,1.1,0,0,1,44.46,13.48Zm9.45-1.12a1.1,1.1,0,0,1-.3,0l-.35-.1a1.1,1.1,0,1,1,.58-2.13l.36.1a1.1,1.1,0,0,1-.3,2.16Zm18.29-.07a1.1,1.1,0,0,1-.29-2.16l.37-.1a1.1,1.1,0,1,1,.57,2.13l-.35.09A1.11,1.11,0,0,1,72.19,12.3Zm5.11-.63h-.12l-.32,0A1.1,1.1,0,0,1,77,9.43l.42,0a1.1,1.1,0,0,1-.12,2.2Zm-28.49,0a1.1,1.1,0,0,1-.09-2.2l.42,0a1.09,1.09,0,0,1,1.14,1.07,1.1,1.1,0,0,1-1.07,1.14l-.32,0Z" fill="#e2ca97"/><path d="M81.19,42.63V39.86a5.49,5.49,0,0,0,3.65-5.17V31A1.83,1.83,0,0,0,83,29.22H42.83A1.83,1.83,0,0,0,41,31V34.7a5.49,5.49,0,0,0,3.65,5.17v2.77A9.07,9.07,0,0,0,47.28,49l9.6,11.35-9.6,11.24A9.07,9.07,0,0,0,44.66,78v2.89A5.49,5.49,0,0,0,41,86.09v3.65a1.83,1.83,0,0,0,1.83,1.83H83a1.83,1.83,0,0,0,1.83-1.83V86.09a5.49,5.49,0,0,0-3.65-5.17V78a9.07,9.07,0,0,0-2.62-6.4L69,60.39,78.58,49A9.07,9.07,0,0,0,81.19,42.63ZM46.49,36.52a1.83,1.83,0,0,1-1.83-1.83V32.87H81.19V34.7a1.83,1.83,0,0,1-1.83,1.83ZM48.31,78a5.44,5.44,0,0,1,1.61-3.87c.08-.08-.47.56,9.47-11.09a5.44,5.44,0,0,0,1.71,1h0V70.6l-9.9,10H48.31Zm14.61-4.08,6.58,6.66H56.34ZM79.37,84.26a1.83,1.83,0,0,1,1.83,1.83v1.83H44.66V86.09a1.83,1.83,0,0,1,1.83-1.83ZM75.84,74.05a5.53,5.53,0,0,1,1.7,4v2.58H74.65l-9.9-10V64h0a5.44,5.44,0,0,0,1.71-1ZM64.17,60.22a1.83,1.83,0,0,1-2.49,0l-7.62-9.08H71.8ZM77.54,42.63a5.44,5.44,0,0,1-1.61,3.87c-.08.08-.09.09-.84,1H50.75c-.75-.89-.75-.89-.84-1a5.44,5.44,0,0,1-1.61-3.87V40.18H77.54Z" fill="#e2ca97"/></g></g></svg>