<?xml version="1.0" encoding="utf-8"?>
<!-- Generator: Adobe Illustrator 21.1.0, SVG Export Plug-In . SVG Version: 6.00 Build 0)  -->
<svg version="1.1" id="Слой_1" xmlns="http://www.w3.org/2000/svg" xmlns:xlink="http://www.w3.org/1999/xlink" x="0px" y="0px"
	 viewBox="0 0 250.3 535.4" style="enable-background:new 0 0 250.3 535.4;" xml:space="preserve">
<style type="text/css">
	.st0{fill:#E2CA97;}
</style>
<path class="st0" d="M125.1,0C56.1,0,0,56.1,0,125.1v151.1c0,69,56.1,125.1,125.1,125.1s125.1-56.1,125.1-125.1V125.1
	C250.3,56.1,194.1,0,125.1,0z M235.3,125.1v2c-32.3,17-68.4,26.3-105.1,27.1v-41.8c10.6-2.3,18.5-11.7,18.5-23V58
	c0-11.3-8-20.7-18.5-23V15.1C188.5,17.7,235.3,66.1,235.3,125.1z M125.1,44.4c7.5,0,13.5,6.1,13.5,13.5v31.4
	c0,7.5-6.1,13.5-13.5,13.5c-7.5,0-13.5-6.1-13.5-13.5V58C111.6,50.5,117.7,44.4,125.1,44.4z M120.1,15.1V35
	c-10.6,2.3-18.5,11.7-18.5,23v31.4c0,11.3,8,20.7,18.5,23v41.8c-36.7-0.8-72.8-10.1-105.1-27.1v-2C15,66.1,61.7,17.7,120.1,15.1z
	 M125.1,386.4C64.4,386.4,15,337,15,276.3V138.3c34,17,71.9,25.9,110.1,25.9c38.3,0,76.1-8.9,110.1-25.9v137.9
	C235.3,337,185.9,386.4,125.1,386.4z"/>
<g>
	<path class="st0" d="M50.6,463c-1.1-1.1-1.6-2.4-1.6-3.8s0.5-2.8,1.6-3.8c2.1-2.1,5.5-2.1,7.6,0l67,67l67-67c2.1-2.1,5.5-2.1,7.6,0
		c2.1,2.1,2.1,5.5,0,7.6l-70.8,70.8c-2.1,2.1-5.5,2.1-7.6,0L50.6,463z"/>
</g>
</svg>
