<?xml version="1.0" encoding="utf-8"?>
<!-- Generator: Adobe Illustrator 21.1.0, SVG Export Plug-In . SVG Version: 6.00 Build 0)  -->
<svg version="1.1" id="Слой_1" xmlns="http://www.w3.org/2000/svg" xmlns:xlink="http://www.w3.org/1999/xlink" x="0px" y="0px"
	 viewBox="0 0 89 67.8" style="enable-background:new 0 0 89 67.8;" xml:space="preserve">
<style type="text/css">
	.st0{fill:#A79546;}
</style>
<title>Ресурс 11</title>
<path class="st0" d="M28.7,35.9l1.5,1.5c1-1,2.1-1.9,3.1-2.8L31.9,33C30.8,34,29.7,35,28.7,35.9z"/>
<path class="st0" d="M35.2,30.2l1.3,1.6c1.1-0.9,2.2-1.8,3.3-2.6l-1.3-1.7C37.5,28.4,36.3,29.3,35.2,30.2z"/>
<path class="st0" d="M22.8,42.3l1.7,1.3c0.8-1,1.7-2.1,2.7-3.2L25.6,39C24.6,40.1,23.6,41.2,22.8,42.3z"/>
<path class="st0" d="M55.7,34.5c1.1,0.9,2.1,1.9,3.1,2.8l1.5-1.5c-1-1-2.1-2-3.2-2.9L55.7,34.5z"/>
<path class="st0" d="M63.4,38.9l-1.5,1.5c1,1.1,1.9,2.1,2.8,3.1l1.7-1.3C65.4,41.1,64.4,40,63.4,38.9z"/>
<path class="st0" d="M49.1,29.2c1.1,0.8,2.2,1.7,3.3,2.6l1.3-1.6c-1.1-0.9-2.3-1.8-3.4-2.6L49.1,29.2z"/>
<path class="st0" d="M88.9,61.8c-0.4-3.4-2.8-6.3-6.1-7.3c1.7-2.6,3-5.4,3.8-8.5c0.7-2.2,1-4.6,1-6.9c0.1-8-4.1-15.5-11-19.6
	c-7.8-4.6-17.8-3.5-24.4,2.8c-2.5-1.9-4.6-3.2-5.7-3.9c0.2-0.4,0.2-0.7,0.3-1.1l0,0l3.6,2l-5-7.8v-0.1h0.1l7.8,5l-2-3.6l0,0
	c2.1,0,3.8-2.3,3.8-2.3s-1.7-2.3-3.8-2.3l0,0l2-3.6l-7.8,5h-0.1v0l5-7.8l-3.6,2l0,0c0-2.1-2.3-3.8-2.3-3.8s-2.3,1.7-2.3,3.8l0,0
	l-3.6-2l5,7.8v0.1h-0.1l-7.8-5l2,3.6l0,0c-2.1,0-3.8,2.3-3.8,2.3s1.7,2.3,3.8,2.3l0,0l-2,3.6l7.8-5h0.1v0.1l-5,7.8l3.6-2l0,0
	c0,0.4,0.1,0.8,0.3,1.1c-1.1,0.7-3.1,2.1-5.7,3.9c-6.6-6.2-16.5-7.3-24.4-2.7c-8.9,5.5-13.1,16.3-10,26.3c0.8,3.1,2,6,3.8,8.6
	c-3.3,1-5.7,3.8-6.2,7.3H0v5.9h89L88.9,61.8L88.9,61.8L88.9,61.8z M66.2,21c2.9,0,5.7,0.8,8.2,2.2c5.6,3.4,9,9.4,8.9,15.9
	c0,2-0.3,3.9-0.9,5.8c-0.7,3.1-2.5,6.4-4.9,9.7c-0.3,0.1-0.6,0.2-0.8,0.3c0,0-0.1-0.1-0.1-0.1c0-0.1,0-0.2,0-0.3
	c0-1.9-0.3-3.9-0.9-5.7c-1.9-8.4-12-17.7-20.1-23.9C58.6,22.4,62.4,21,66.2,21z M44.5,61.7c-3.5,0-6.4-2.9-6.4-6.4
	c0-3.5,2.9-6.4,6.4-6.4c3.5,0,6.4,2.9,6.4,6.4C50.9,58.9,48.1,61.8,44.5,61.7C44.6,61.8,44.5,61.8,44.5,61.7L44.5,61.7z M14.6,23.2
	c6-3.5,13.5-2.8,18.8,1.7c-8,6.2-18.2,15.5-20,23.7c-0.6,1.9-0.9,3.9-0.9,5.9c0,0.1,0,0.2,0,0.3s-0.1,0.1-0.1,0.1
	c-0.2-0.1-0.5-0.2-0.8-0.3c-2.5-3.3-4.4-6.7-5.1-9.9C6,43,5.7,41.1,5.7,39.2C5.6,32.7,9,26.6,14.6,23.2z M31,50.6
	c-2.2-1.8-4.9-2.8-7.7-2.8c-0.6,0-1.1,0-1.7,0.1c0.2-0.3,0.3-0.6,0.5-0.9l-1.8-1.1c-0.5,0.9-0.9,1.8-1.3,2.7
	c-0.5,0.2-0.9,0.4-1.4,0.6c2.3-8.7,16.5-20,24.8-25.7v1.3c-0.1,0.1,0,0.5,0,0.5v16.7C37.4,42.8,33.1,46,31,50.6z M46.6,42.1V25.3
	c0,0,0.1-0.4,0-0.5v-1.3c8.2,5.7,22.2,16.8,24.8,25.7c-0.4-0.2-0.9-0.4-1.3-0.6c-0.4-1-0.8-1.9-1.3-2.9l-1.8,1.1
	c0.2,0.4,0.4,0.7,0.5,1c-3.4-0.5-6.8,0.5-9.4,2.8C55.9,46,51.6,42.8,46.6,42.1L46.6,42.1z"/>
</svg>
