<svg xmlns="http://www.w3.org/2000/svg" viewBox="0 0 125.89 23.48"><title>Ресурс 13</title><g id="Слой_2" data-name="Слой 2"><g id="Objects"><polygon points="65.85 7.81 74.43 8.96 68.17 14.95 69.73 23.47 62.1 19.37 54.48 23.48 56.02 14.96 49.75 8.98 58.34 7.81 62.08 0 65.85 7.81" fill="#f0651d"/><polygon points="32.36 10.06 38.65 10.9 34.06 15.29 35.21 21.54 29.61 18.53 24.03 21.55 25.16 15.3 20.57 10.92 26.86 10.06 29.6 4.34 32.36 10.06" fill="#f0651d"/><polygon points="97.33 10.06 103.62 10.9 99.03 15.29 100.18 21.54 94.58 18.53 89 21.55 90.13 15.3 85.53 10.92 91.83 10.06 94.57 4.34 97.33 10.06" fill="#f0651d"/><polygon points="7.34 12.39 11.25 12.92 8.4 15.65 9.11 19.53 5.63 17.66 2.15 19.54 2.86 15.65 0 12.93 3.91 12.4 5.62 8.84 7.34 12.39" fill="#f0651d"/><polygon points="121.97 12.39 125.89 12.92 123.03 15.65 123.74 19.53 120.27 17.66 116.79 19.54 117.5 15.65 114.64 12.93 118.55 12.4 120.26 8.84 121.97 12.39" fill="#f0651d"/></g></g></svg>