<?xml version="1.0" encoding="utf-8"?>
<!-- Generator: Adobe Illustrator 21.1.0, SVG Export Plug-In . SVG Version: 6.00 Build 0)  -->
<svg version="1.1" id="Слой_1" xmlns="http://www.w3.org/2000/svg" xmlns:xlink="http://www.w3.org/1999/xlink" x="0px" y="0px"
	 viewBox="0 0 144.8 202.8" style="enable-background:new 0 0 144.8 202.8;" xml:space="preserve">
<style type="text/css">
	.st0{fill:#0B0B09;}
	.st1{fill:#A0934D;}
</style>
<g>
	<g>
		<g>
			<path class="st0" d="M107.1,173.7c0,0,4.9-5.2-7.3-5.6c0,0,0.5-6.3-7.9-1.4c0,0-4.7-3.7-7.5,3.2c0,0-5-2.4-6.8,2.4
				c-3-0.7-5.8-1.3-8.6-1.7c1.6-0.8,2.3-2.5,2.3-2.5c9.7-0.1,6.1-5.2,6.1-5.2c10.3-6.6,3.4-8.5,3.4-8.5c8.2-12.8-4.2-6.2-4.2-6.2
				c-0.9-3.6-3.6,1.4-5.2,4.8c0.4-2.2-1.3-3.3-1.3-3.3c-1.6-2.4-3.2,0.8-3.2,0.8c-3.8-4-6.2,9.2-6.2,9.2c-4.4-4.6-5.7,9.8-5.7,9.8
				c0,0,0,0,0,0c-5.5,0-10.6,0.5-15.3,1.4c0.6-0.9,0.8-1.8,0.8-1.8c7.1,2.4,7.3-3.6,7.3-3.6c9.2-3.2,4.1-6.9,4.1-6.9
				c7.7-9.5,0.5-9.2,0.5-9.2c3.7-14.7-6-4.5-6-4.5c-2-3.1-3,2.5-3.4,6.2c-0.4-2.2-2.2-2.7-2.2-2.7c-2.3-1.8-2.8,1.8-2.8,1.8
				c-4.9-2.6-2.9,10.6-2.9,10.6c-5.6-2.9-2.2,11.1-2.2,11.1c0.2,0.1,0.3,0.2,0.5,0.3C12.2,177.9,0.2,190,0,190.2l1.3,1.2
				c0.2-0.2,8.4-8.5,23.3-14.3c0.1,1,1.5,14.1,5.7,9.7c0,0,2.4,13.2,6.2,9.1c0,0,1.6,3.2,3.2,0.8c0,0,1.6-1,1.3-3.3
				c1.6,3.4,4.4,8.4,5.2,4.8c0,0,12.5,6.5,4.2-6.2c0,0,6.9-2-3.5-8.5c0,0,3.7-5.2-6.1-5.2c0,0-2.1-5.6-8.1-1c0,0-1-1.5-2.6-2.2
				C37,173,45,171.5,54,171.3c-0.6,2-3.7,13.3,1.6,10.9c0,0-2.9,13.1,2.2,10.8c0,0,0.2,3.6,2.6,2c0,0,1.9-0.3,2.4-2.5
				c0.2,3.8,0.8,9.4,3,6.5c0,0,9,10.8,6.3-4.1c0,0,7.1,0.8,0.1-9.2c0,0,5.4-3.4-3.6-7.1c0,0,0.2-6-7.1-4c0,0-0.3-1.6-1.4-2.9
				c0.1,0,0.2-0.1,0.3-0.1c5.4,0.3,11.1,1.2,17.1,2.7c1.4,1.8,8.4,10.8,9.6,5.2c0,0,8.7,10.2,10,4.7c0,0,3,1.9,3.2-0.9
				c0,0,0.9-1.7-0.6-3.5c3.1,2.1,8,5,7,1.5C106.7,181.2,120.7,180.5,107.1,173.7z M34.7,170.8c0.3-0.2,0.6-0.5,1-0.9
				c0.4-0.4,0.8-0.8,1.2-1.2c0.4-0.4,0.9-1,1.4-1.5c0.5-0.5,0.9-1.2,1.4-1.8c0.5-0.6,0.9-1.3,1.4-2c0.5-0.7,0.9-1.4,1.4-2.1
				c0.4-0.7,0.9-1.4,1.3-2.1c0.4-0.7,0.8-1.4,1.2-2.1c0.4-0.7,0.7-1.4,1.1-2c0.3-0.6,0.6-1.3,0.9-1.8c0.6-1.1,1-2.1,1.4-2.8
				c0.3-0.7,0.5-1.1,0.5-1.1s-0.2,1.7-1,4.2c-0.2,0.6-0.4,1.3-0.7,2c-0.3,0.7-0.6,1.4-0.9,2.2c-0.3,0.7-0.7,1.5-1.1,2.2
				c-0.4,0.8-0.9,1.5-1.3,2.2c-0.5,0.7-1,1.4-1.5,2.1c-0.5,0.7-1,1.3-1.6,1.9c-0.6,0.6-1.1,1.2-1.7,1.7c-0.6,0.5-1.1,1-1.6,1.4
				c-0.5,0.4-1,0.7-1.5,1c-0.4,0.3-0.9,0.5-1.2,0.7c-0.7,0.3-1.1,0.5-1.1,0.5S34.1,171.3,34.7,170.8z M31.6,178.8
				c0.7,0.3,1.4,0.7,2.1,1.1c0.7,0.4,1.4,0.9,2.1,1.3c0.7,0.5,1.4,1,2.1,1.5c0.7,0.6,1.3,1.1,2,1.7c0.6,0.6,1.2,1.2,1.8,1.8
				c0.6,0.6,1.1,1.2,1.6,1.7c0.5,0.6,0.9,1.1,1.3,1.6c1.6,2.1,2.3,3.6,2.3,3.6s-0.3-0.3-0.8-0.8c-0.5-0.5-1.3-1.3-2.2-2.2
				c-0.5-0.4-1-0.9-1.5-1.4c-0.5-0.5-1.1-1-1.7-1.6c-0.6-0.5-1.2-1.1-1.8-1.6c-0.6-0.6-1.3-1.1-1.9-1.6c-0.7-0.5-1.3-1-2-1.5
				c-0.7-0.4-1.3-1-2-1.4c-0.7-0.4-1.3-0.9-1.9-1.2c-0.6-0.3-1.2-0.7-1.8-1c-0.6-0.3-1.1-0.5-1.6-0.7c-0.5-0.2-0.9-0.4-1.2-0.5
				c-0.7-0.3-1.1-0.4-1.1-0.4s0.4,0,1.2,0.1c0.4,0.1,0.8,0.1,1.4,0.2c0.5,0.1,1.1,0.3,1.7,0.5C30.3,178.3,30.9,178.6,31.6,178.8z
				 M57,168.9c0.3-0.1,0.8-0.3,1.2-0.5c0.5-0.2,1-0.5,1.6-0.8c0.6-0.3,1.1-0.7,1.8-1c0.6-0.3,1.2-0.8,1.9-1.2c0.7-0.4,1.3-0.9,2-1.4
				c0.7-0.5,1.3-1,2-1.5c0.6-0.5,1.3-1.1,1.9-1.6c0.6-0.6,1.3-1.1,1.8-1.6c0.6-0.5,1.1-1.1,1.7-1.6c0.5-0.5,1-1,1.5-1.4
				c0.9-0.9,1.7-1.7,2.2-2.2c0.5-0.5,0.8-0.8,0.8-0.8s-0.8,1.6-2.3,3.6c-0.4,0.5-0.8,1.1-1.3,1.6c-0.5,0.6-1,1.2-1.6,1.7
				c-0.6,0.6-1.1,1.2-1.8,1.8c-0.6,0.6-1.3,1.1-1.9,1.7c-0.7,0.5-1.4,1.1-2.1,1.5c-0.7,0.5-1.4,0.9-2.1,1.3
				c-0.7,0.4-1.4,0.8-2.1,1.1c-0.7,0.3-1.3,0.6-2,0.8c-0.6,0.2-1.2,0.3-1.7,0.5c-0.5,0.1-1,0.2-1.4,0.2c-0.8,0.1-1.2,0.1-1.2,0.1
				S56.3,169.2,57,168.9z M63.2,169.2c0.5,0.4,0.9,0.6,1.3,0.9c-0.6-0.1-1.2-0.1-1.9-0.2C63,169.5,63.2,169.2,63.2,169.2z
				 M61.4,177.2c0.5,0.6,1,1.3,1.5,2.1c0.5,0.7,0.9,1.5,1.3,2.2c0.4,0.8,0.8,1.5,1.1,2.3c0.4,0.8,0.7,1.6,1,2.3
				c0.3,0.8,0.5,1.5,0.8,2.2c0.2,0.7,0.4,1.4,0.6,2c0.6,2.5,0.8,4.2,0.8,4.2s-0.2-0.4-0.4-1.1c-0.3-0.7-0.7-1.7-1.2-2.9
				c-0.3-0.6-0.5-1.2-0.8-1.9c-0.3-0.7-0.6-1.4-0.9-2.1c-0.3-0.7-0.7-1.4-1.1-2.2c-0.4-0.8-0.8-1.5-1.2-2.2
				c-0.4-0.7-0.8-1.5-1.2-2.2c-0.5-0.7-0.8-1.4-1.3-2c-0.5-0.6-0.9-1.3-1.3-1.8c-0.5-0.6-0.8-1.1-1.3-1.6c-0.4-0.5-0.8-0.9-1.2-1.3
				c-0.3-0.4-0.7-0.7-1-0.9c-0.5-0.5-0.8-0.8-0.8-0.8s0.4,0.2,1,0.6c0.3,0.2,0.7,0.4,1.2,0.7c0.4,0.3,0.9,0.7,1.4,1.1
				c0.5,0.4,1,0.9,1.5,1.5C60.4,176,60.9,176.6,61.4,177.2z M103.6,176.2c-0.7-0.2-1.8-0.5-3-0.8c-0.6-0.1-1.3-0.3-2-0.5
				c-0.7-0.2-1.5-0.3-2.2-0.5c-0.8-0.2-1.6-0.3-2.4-0.5c-0.8-0.2-1.6-0.3-2.5-0.4c-0.8-0.1-1.7-0.2-2.5-0.3c-0.8,0-1.6-0.2-2.4-0.2
				c-0.8,0-1.5-0.1-2.3-0.1c-0.7,0-1.4,0-2,0.1c-0.5,0.1-1,0.1-1.4,0.1c-0.4-0.1-0.8-0.2-1.2-0.3c0.2-0.1,0.5-0.2,0.7-0.3
				c0.5-0.1,1.1-0.3,1.7-0.5c0.6-0.2,1.3-0.2,2.1-0.3c0.7-0.1,1.5-0.1,2.4-0.2c0.8,0,1.7,0,2.5,0.1c0.9,0.1,1.7,0.2,2.6,0.3
				c0.9,0.2,1.7,0.3,2.5,0.5c0.8,0.2,1.7,0.4,2.4,0.6c0.8,0.2,1.5,0.5,2.2,0.7c0.7,0.2,1.4,0.5,2,0.7c2.4,1,3.9,1.9,3.9,1.9
				S104.3,176.4,103.6,176.2z"/>
			<path class="st0" d="M136.7,104.6c0,0,1.7-5.7-7.6-1.4c0,0-2-4.9-6.4,1.9c0,0-4.9-1-4.4,5.3c0,0-4.4,0.1-4.2,4.1
				c-3.4,0.8-6.7,1.8-9.7,3c1-1.2,0.9-2.8,0.9-2.8c7.2-3.7,2.6-6.2,2.6-6.2c5.2-8.8-0.6-7.7-0.6-7.7c1.3-12.7-5.5-3.1-5.5-3.1
				c-2-2.3-2.2,2.4-2.1,5.6c-0.6-1.8-2.2-2-2.2-2c-2.1-1.2-2.1,1.8-2.1,1.8c-4.4-1.6-1.1,9.2-1.1,9.2c-5-1.8-0.5,9.5-0.5,9.5
				c0.3,0.1,0.5,0.2,0.8,0.3c-1.9,1-3.6,2.1-5.3,3.2c1.2-1.6,0.3-3.6,0.3-3.6c5.7-5.9,0.4-6.7,0.4-6.7c2.1-10-3.1-7.1-3.1-7.1
				c-2.8-12.4-6.2-1.1-6.2-1.1c-2.7-1.6-1.3,3-0.2,6c-1.1-1.5-2.7-1.2-2.7-1.2c-2.4-0.4-1.4,2.4-1.4,2.4c-4.7-0.1,1.9,9.1,1.9,9.1
				c-4.9-0.1,1.4,7.8,2.4,9c-1,1-2,1.9-2.9,2.9c-0.1,0.1-0.1,0.1-0.2,0.2c-10.6,11-14.1,21.9-14.2,22.1l1.4,0.4
				c0.1-0.2,3.1-9.5,12.1-19.6c1.4,2.1,6.3,8.9,7.6,4.6c0,0,6.8,9,8.1,4.5c0,0,2.4,1.8,2.7-0.6c0,0,0.8-1.4-0.3-2.9
				c2.5,1.9,6.4,4.6,5.7,1.6c0,0,11.8,0.1,0.8-6.2c0,0,4.4-4.1-5.8-5c0,0,0.8-5.2-6.5-1.6c0,0-3.7-3.4-6.4,2.3c0,0-0.8-0.5-1.9-0.6
				c0.7-0.6,1.4-1.3,2.1-1.9c1.2-0.3,1.8-1,2.2-1.8c4-3.2,8.7-6.3,14.2-8.9c0.4,2.3,2.3,10.8,5.3,7.3c0,0,2.8,10.9,5.7,7.3
				c0,0,1.5,2.6,2.7,0.5c0,0,1.3-1,0.8-2.8c1.6,2.7,4.1,6.7,4.7,3.7c0,0,10.8,4.7,3.1-5.5c0,0,5.6-2.1-3.4-6.9c0,0,2.7-4.5-5.4-4
				c0,0-2.1-4.5-6.8-0.3c0,0-0.6-0.8-1.6-1.4c3.1-1.2,6.4-2.2,10-3.1c0,0,0,0,0,0c0,0,10.7,5.5,9.5,0.4c0,0,10.4,4.3,9.2-0.2
				c0,0,3,0.3,2-1.9c0,0,0-1.6-1.7-2.4c3.1,0.4,7.9,0.7,5.8-1.5C139.2,110.4,149.4,104.5,136.7,104.6z M84.2,110.2c0-0.6,0-1,0-1
				s0.5,1.4,0.8,3.5c0.1,0.5,0.2,1.1,0.2,1.7c0.1,0.6,0.1,1.3,0.1,2c0,0.7,0,1.4,0,2.1c0,0.7-0.1,1.4-0.1,2.2
				c-0.1,0.7-0.2,1.4-0.3,2.2c-0.1,0.7-0.3,1.4-0.5,2.1c-0.2,0.7-0.4,1.3-0.6,1.9c-0.2,0.6-0.4,1.1-0.7,1.6
				c-0.3,0.5-0.5,0.9-0.7,1.3c-0.2,0.4-0.5,0.7-0.7,0.9c-0.4,0.5-0.6,0.8-0.6,0.8s0.1-0.3,0.4-0.9c0.1-0.3,0.3-0.6,0.4-1
				c0.1-0.4,0.3-0.9,0.5-1.4c0.2-0.5,0.3-1.1,0.5-1.6c0.2-0.6,0.2-1.2,0.4-1.9c0.1-0.6,0.2-1.3,0.3-2c0.1-0.7,0.2-1.4,0.2-2.1
				c0.1-0.7,0.1-1.4,0.2-2.1c0-0.7,0.1-1.4,0.1-2c0-0.7,0-1.3,0-1.9c0-0.6,0-1.2,0-1.7C84.2,111.8,84.2,110.9,84.2,110.2z
				 M85.4,127.1c0.7-0.1,1.3-0.3,1.9-0.5c-0.6,0.4-1.2,0.9-1.8,1.3C85.5,127.4,85.4,127.1,85.4,127.1z M78.1,136.8
				c0.3-0.1,0.7-0.3,1.1-0.3c0.4-0.1,0.9-0.2,1.5-0.3c0.5-0.1,1.1-0.1,1.8-0.2c0.6-0.1,1.3,0,2,0c0.7,0,1.4,0.1,2.1,0.2
				c0.7,0.1,1.4,0.2,2.1,0.4c0.7,0.2,1.4,0.3,2.1,0.5c0.7,0.2,1.4,0.4,2,0.6c0.6,0.2,1.3,0.5,1.8,0.7c0.6,0.2,1.1,0.5,1.6,0.7
				c2,1,3.1,1.8,3.1,1.8s-0.3-0.1-0.9-0.3c-0.6-0.2-1.4-0.5-2.5-0.8c-0.5-0.2-1.1-0.3-1.6-0.5c-0.6-0.2-1.2-0.4-1.8-0.5
				c-0.6-0.2-1.3-0.3-2-0.5c-0.7-0.2-1.4-0.3-2-0.5c-0.7-0.1-1.4-0.3-2.1-0.4c-0.7-0.1-1.4-0.2-2-0.3c-0.7,0-1.3-0.2-1.9-0.2
				c-0.6,0-1.2-0.1-1.7-0.1c-0.5,0-1,0-1.4,0c-0.4,0-0.8,0.1-1.1,0.1c-0.3,0-0.4,0-0.6,0.1c0.1-0.1,0.1-0.1,0.2-0.2
				C77.9,136.9,78,136.9,78.1,136.8z M94.9,120.6c0.2-0.2,0.5-0.5,0.7-0.8c0.3-0.3,0.6-0.7,0.9-1.1c0.3-0.4,0.6-0.9,1-1.4
				c0.3-0.5,0.6-1.1,1-1.6c0.3-0.6,0.6-1.2,1-1.8c0.3-0.6,0.6-1.3,0.9-1.9c0.3-0.6,0.6-1.3,0.8-1.9c0.2-0.6,0.5-1.3,0.7-1.9
				c0.2-0.6,0.5-1.2,0.7-1.8c0.2-0.6,0.4-1.1,0.6-1.6c0.3-1,0.6-1.9,0.8-2.5c0.2-0.6,0.3-0.9,0.3-0.9s0,1.5-0.4,3.6
				c-0.1,0.5-0.2,1.1-0.4,1.7c-0.1,0.6-0.3,1.2-0.5,1.9c-0.2,0.7-0.4,1.3-0.7,2c-0.2,0.7-0.5,1.3-0.8,2c-0.3,0.7-0.6,1.3-1,1.9
				c-0.4,0.6-0.7,1.2-1.1,1.8c-0.4,0.6-0.8,1.1-1.2,1.6c-0.4,0.5-0.8,0.9-1.2,1.3c-0.4,0.4-0.8,0.7-1.1,1c-0.3,0.3-0.7,0.5-0.9,0.7
				c-0.5,0.4-0.8,0.6-0.8,0.6S94.5,121.1,94.9,120.6z M99.7,118.5c0.7,0.1,1.3,0.2,1.8,0.2c-0.7,0.3-1.4,0.6-2.1,0.9
				C99.6,119,99.7,118.5,99.7,118.5z M100.9,120.8c0.3,0,0.7,0,1.1,0.1c0.4,0.1,0.9,0.2,1.5,0.3c0.5,0.1,1.1,0.3,1.7,0.5
				c0.6,0.2,1.2,0.5,1.8,0.8c0.6,0.3,1.2,0.6,1.9,1c0.6,0.4,1.2,0.8,1.8,1.2c0.6,0.4,1.2,0.9,1.7,1.3c0.6,0.4,1.1,0.9,1.6,1.4
				c0.5,0.4,1,0.9,1.4,1.4c0.4,0.4,0.8,0.9,1.2,1.3c1.4,1.6,2.2,2.9,2.2,2.9s-0.3-0.2-0.7-0.7c-0.5-0.4-1.2-1-2-1.7
				c-0.4-0.3-0.9-0.7-1.3-1.1c-0.5-0.4-1-0.8-1.5-1.2c-0.5-0.4-1.1-0.8-1.6-1.2c-0.5-0.4-1.1-0.8-1.7-1.2c-0.6-0.4-1.2-0.8-1.7-1.2
				c-0.6-0.3-1.2-0.7-1.7-1c-0.6-0.3-1.1-0.6-1.7-0.9c-0.6-0.2-1.1-0.5-1.5-0.7c-0.5-0.2-0.9-0.4-1.3-0.5c-0.4-0.2-0.8-0.2-1.1-0.3
				c-0.3-0.1-0.6-0.2-0.7-0.2c0,0,0.1,0,0.1-0.1C100.4,120.8,100.6,120.8,100.9,120.8z M135,107.8c-0.6,0.1-1.5,0.3-2.5,0.6
				c-0.5,0.1-1.1,0.3-1.7,0.4c-0.6,0.1-1.2,0.3-1.9,0.5c-0.6,0.2-1.3,0.4-2,0.6c-0.7,0.2-1.3,0.4-2,0.6c-0.7,0.2-1.3,0.5-2,0.7
				c-0.6,0.3-1.3,0.5-1.9,0.8c-0.6,0.3-1.2,0.5-1.7,0.8c-0.5,0.3-1,0.5-1.5,0.8c-0.1,0.1-0.3,0.2-0.4,0.2c-0.4,0.1-0.9,0.2-1.3,0.3
				c0,0,0.1-0.1,0.1-0.1c0.3-0.3,0.7-0.6,1.1-1c0.4-0.4,0.9-0.7,1.4-1c0.5-0.4,1.1-0.7,1.7-1c0.6-0.3,1.2-0.6,1.9-0.9
				c0.7-0.3,1.3-0.5,2-0.8c0.7-0.2,1.4-0.4,2.1-0.6c0.7-0.2,1.4-0.3,2-0.5c0.7-0.1,1.3-0.2,1.9-0.3c0.6-0.1,1.2-0.1,1.7-0.2
				c2.2-0.2,3.6,0,3.6,0S135.6,107.7,135,107.8z"/>
			<path class="st0" d="M125.9,64.9c0,0,2.9-4-5.5-3.1c0,0-0.2-4.3-5.5-0.2c0,0-3.5-2.1-4.8,2.9c0,0-1.6-0.5-2.9,0.1
				c1.8-2.6,3.8-5.3,6.2-7.9c1.9-0.3,8.9-1.5,6.2-4c0,0,9-1.8,6.2-4.4c0,0,2.2-1.1,0.5-2.2c0,0-0.7-1.1-2.3-0.8
				c2.3-1.2,5.7-3.1,3.2-3.7c0,0,4.3-8.6-4.3-2.8c0,0-1.5-4.7-5.8,2.5c0,0-3.6-2.4-3.5,4.2c0,0-3.8,1.5-0.6,5.6c0,0-3.2,2.2-0.7,5
				c-1.6,1.8-3.1,3.5-4.4,5.3c0.4-1.4-0.6-2.7-0.6-2.7c3.2-5.8-1.1-5.4-1.1-5.4c-0.5-8.4-3.9-4.9-3.9-4.9c-4.9-9.2-5.1,0.4-5.1,0.4
				c-2.4-0.7-0.4,2.6,1.1,4.7c-1.2-1-2.4-0.3-2.4-0.3c-2,0.2-0.6,2.2-0.6,2.2c-3.7,0.9,3.4,6.8,3.4,6.8c-4.2,1.1,4,6.7,4,6.7
				c0.2,0,0.4-0.1,0.6-0.2c-1.1,2-2,3.9-2.8,5.8c0.6-2-1.3-3.2-1.3-3.2c1.2-6.6-2.8-4.7-2.8-4.7c-3.1-7.8-5.3-3.4-5.3-3.4
				c-7.6-7.2-4.7,2.1-4.7,2.1c-2.5,0.1,0.5,2.6,2.6,4.1c-1.5-0.5-2.4,0.4-2.4,0.4c-1.8,0.8,0.1,2.3,0.1,2.3
				c-3.2,2.1,5.4,5.3,5.4,5.3c-3.4,2.2,4.7,4.7,5.8,5c-0.3,1.2-0.6,2.4-0.8,3.6c-0.4,0.6-0.6,1.4-0.4,2.5
				c-1.6,11.3,0.7,19.3,0.7,19.5l1.2-0.3c0-0.1-2.1-7.5-0.9-17.9c2.2,0.9,8,2.9,7-0.5c0,0,8.7,3,7.5-0.6c0,0,2.4,0.1,1.5-1.6
				c0,0-0.1-1.3-1.5-1.9c2.6,0.2,6.5,0.2,4.6-1.5c0,0,8.1-5.3-2.3-4.6c0,0,1.1-4.8-6.3-0.8c0,0-1.9-3.9-5.2,1.9c0,0-4.1-0.6-3.3,4.5
				c0,0-0.6,0.1-1.3,0.3c0.3-1.2,0.6-2.5,0.9-3.7c0.5-0.6,0.6-1.3,0.6-1.9c1.3-3.9,3.1-8.1,5.6-12.3c0,0.2-0.1,0.4-0.1,0.6
				c0,0,6.8,7.2,7.2,2.9c0,0,6.9,6.1,7.2,2.3c0,0,2.2,1,2.1-0.9c0,0,0.4-1.2-0.7-2.3c2.3,1.2,5.9,2.7,4.9,0.4
				C126.3,70.1,135.8,68.3,125.9,64.9z M113.4,54.4c0.1-0.4,0.2-0.8,0.3-1.2c0.1-0.4,0.3-0.9,0.5-1.4c0.2-0.5,0.4-1,0.7-1.5
				c0.3-0.5,0.6-1,0.9-1.5c0.3-0.5,0.7-1,1-1.5c0.4-0.5,0.7-0.9,1.1-1.4c0.4-0.4,0.8-0.9,1.2-1.2c0.4-0.4,0.8-0.8,1.2-1.1
				c0.4-0.3,0.8-0.6,1.1-0.9c1.4-1.1,2.5-1.7,2.5-1.7s-0.2,0.2-0.6,0.6c-0.4,0.4-0.9,0.9-1.5,1.5c-0.3,0.3-0.6,0.7-1,1
				c-0.3,0.4-0.7,0.8-1,1.2c-0.4,0.4-0.7,0.8-1.1,1.3c-0.4,0.4-0.7,0.9-1.1,1.3c-0.3,0.5-0.7,0.9-1,1.4c-0.3,0.5-0.7,0.9-0.9,1.4
				c-0.3,0.5-0.6,0.9-0.8,1.3c-0.2,0.4-0.5,0.8-0.7,1.2c-0.2,0.4-0.3,0.8-0.5,1.1c0,0,0,0.1,0,0.1c-0.2,0.2-0.3,0.3-0.5,0.5
				C113.3,54.9,113.4,54.7,113.4,54.4z M103.6,66.6c-0.1,0.4-0.2,0.6-0.3,0.9c-0.2,0.5-0.3,0.8-0.3,0.8s0-0.3,0.1-0.8
				c0-0.3,0.1-0.6,0.1-0.9c0-0.4,0-0.8,0.1-1.2c0-0.4,0-0.9,0-1.4c0-0.5-0.1-1-0.1-1.6c0-0.5-0.1-1.1-0.2-1.7
				c-0.1-0.6-0.2-1.1-0.3-1.7c-0.1-0.6-0.2-1.1-0.3-1.7c-0.1-0.6-0.2-1.1-0.4-1.6c-0.1-0.5-0.2-1-0.4-1.5c-0.1-0.5-0.2-0.9-0.4-1.4
				c-0.2-0.8-0.4-1.6-0.6-2c-0.1-0.5-0.2-0.8-0.2-0.8s0.7,1,1.4,2.6c0.2,0.4,0.4,0.8,0.5,1.3c0.2,0.5,0.4,1,0.5,1.5
				c0.2,0.5,0.3,1.1,0.5,1.7c0.1,0.6,0.2,1.2,0.4,1.7c0.1,0.6,0.2,1.2,0.2,1.8c0,0.6,0.1,1.2,0.1,1.7c0,0.6,0,1.1-0.1,1.6
				c-0.1,0.5-0.1,1-0.2,1.4C103.7,65.9,103.6,66.3,103.6,66.6z M105.3,63.9c0.7-0.3,1.3-0.6,1.7-1c-0.5,0.7-0.9,1.3-1.3,2
				C105.5,64.3,105.3,63.9,105.3,63.9z M97.9,81c-0.1-0.3-0.1-0.6-0.2-0.9c-0.1-0.3-0.2-0.7-0.3-1.1c-0.1-0.4-0.3-0.9-0.4-1.3
				c-0.1-0.5-0.4-0.9-0.6-1.4c-0.2-0.5-0.5-1-0.7-1.5c-0.2-0.5-0.5-1-0.8-1.5c-0.3-0.5-0.5-1-0.8-1.5c-0.3-0.5-0.6-1-0.9-1.4
				c-0.3-0.5-0.6-0.9-0.8-1.3c-0.3-0.4-0.5-0.8-0.8-1.2c-0.5-0.7-0.9-1.3-1.2-1.8c-0.3-0.4-0.5-0.7-0.5-0.7s0.9,0.7,2.2,2
				c0.3,0.3,0.6,0.7,0.9,1.1c0.3,0.4,0.7,0.8,1,1.3c0.3,0.4,0.7,0.9,1,1.4c0.3,0.5,0.6,1,0.9,1.5c0.3,0.5,0.5,1.1,0.8,1.6
				c0.2,0.5,0.5,1.1,0.6,1.6c0.2,0.5,0.4,1,0.5,1.6c0.1,0.5,0.2,1,0.3,1.4c0,0.4,0.1,0.9,0.1,1.2c0,0.4,0,0.7,0,0.9
				c0,0.5,0,0.8,0,0.8S98,81.6,97.9,81z M99.3,86.7c0.3-0.3,0.7-0.6,1.1-0.9c0.4-0.3,0.9-0.6,1.3-0.9c0.5-0.3,1-0.6,1.5-0.8
				c0.5-0.3,1.1-0.5,1.6-0.7c0.6-0.2,1.1-0.4,1.7-0.6c0.6-0.2,1.1-0.3,1.7-0.5c0.5-0.1,1.1-0.3,1.6-0.3c0.5-0.1,1-0.2,1.4-0.2
				c1.8-0.2,3-0.2,3-0.2s-0.3,0.1-0.8,0.2c-0.5,0.1-1.2,0.3-2,0.6c-0.4,0.1-0.9,0.3-1.4,0.4c-0.5,0.1-1,0.3-1.5,0.5
				c-0.5,0.2-1,0.4-1.6,0.5c-0.5,0.2-1.1,0.4-1.6,0.6c-0.5,0.2-1.1,0.4-1.6,0.7c-0.5,0.3-1,0.5-1.5,0.7c-0.5,0.3-0.9,0.5-1.4,0.7
				c-0.4,0.3-0.8,0.5-1.2,0.7c-0.3,0.3-0.7,0.5-1,0.7c-0.3,0.2-0.5,0.4-0.7,0.6c0,0,0,0-0.1,0c0-0.1,0-0.3,0.1-0.4
				c0.1-0.2,0.3-0.3,0.4-0.5C98.7,87.3,99,87,99.3,86.7z M98.9,76.9c0.7-0.6,1.2-1.2,1.4-1.8c-0.3,0.8-0.6,1.6-0.9,2.4
				C99.1,77.1,98.9,76.9,98.9,76.9z M123.7,66.9c-0.5-0.1-1.2-0.2-2.1-0.3c-0.4,0-0.9-0.1-1.4-0.1c-0.5,0-1-0.1-1.6-0.1
				c-0.5-0.1-1.1-0.1-1.7-0.1c-0.6,0-1.1,0-1.7-0.1c-0.6,0-1.2,0-1.7,0c-0.6,0-1.1,0-1.7,0.1c-0.5,0.1-1.1,0.1-1.5,0.2
				c-0.5,0.1-1,0.1-1.4,0.2c-0.4,0.1-0.8,0.2-1.2,0.3c-0.3,0.1-0.6,0.2-0.9,0.3c-0.5,0.1-0.8,0.2-0.8,0.2s0.2-0.2,0.7-0.4
				c0.2-0.1,0.5-0.3,0.8-0.4c0.3-0.1,0.7-0.3,1.1-0.5c0.4-0.2,0.9-0.3,1.4-0.4c0.5-0.1,1-0.2,1.6-0.3c0.6-0.1,1.1-0.1,1.7-0.2
				c0.6,0,1.2,0,1.8,0c0.6,0,1.2,0,1.8,0.1c0.6,0,1.2,0.1,1.7,0.2c0.6,0.1,1.1,0.2,1.6,0.3c0.5,0.1,1,0.2,1.4,0.3
				c1.7,0.5,2.8,1,2.8,1S124.3,67,123.7,66.9z"/>
			<path class="st0" d="M92.1,47.8c1.8-0.3,6.6-1.3,4.5-3.1c0,0,7.1-1.5,4.8-3.5c0,0,1.7-0.9,0.4-1.7c0,0-0.6-0.9-1.8-0.6
				c1.8-0.9,4.5-2.5,2.5-2.9c0,0,3.3-6.8-3.4-2.2c0,0-1.2-3.7-4.5,2c0,0-2.8-1.9-2.7,3.4c0,0-3,1.2-0.4,4.4c0,0-0.4,0.3-0.7,0.8
				c-0.3-0.9-0.6-1.9-0.9-2.9c0.1-0.6-0.1-1.1-0.4-1.5c-0.7-3.2-1.2-6.7-1.2-10.5c0.1,0.2,0.1,0.3,0.2,0.5c0,0,7.5,2.1,6-1
				c0,0,7.1,1.4,5.8-1.3c0,0,1.9-0.2,1-1.5c0,0-0.2-1-1.4-1.3c2-0.1,5.1-0.6,3.4-1.7c0,0,5.7-5-2.3-3.3c0,0,0.3-3.8-5,0.1
				c0,0-1.9-2.9-3.8,2c0,0-3.2,0-2.1,3.9c0,0-1.3,0.3-1.9,1.2c0.1-2.5,0.5-5.1,1-7.8c1.2-1,5.5-4.6,2.6-5.2c0,0,5.4-4.9,2.4-5.4
				c0,0,1-1.6-0.6-1.7c0,0-0.9-0.4-1.9,0.4c1.1-1.7,2.6-4.4,0.7-3.8c0,0-0.6-7.6-4.1-0.1c0,0-2.9-2.6-2.9,4c0,0-3.4-0.2-0.6,4.3
				c0,0-1.9,2.6,1.9,4c0,0-1.2,2.8,1.5,3.7c-0.4,1.8-0.6,3.6-0.8,5.3c-0.3-1.1-1.5-1.6-1.5-1.6c-0.2-5.3-2.9-3.2-2.9-3.2
				c-3.7-5.5-4.6-1.7-4.6-1.7c-7-4.3-3.3,2.4-3.3,2.4c-1.9,0.5,0.8,1.9,2.7,2.8c-1.2-0.2-1.8,0.7-1.8,0.7c-1.3,0.9,0.5,1.7,0.5,1.7
				c-2.1,2.1,5,3.2,5,3.2c-2.4,2.4,5.4,2.9,5.4,2.9c0.1-0.1,0.2-0.2,0.3-0.3c0.1,1.8,0.2,3.5,0.5,5.1c-0.4-1.6-2.2-1.6-2.2-1.6
				c-1.8-4.9-3.8-2.1-3.8-2.1c-5.2-4-5-0.2-5-0.2c-8-1.8-2.4,3.3-2.4,3.3c-1.6,1.1,1.4,1.6,3.4,1.7c-1.2,0.2-1.4,1.3-1.4,1.3
				c-0.9,1.3,1,1.5,1,1.5c-1.3,2.7,5.8,1.4,5.8,1.4c-1.4,2.9,5.1,1.3,5.9,1.1c0.3,1,0.6,1.9,0.9,2.8c-0.1,0.6,0.1,1.2,0.7,1.9
				c3.5,8.3,8.3,12.8,8.4,12.8l0.6-0.7C99.8,59.5,95.4,55.4,92.1,47.8z M89,28.8c0.1-0.2,0.2-0.4,0.4-0.6c0.2-0.2,0.4-0.5,0.6-0.8
				c0.2-0.3,0.5-0.5,0.8-0.8c0.3-0.3,0.6-0.6,0.9-0.9c0.3-0.3,0.7-0.6,1.1-0.8c0.4-0.3,0.8-0.5,1.2-0.8c0.4-0.2,0.8-0.5,1.2-0.7
				c0.4-0.2,0.8-0.4,1.2-0.6c0.4-0.2,0.8-0.3,1.2-0.4c0.4-0.1,0.7-0.2,1.1-0.3c1.3-0.4,2.3-0.5,2.3-0.5s-0.2,0.1-0.6,0.3
				c-0.4,0.2-0.9,0.4-1.5,0.7c-0.3,0.1-0.6,0.3-1,0.5c-0.4,0.2-0.7,0.4-1.1,0.5c-0.4,0.2-0.8,0.4-1.2,0.6c-0.4,0.2-0.8,0.4-1.2,0.7
				c-0.4,0.2-0.8,0.5-1.2,0.7c-0.4,0.3-0.7,0.5-1.1,0.7c-0.3,0.3-0.7,0.5-1,0.7c-0.3,0.3-0.6,0.5-0.8,0.7c-0.2,0.2-0.5,0.4-0.7,0.6
				c-0.2,0.2-0.4,0.4-0.5,0.5c-0.3,0.3-0.4,0.5-0.4,0.5S88.8,29.2,89,28.8z M91.7,46.1c0.1-0.3,0.1-0.6,0.2-0.9
				c0.1-0.3,0.2-0.7,0.4-1.1c0.1-0.4,0.3-0.8,0.5-1.2c0.2-0.4,0.4-0.8,0.7-1.2c0.3-0.4,0.5-0.8,0.8-1.2c0.3-0.4,0.6-0.7,0.9-1.1
				c0.3-0.3,0.6-0.7,0.9-1c0.3-0.3,0.6-0.6,0.9-0.9c0.3-0.3,0.6-0.5,0.9-0.7c1.1-0.9,1.9-1.3,1.9-1.3s-0.2,0.2-0.4,0.5
				c-0.3,0.3-0.7,0.7-1.1,1.2c-0.2,0.3-0.5,0.5-0.7,0.8c-0.3,0.3-0.5,0.6-0.8,0.9c-0.3,0.3-0.6,0.7-0.8,1c-0.3,0.3-0.6,0.7-0.8,1.1
				c-0.3,0.4-0.5,0.7-0.8,1.1c-0.2,0.4-0.5,0.7-0.7,1.1c-0.2,0.4-0.4,0.7-0.6,1.1c-0.2,0.3-0.4,0.7-0.5,1c-0.1,0.3-0.3,0.6-0.4,0.9
				c-0.1,0.3-0.2,0.5-0.3,0.7c0,0,0,0,0,0.1c0-0.1-0.1-0.2-0.1-0.3C91.6,46.5,91.6,46.3,91.7,46.1z M88.4,17.7
				c-0.1-0.3-0.2-0.6-0.3-0.9C88,16.4,88,16,87.9,15.6c-0.1-0.4-0.1-0.8-0.1-1.3c0-0.4,0-0.9,0-1.4c0-0.5,0.1-0.9,0.1-1.4
				c0.1-0.5,0.1-0.9,0.2-1.4c0.1-0.5,0.2-0.9,0.3-1.3c0.1-0.4,0.2-0.8,0.4-1.2c0.1-0.4,0.3-0.7,0.4-1.1c0.5-1.3,1-2.1,1-2.1
				S90.1,4.7,90,5.1c-0.1,0.4-0.2,1-0.4,1.6c-0.1,0.3-0.1,0.7-0.2,1.1c-0.1,0.4-0.2,0.8-0.2,1.2c-0.1,0.4-0.1,0.9-0.2,1.3
				c-0.1,0.4-0.1,0.9-0.2,1.3c0,0.4-0.1,0.9-0.1,1.3c0,0.4-0.1,0.9-0.1,1.3c0,0.4,0,0.8,0,1.2c0,0.4,0,0.8,0.1,1.1
				c0,0.3,0.1,0.6,0.1,0.9c0,0,0,0.1,0,0.1c0,0.2-0.1,0.3-0.1,0.5C88.5,18.1,88.5,17.9,88.4,17.7z M86.6,30.7
				c-0.1-0.2-0.2-0.4-0.3-0.7c-0.1-0.2-0.3-0.5-0.4-0.8c-0.2-0.3-0.4-0.6-0.6-0.9c-0.2-0.3-0.5-0.7-0.7-1c-0.2-0.4-0.5-0.7-0.8-1.1
				c-0.3-0.4-0.6-0.7-0.9-1c-0.3-0.3-0.6-0.7-0.9-1c-0.3-0.3-0.6-0.7-0.9-1c-0.3-0.3-0.6-0.6-0.9-0.9c-0.3-0.3-0.5-0.5-0.8-0.8
				c-0.5-0.5-0.9-0.9-1.2-1.1c-0.3-0.3-0.5-0.4-0.5-0.4s0.9,0.4,2,1.2c0.3,0.2,0.6,0.4,0.9,0.7c0.3,0.2,0.6,0.5,1,0.8
				c0.3,0.3,0.7,0.6,1,0.9c0.3,0.3,0.6,0.7,0.9,1c0.3,0.4,0.6,0.7,0.9,1.1c0.3,0.4,0.5,0.8,0.8,1.1c0.2,0.4,0.4,0.7,0.6,1.1
				c0.2,0.4,0.3,0.7,0.4,1c0.1,0.3,0.2,0.6,0.3,0.9c0.1,0.3,0.1,0.5,0.1,0.7c0.1,0.4,0.1,0.6,0.1,0.6S86.8,31,86.6,30.7z M86.7,27.3
				c0.4-0.5,0.6-0.9,0.7-1.3c0,0.6-0.1,1.3-0.1,1.9C87,27.5,86.7,27.3,86.7,27.3z M88.6,41.9c-0.1-0.1-0.3-0.3-0.5-0.5
				c-0.2-0.2-0.4-0.4-0.7-0.6c-0.2-0.2-0.5-0.5-0.8-0.7c-0.3-0.3-0.6-0.5-1-0.7c-0.3-0.3-0.7-0.5-1.1-0.7c-0.4-0.2-0.8-0.5-1.1-0.7
				c-0.4-0.2-0.8-0.5-1.2-0.7c-0.4-0.2-0.8-0.4-1.2-0.6c-0.4-0.2-0.8-0.4-1.1-0.6c-0.4-0.2-0.7-0.3-1-0.5c-0.6-0.3-1.2-0.5-1.5-0.7
				c-0.4-0.2-0.6-0.3-0.6-0.3s0.9,0.1,2.3,0.5c0.3,0.1,0.7,0.2,1.1,0.4c0.4,0.1,0.8,0.3,1.2,0.5c0.4,0.2,0.8,0.4,1.2,0.6
				c0.4,0.2,0.8,0.4,1.2,0.7c0.4,0.3,0.8,0.5,1.2,0.8c0.4,0.3,0.7,0.5,1.1,0.8c0.3,0.3,0.7,0.6,0.9,0.9c0.3,0.3,0.5,0.6,0.8,0.9
				c0.2,0.3,0.4,0.5,0.6,0.8c0.2,0.2,0.3,0.5,0.4,0.6c0.2,0.4,0.3,0.6,0.3,0.6S88.9,42.2,88.6,41.9z M87.6,38.7
				c0.2-0.7,0.3-1.3,0.3-1.8c0.1,0.7,0.2,1.4,0.4,2C87.9,38.8,87.6,38.7,87.6,38.7z"/>
		</g>
	</g>
	<g>
		<path class="st1" d="M108.9,173.7c0,0,4.9-5.2-7.3-5.6c0,0,0.5-6.3-7.9-1.4c0,0-4.7-3.7-7.5,3.2c0,0-5-2.4-6.8,2.4
			c-3-0.7-5.8-1.3-8.6-1.7c1.6-0.8,2.3-2.5,2.3-2.5c9.7-0.1,6.1-5.2,6.1-5.2c10.3-6.6,3.4-8.5,3.4-8.5c8.2-12.8-4.2-6.2-4.2-6.2
			c-0.9-3.6-3.6,1.4-5.2,4.8c0.4-2.2-1.3-3.3-1.3-3.3c-1.6-2.4-3.2,0.8-3.2,0.8c-3.8-4-6.2,9.2-6.2,9.2c-4.4-4.6-5.7,9.8-5.7,9.8
			c0,0,0,0,0,0c-5.5,0-10.6,0.5-15.3,1.4c0.6-0.9,0.8-1.8,0.8-1.8c7.1,2.4,7.3-3.6,7.3-3.6c9.2-3.2,4.1-6.9,4.1-6.9
			c7.7-9.5,0.5-9.2,0.5-9.2c3.7-14.7-6-4.5-6-4.5c-2-3.1-3,2.5-3.4,6.2c-0.4-2.2-2.2-2.7-2.2-2.7c-2.3-1.8-2.8,1.8-2.8,1.8
			c-4.9-2.6-2.9,10.6-2.9,10.6c-5.6-2.9-2.2,11.1-2.2,11.1c0.2,0.1,0.3,0.2,0.5,0.3C14,177.9,1.9,190,1.8,190.2l1.3,1.2
			c0.2-0.2,8.4-8.5,23.3-14.3c0.1,1,1.5,14.1,5.7,9.7c0,0,2.4,13.2,6.2,9.1c0,0,1.6,3.2,3.2,0.8c0,0,1.6-1,1.3-3.3
			c1.6,3.4,4.4,8.4,5.2,4.8c0,0,12.5,6.5,4.2-6.2c0,0,6.9-2-3.5-8.5c0,0,3.7-5.2-6.1-5.2c0,0-2.1-5.6-8.1-1c0,0-1-1.5-2.6-2.2
			c6.9-2.2,14.9-3.7,23.9-3.8c-0.6,2-3.7,13.3,1.6,10.9c0,0-2.9,13.1,2.2,10.8c0,0,0.2,3.6,2.6,2c0,0,1.9-0.3,2.4-2.5
			c0.2,3.8,0.8,9.4,3,6.5c0,0,9,10.8,6.3-4.1c0,0,7.1,0.8,0.1-9.2c0,0,5.4-3.4-3.6-7.1c0,0,0.2-6-7.1-4c0,0-0.3-1.6-1.4-2.9
			c0.1,0,0.2-0.1,0.3-0.1c5.4,0.3,11.1,1.2,17.1,2.7c1.4,1.8,8.4,10.8,9.6,5.2c0,0,8.7,10.2,10,4.7c0,0,3,1.9,3.2-0.9
			c0,0,0.9-1.7-0.6-3.5c3.1,2.1,8,5,7,1.5C108.4,181.2,122.5,180.5,108.9,173.7z M36.4,170.8c0.3-0.2,0.6-0.5,1-0.9
			c0.4-0.4,0.8-0.8,1.2-1.2c0.4-0.4,0.9-1,1.4-1.5c0.5-0.5,0.9-1.2,1.4-1.8c0.5-0.6,0.9-1.3,1.4-2c0.5-0.7,0.9-1.4,1.4-2.1
			c0.4-0.7,0.9-1.4,1.3-2.1c0.4-0.7,0.8-1.4,1.2-2.1c0.4-0.7,0.7-1.4,1.1-2c0.3-0.6,0.6-1.3,0.9-1.8c0.6-1.1,1-2.1,1.4-2.8
			c0.3-0.7,0.5-1.1,0.5-1.1s-0.2,1.7-1,4.2c-0.2,0.6-0.4,1.3-0.7,2c-0.3,0.7-0.6,1.4-0.9,2.2c-0.3,0.7-0.7,1.5-1.1,2.2
			c-0.4,0.8-0.9,1.5-1.3,2.2c-0.5,0.7-1,1.4-1.5,2.1c-0.5,0.7-1,1.3-1.6,1.9c-0.6,0.6-1.1,1.2-1.7,1.7c-0.6,0.5-1.1,1-1.6,1.4
			c-0.5,0.4-1,0.7-1.5,1c-0.4,0.3-0.9,0.5-1.2,0.7c-0.7,0.3-1.1,0.5-1.1,0.5S35.9,171.3,36.4,170.8z M33.4,178.8
			c0.7,0.3,1.4,0.7,2.1,1.1c0.7,0.4,1.4,0.9,2.1,1.3c0.7,0.5,1.4,1,2.1,1.5c0.7,0.6,1.3,1.1,2,1.7c0.6,0.6,1.2,1.2,1.8,1.8
			c0.6,0.6,1.1,1.2,1.6,1.7c0.5,0.6,0.9,1.1,1.3,1.6c1.6,2.1,2.3,3.6,2.3,3.6s-0.3-0.3-0.8-0.8c-0.5-0.5-1.3-1.3-2.2-2.2
			c-0.5-0.4-1-0.9-1.5-1.4c-0.5-0.5-1.1-1-1.7-1.6c-0.6-0.5-1.2-1.1-1.8-1.6c-0.6-0.6-1.3-1.1-1.9-1.6c-0.7-0.5-1.3-1-2-1.5
			c-0.7-0.4-1.3-1-2-1.4c-0.7-0.4-1.3-0.9-1.9-1.2c-0.6-0.3-1.2-0.7-1.8-1c-0.6-0.3-1.1-0.5-1.6-0.7c-0.5-0.2-0.9-0.4-1.2-0.5
			c-0.7-0.3-1.1-0.4-1.1-0.4s0.4,0,1.2,0.1c0.4,0.1,0.8,0.1,1.4,0.2c0.5,0.1,1.1,0.3,1.7,0.5C32,178.3,32.7,178.6,33.4,178.8z
			 M58.8,168.9c0.3-0.1,0.8-0.3,1.2-0.5c0.5-0.2,1-0.5,1.6-0.8c0.6-0.3,1.1-0.7,1.8-1c0.6-0.3,1.2-0.8,1.9-1.2
			c0.7-0.4,1.3-0.9,2-1.4c0.7-0.5,1.3-1,2-1.5c0.6-0.5,1.3-1.1,1.9-1.6c0.6-0.6,1.3-1.1,1.8-1.6c0.6-0.5,1.1-1.1,1.7-1.6
			c0.5-0.5,1-1,1.5-1.4c0.9-0.9,1.7-1.7,2.2-2.2c0.5-0.5,0.8-0.8,0.8-0.8s-0.8,1.6-2.3,3.6c-0.4,0.5-0.8,1.1-1.3,1.6
			c-0.5,0.6-1,1.2-1.6,1.7c-0.6,0.6-1.1,1.2-1.8,1.8c-0.6,0.6-1.3,1.1-1.9,1.7c-0.7,0.5-1.4,1.1-2.1,1.5c-0.7,0.5-1.4,0.9-2.1,1.3
			c-0.7,0.4-1.4,0.8-2.1,1.1c-0.7,0.3-1.3,0.6-2,0.8c-0.6,0.2-1.2,0.3-1.7,0.5c-0.5,0.1-1,0.2-1.4,0.2c-0.8,0.1-1.2,0.1-1.2,0.1
			S58.1,169.2,58.8,168.9z M65,169.2c0.5,0.4,0.9,0.6,1.3,0.9c-0.6-0.1-1.2-0.1-1.9-0.2C64.8,169.5,65,169.2,65,169.2z M63.2,177.2
			c0.5,0.6,1,1.3,1.5,2.1c0.5,0.7,0.9,1.5,1.3,2.2c0.4,0.8,0.8,1.5,1.1,2.3c0.4,0.8,0.7,1.6,1,2.3c0.3,0.8,0.5,1.5,0.8,2.2
			c0.2,0.7,0.4,1.4,0.6,2c0.6,2.5,0.8,4.2,0.8,4.2s-0.2-0.4-0.4-1.1c-0.3-0.7-0.7-1.7-1.2-2.9c-0.3-0.6-0.5-1.2-0.8-1.9
			c-0.3-0.7-0.6-1.4-0.9-2.1c-0.3-0.7-0.7-1.4-1.1-2.2c-0.4-0.8-0.8-1.5-1.2-2.2c-0.4-0.7-0.8-1.5-1.2-2.2c-0.5-0.7-0.8-1.4-1.3-2
			c-0.5-0.6-0.9-1.3-1.3-1.8c-0.5-0.6-0.8-1.1-1.3-1.6c-0.4-0.5-0.8-0.9-1.2-1.3c-0.3-0.4-0.7-0.7-1-0.9c-0.5-0.5-0.8-0.8-0.8-0.8
			s0.4,0.2,1,0.6c0.3,0.2,0.7,0.4,1.2,0.7c0.4,0.3,0.9,0.7,1.4,1.1c0.5,0.4,1,0.9,1.5,1.5C62.2,176,62.7,176.6,63.2,177.2z
			 M105.4,176.2c-0.7-0.2-1.8-0.5-3-0.8c-0.6-0.1-1.3-0.3-2-0.5c-0.7-0.2-1.5-0.3-2.2-0.5c-0.8-0.2-1.6-0.3-2.4-0.5
			c-0.8-0.2-1.6-0.3-2.5-0.4c-0.8-0.1-1.7-0.2-2.5-0.3c-0.8,0-1.6-0.2-2.4-0.2c-0.8,0-1.5-0.1-2.3-0.1c-0.7,0-1.4,0-2,0.1
			c-0.5,0.1-1,0.1-1.4,0.1c-0.4-0.1-0.8-0.2-1.2-0.3c0.2-0.1,0.5-0.2,0.7-0.3c0.5-0.1,1.1-0.3,1.7-0.5c0.6-0.2,1.3-0.2,2.1-0.3
			c0.7-0.1,1.5-0.1,2.4-0.2c0.8,0,1.7,0,2.5,0.1c0.9,0.1,1.7,0.2,2.6,0.3c0.9,0.2,1.7,0.3,2.5,0.5c0.8,0.2,1.7,0.4,2.4,0.6
			c0.8,0.2,1.5,0.5,2.2,0.7c0.7,0.2,1.4,0.5,2,0.7c2.4,1,3.9,1.9,3.9,1.9S106.1,176.4,105.4,176.2z"/>
		<path class="st1" d="M138.4,104.6c0,0,1.7-5.7-7.6-1.4c0,0-2-4.9-6.4,1.9c0,0-4.9-1-4.4,5.3c0,0-4.4,0.1-4.2,4.1
			c-3.4,0.8-6.7,1.8-9.7,3c1-1.2,0.9-2.8,0.9-2.8c7.2-3.7,2.6-6.2,2.6-6.2c5.2-8.8-0.6-7.7-0.6-7.7c1.3-12.7-5.5-3.1-5.5-3.1
			c-2-2.3-2.2,2.4-2.1,5.6c-0.6-1.8-2.2-2-2.2-2c-2.1-1.2-2.1,1.8-2.1,1.8c-4.4-1.6-1.1,9.2-1.1,9.2c-5-1.8-0.5,9.5-0.5,9.5
			c0.3,0.1,0.5,0.2,0.8,0.3c-1.9,1-3.6,2.1-5.3,3.2c1.2-1.6,0.3-3.6,0.3-3.6c5.7-5.9,0.4-6.7,0.4-6.7c2.1-10-3.1-7.1-3.1-7.1
			c-2.8-12.4-6.2-1.1-6.2-1.1c-2.7-1.6-1.3,3-0.2,6c-1.1-1.5-2.7-1.2-2.7-1.2c-2.4-0.4-1.4,2.4-1.4,2.4c-4.7-0.1,1.9,9.1,1.9,9.1
			c-4.9-0.1,1.4,7.8,2.4,9c-1,1-2,1.9-2.9,2.9c-0.1,0.1-0.1,0.1-0.2,0.2c-10.6,11-14.1,21.9-14.2,22.1l1.4,0.4
			c0.1-0.2,3.1-9.5,12.1-19.6c1.4,2.1,6.3,8.9,7.6,4.6c0,0,6.8,9,8.1,4.5c0,0,2.4,1.8,2.7-0.6c0,0,0.8-1.4-0.3-2.9
			c2.5,1.9,6.4,4.6,5.7,1.6c0,0,11.8,0.1,0.8-6.2c0,0,4.4-4.1-5.8-5c0,0,0.8-5.2-6.5-1.6c0,0-3.7-3.4-6.4,2.3c0,0-0.8-0.5-1.9-0.6
			c0.7-0.6,1.4-1.3,2.1-1.9c1.2-0.3,1.8-1,2.2-1.8c4-3.2,8.7-6.3,14.2-8.9c0.4,2.3,2.3,10.8,5.3,7.3c0,0,2.8,10.9,5.7,7.3
			c0,0,1.5,2.6,2.7,0.5c0,0,1.3-1,0.8-2.8c1.6,2.7,4.1,6.7,4.7,3.7c0,0,10.8,4.7,3.1-5.5c0,0,5.6-2.1-3.4-6.9c0,0,2.7-4.5-5.4-4
			c0,0-2.1-4.5-6.8-0.3c0,0-0.6-0.8-1.6-1.4c3.1-1.2,6.4-2.2,10-3.1c0,0,0,0,0,0c0,0,10.7,5.5,9.5,0.4c0,0,10.4,4.3,9.2-0.2
			c0,0,3,0.3,2-1.9c0,0,0-1.6-1.7-2.4c3.1,0.4,7.9,0.7,5.8-1.5C140.9,110.4,151.2,104.5,138.4,104.6z M85.9,110.2c0-0.6,0-1,0-1
			s0.5,1.4,0.8,3.5c0.1,0.5,0.2,1.1,0.2,1.7c0.1,0.6,0.1,1.3,0.1,2c0,0.7,0,1.4,0,2.1c0,0.7-0.1,1.4-0.1,2.2
			c-0.1,0.7-0.2,1.4-0.3,2.2c-0.1,0.7-0.3,1.4-0.5,2.1c-0.2,0.7-0.4,1.3-0.6,1.9c-0.2,0.6-0.4,1.1-0.7,1.6c-0.3,0.5-0.5,0.9-0.7,1.3
			c-0.2,0.4-0.5,0.7-0.7,0.9c-0.4,0.5-0.6,0.8-0.6,0.8s0.1-0.3,0.4-0.9c0.1-0.3,0.3-0.6,0.4-1c0.1-0.4,0.3-0.9,0.5-1.4
			c0.2-0.5,0.3-1.1,0.5-1.6c0.2-0.6,0.2-1.2,0.4-1.9c0.1-0.6,0.2-1.3,0.3-2c0.1-0.7,0.2-1.4,0.2-2.1c0.1-0.7,0.1-1.4,0.2-2.1
			c0-0.7,0.1-1.4,0.1-2c0-0.7,0-1.3,0-1.9c0-0.6,0-1.2,0-1.7C85.9,111.8,85.9,110.9,85.9,110.2z M87.1,127.1
			c0.7-0.1,1.3-0.3,1.9-0.5c-0.6,0.4-1.2,0.9-1.8,1.3C87.2,127.4,87.1,127.1,87.1,127.1z M79.9,136.8c0.3-0.1,0.7-0.3,1.1-0.3
			c0.4-0.1,0.9-0.2,1.5-0.3c0.5-0.1,1.1-0.1,1.8-0.2c0.6-0.1,1.3,0,2,0c0.7,0,1.4,0.1,2.1,0.2c0.7,0.1,1.4,0.2,2.1,0.4
			c0.7,0.2,1.4,0.3,2.1,0.5c0.7,0.2,1.4,0.4,2,0.6c0.6,0.2,1.3,0.5,1.8,0.7c0.6,0.2,1.1,0.5,1.6,0.7c2,1,3.1,1.8,3.1,1.8
			s-0.3-0.1-0.9-0.3c-0.6-0.2-1.4-0.5-2.5-0.8c-0.5-0.2-1.1-0.3-1.6-0.5c-0.6-0.2-1.2-0.4-1.8-0.5c-0.6-0.2-1.3-0.3-2-0.5
			c-0.7-0.2-1.4-0.3-2-0.5c-0.7-0.1-1.4-0.3-2.1-0.4c-0.7-0.1-1.4-0.2-2-0.3c-0.7,0-1.3-0.2-1.9-0.2c-0.6,0-1.2-0.1-1.7-0.1
			c-0.5,0-1,0-1.4,0c-0.4,0-0.8,0.1-1.1,0.1c-0.3,0-0.4,0-0.6,0.1c0.1-0.1,0.1-0.1,0.2-0.2C79.6,136.9,79.8,136.9,79.9,136.8z
			 M96.6,120.6c0.2-0.2,0.5-0.5,0.7-0.8c0.3-0.3,0.6-0.7,0.9-1.1c0.3-0.4,0.6-0.9,1-1.4c0.3-0.5,0.6-1.1,1-1.6
			c0.3-0.6,0.6-1.2,1-1.8c0.3-0.6,0.6-1.3,0.9-1.9c0.3-0.6,0.6-1.3,0.8-1.9c0.2-0.6,0.5-1.3,0.7-1.9c0.2-0.6,0.5-1.2,0.7-1.8
			c0.2-0.6,0.4-1.1,0.6-1.6c0.3-1,0.6-1.9,0.8-2.5c0.2-0.6,0.3-0.9,0.3-0.9s0,1.5-0.4,3.6c-0.1,0.5-0.2,1.1-0.4,1.7
			c-0.1,0.6-0.3,1.2-0.5,1.9c-0.2,0.7-0.4,1.3-0.7,2c-0.2,0.7-0.5,1.3-0.8,2c-0.3,0.7-0.6,1.3-1,1.9c-0.4,0.6-0.7,1.2-1.1,1.8
			c-0.4,0.6-0.8,1.1-1.2,1.6c-0.4,0.5-0.8,0.9-1.2,1.3c-0.4,0.4-0.8,0.7-1.1,1c-0.3,0.3-0.7,0.5-0.9,0.7c-0.5,0.4-0.8,0.6-0.8,0.6
			S96.2,121.1,96.6,120.6z M101.4,118.5c0.7,0.1,1.3,0.2,1.8,0.2c-0.7,0.3-1.4,0.6-2.1,0.9C101.4,119,101.4,118.5,101.4,118.5z
			 M102.7,120.8c0.3,0,0.7,0,1.1,0.1c0.4,0.1,0.9,0.2,1.5,0.3c0.5,0.1,1.1,0.3,1.7,0.5c0.6,0.2,1.2,0.5,1.8,0.8
			c0.6,0.3,1.2,0.6,1.9,1c0.6,0.4,1.2,0.8,1.8,1.2c0.6,0.4,1.2,0.9,1.7,1.3c0.6,0.4,1.1,0.9,1.6,1.4c0.5,0.4,1,0.9,1.4,1.4
			c0.4,0.4,0.8,0.9,1.2,1.3c1.4,1.6,2.2,2.9,2.2,2.9s-0.3-0.2-0.7-0.7c-0.5-0.4-1.2-1-2-1.7c-0.4-0.3-0.9-0.7-1.3-1.1
			c-0.5-0.4-1-0.8-1.5-1.2c-0.5-0.4-1.1-0.8-1.6-1.2c-0.5-0.4-1.1-0.8-1.7-1.2c-0.6-0.4-1.2-0.8-1.7-1.2c-0.6-0.3-1.2-0.7-1.7-1
			c-0.6-0.3-1.1-0.6-1.7-0.9c-0.6-0.2-1.1-0.5-1.5-0.7c-0.5-0.2-0.9-0.4-1.3-0.5c-0.4-0.2-0.8-0.2-1.1-0.3c-0.3-0.1-0.6-0.2-0.7-0.2
			c0,0,0.1,0,0.1-0.1C102.2,120.8,102.4,120.8,102.7,120.8z M136.8,107.8c-0.6,0.1-1.5,0.3-2.5,0.6c-0.5,0.1-1.1,0.3-1.7,0.4
			c-0.6,0.1-1.2,0.3-1.9,0.5c-0.6,0.2-1.3,0.4-2,0.6c-0.7,0.2-1.3,0.4-2,0.6c-0.7,0.2-1.3,0.5-2,0.7c-0.6,0.3-1.3,0.5-1.9,0.8
			c-0.6,0.3-1.2,0.5-1.7,0.8c-0.5,0.3-1,0.5-1.5,0.8c-0.1,0.1-0.3,0.2-0.4,0.2c-0.4,0.1-0.9,0.2-1.3,0.3c0,0,0.1-0.1,0.1-0.1
			c0.3-0.3,0.7-0.6,1.1-1c0.4-0.4,0.9-0.7,1.4-1c0.5-0.4,1.1-0.7,1.7-1c0.6-0.3,1.2-0.6,1.9-0.9c0.7-0.3,1.3-0.5,2-0.8
			c0.7-0.2,1.4-0.4,2.1-0.6c0.7-0.2,1.4-0.3,2-0.5c0.7-0.1,1.3-0.2,1.9-0.3c0.6-0.1,1.2-0.1,1.7-0.2c2.2-0.2,3.6,0,3.6,0
			S137.4,107.7,136.8,107.8z"/>
		<path class="st1" d="M127.6,64.9c0,0,2.9-4-5.5-3.1c0,0-0.2-4.3-5.5-0.2c0,0-3.5-2.1-4.8,2.9c0,0-1.6-0.5-2.9,0.1
			c1.8-2.6,3.8-5.3,6.2-7.9c1.9-0.3,8.9-1.5,6.2-4c0,0,9-1.8,6.2-4.4c0,0,2.2-1.1,0.5-2.2c0,0-0.7-1.1-2.3-0.8
			c2.3-1.2,5.7-3.1,3.2-3.7c0,0,4.3-8.6-4.3-2.8c0,0-1.5-4.7-5.8,2.5c0,0-3.6-2.4-3.5,4.2c0,0-3.8,1.5-0.6,5.6c0,0-3.2,2.2-0.7,5
			c-1.6,1.8-3.1,3.5-4.4,5.3c0.4-1.4-0.6-2.7-0.6-2.7c3.2-5.8-1.1-5.4-1.1-5.4c-0.5-8.4-3.9-4.9-3.9-4.9c-4.9-9.2-5.1,0.4-5.1,0.4
			c-2.4-0.7-0.4,2.6,1.1,4.7c-1.2-1-2.4-0.3-2.4-0.3c-2,0.2-0.6,2.2-0.6,2.2c-3.7,0.9,3.4,6.8,3.4,6.8c-4.2,1.1,4,6.7,4,6.7
			c0.2,0,0.4-0.1,0.6-0.2c-1.1,2-2,3.9-2.8,5.8c0.6-2-1.3-3.2-1.3-3.2c1.2-6.6-2.8-4.7-2.8-4.7c-3.1-7.8-5.3-3.4-5.3-3.4
			c-7.6-7.2-4.7,2.1-4.7,2.1c-2.5,0.1,0.5,2.6,2.6,4.1c-1.5-0.5-2.4,0.4-2.4,0.4c-1.8,0.8,0.1,2.3,0.1,2.3c-3.2,2.1,5.4,5.3,5.4,5.3
			c-3.4,2.2,4.7,4.7,5.8,5c-0.3,1.2-0.6,2.4-0.8,3.6c-0.4,0.6-0.6,1.4-0.4,2.5c-1.6,11.3,0.7,19.3,0.7,19.5l1.2-0.3
			c0-0.1-2.1-7.5-0.9-17.9c2.2,0.9,8,2.9,7-0.5c0,0,8.7,3,7.5-0.6c0,0,2.4,0.1,1.5-1.6c0,0-0.1-1.3-1.5-1.9c2.6,0.2,6.5,0.2,4.6-1.5
			c0,0,8.1-5.3-2.3-4.6c0,0,1.1-4.8-6.3-0.8c0,0-1.9-3.9-5.2,1.9c0,0-4.1-0.6-3.3,4.5c0,0-0.6,0.1-1.3,0.3c0.3-1.2,0.6-2.5,0.9-3.7
			c0.5-0.6,0.6-1.3,0.6-1.9c1.3-3.9,3.1-8.1,5.6-12.3c0,0.2-0.1,0.4-0.1,0.6c0,0,6.8,7.2,7.2,2.9c0,0,6.9,6.1,7.2,2.3
			c0,0,2.2,1,2.1-0.9c0,0,0.4-1.2-0.7-2.3c2.3,1.2,5.9,2.7,4.9,0.4C128,70.1,137.5,68.3,127.6,64.9z M115.2,54.4
			c0.1-0.4,0.2-0.8,0.3-1.2c0.1-0.4,0.3-0.9,0.5-1.4c0.2-0.5,0.4-1,0.7-1.5c0.3-0.5,0.6-1,0.9-1.5c0.3-0.5,0.7-1,1-1.5
			c0.4-0.5,0.7-0.9,1.1-1.4c0.4-0.4,0.8-0.9,1.2-1.2c0.4-0.4,0.8-0.8,1.2-1.1c0.4-0.3,0.8-0.6,1.1-0.9c1.4-1.1,2.5-1.7,2.5-1.7
			s-0.2,0.2-0.6,0.6c-0.4,0.4-0.9,0.9-1.5,1.5c-0.3,0.3-0.6,0.7-1,1c-0.3,0.4-0.7,0.8-1,1.2c-0.4,0.4-0.7,0.8-1.1,1.3
			c-0.4,0.4-0.7,0.9-1.1,1.3c-0.3,0.5-0.7,0.9-1,1.4c-0.3,0.5-0.7,0.9-0.9,1.4c-0.3,0.5-0.6,0.9-0.8,1.3c-0.2,0.4-0.5,0.8-0.7,1.2
			c-0.2,0.4-0.3,0.8-0.5,1.1c0,0,0,0.1,0,0.1c-0.2,0.2-0.3,0.3-0.5,0.5C115.1,54.9,115.1,54.7,115.2,54.4z M105.3,66.6
			c-0.1,0.4-0.2,0.6-0.3,0.9c-0.2,0.5-0.3,0.8-0.3,0.8s0-0.3,0.1-0.8c0-0.3,0.1-0.6,0.1-0.9c0-0.4,0-0.8,0.1-1.2c0-0.4,0-0.9,0-1.4
			c0-0.5-0.1-1-0.1-1.6c0-0.5-0.1-1.1-0.2-1.7c-0.1-0.6-0.2-1.1-0.3-1.7c-0.1-0.6-0.2-1.1-0.3-1.7c-0.1-0.6-0.2-1.1-0.4-1.6
			c-0.1-0.5-0.2-1-0.4-1.5c-0.1-0.5-0.2-0.9-0.4-1.4c-0.2-0.8-0.4-1.6-0.6-2c-0.1-0.5-0.2-0.8-0.2-0.8s0.7,1,1.4,2.6
			c0.2,0.4,0.4,0.8,0.5,1.3c0.2,0.5,0.4,1,0.5,1.5c0.2,0.5,0.3,1.1,0.5,1.7c0.1,0.6,0.2,1.2,0.4,1.7c0.1,0.6,0.2,1.2,0.2,1.8
			c0,0.6,0.1,1.2,0.1,1.7c0,0.6,0,1.1-0.1,1.6c-0.1,0.5-0.1,1-0.2,1.4C105.5,65.9,105.4,66.3,105.3,66.6z M107.1,63.9
			c0.7-0.3,1.3-0.6,1.7-1c-0.5,0.7-0.9,1.3-1.3,2C107.3,64.3,107.1,63.9,107.1,63.9z M99.6,81c-0.1-0.3-0.1-0.6-0.2-0.9
			c-0.1-0.3-0.2-0.7-0.3-1.1c-0.1-0.4-0.3-0.9-0.4-1.3c-0.1-0.5-0.4-0.9-0.6-1.4c-0.2-0.5-0.5-1-0.7-1.5c-0.2-0.5-0.5-1-0.8-1.5
			c-0.3-0.5-0.5-1-0.8-1.5c-0.3-0.5-0.6-1-0.9-1.4c-0.3-0.5-0.6-0.9-0.8-1.3c-0.3-0.4-0.5-0.8-0.8-1.2c-0.5-0.7-0.9-1.3-1.2-1.8
			c-0.3-0.4-0.5-0.7-0.5-0.7s0.9,0.7,2.2,2c0.3,0.3,0.6,0.7,0.9,1.1c0.3,0.4,0.7,0.8,1,1.3c0.3,0.4,0.7,0.9,1,1.4
			c0.3,0.5,0.6,1,0.9,1.5c0.3,0.5,0.5,1.1,0.8,1.6c0.2,0.5,0.5,1.1,0.6,1.6c0.2,0.5,0.4,1,0.5,1.6c0.1,0.5,0.2,1,0.3,1.4
			c0,0.4,0.1,0.9,0.1,1.2c0,0.4,0,0.7,0,0.9c0,0.5,0,0.8,0,0.8S99.7,81.6,99.6,81z M101.1,86.7c0.3-0.3,0.7-0.6,1.1-0.9
			c0.4-0.3,0.9-0.6,1.3-0.9c0.5-0.3,1-0.6,1.5-0.8c0.5-0.3,1.1-0.5,1.6-0.7c0.6-0.2,1.1-0.4,1.7-0.6c0.6-0.2,1.1-0.3,1.7-0.5
			c0.5-0.1,1.1-0.3,1.6-0.3c0.5-0.1,1-0.2,1.4-0.2c1.8-0.2,3-0.2,3-0.2s-0.3,0.1-0.8,0.2c-0.5,0.1-1.2,0.3-2,0.6
			c-0.4,0.1-0.9,0.3-1.4,0.4c-0.5,0.1-1,0.3-1.5,0.5c-0.5,0.2-1,0.4-1.6,0.5c-0.5,0.2-1.1,0.4-1.6,0.6c-0.5,0.2-1.1,0.4-1.6,0.7
			c-0.5,0.3-1,0.5-1.5,0.7c-0.5,0.3-0.9,0.5-1.4,0.7c-0.4,0.3-0.8,0.5-1.2,0.7c-0.3,0.3-0.7,0.5-1,0.7c-0.3,0.2-0.5,0.4-0.7,0.6
			c0,0,0,0-0.1,0c0-0.1,0-0.3,0.1-0.4c0.1-0.2,0.3-0.3,0.4-0.5C100.5,87.3,100.8,87,101.1,86.7z M100.6,76.9
			c0.7-0.6,1.2-1.2,1.4-1.8c-0.3,0.8-0.6,1.6-0.9,2.4C100.9,77.1,100.6,76.9,100.6,76.9z M125.5,66.9c-0.5-0.1-1.2-0.2-2.1-0.3
			c-0.4,0-0.9-0.1-1.4-0.1c-0.5,0-1-0.1-1.6-0.1c-0.5-0.1-1.1-0.1-1.7-0.1c-0.6,0-1.1,0-1.7-0.1c-0.6,0-1.2,0-1.7,0
			c-0.6,0-1.1,0-1.7,0.1c-0.5,0.1-1.1,0.1-1.5,0.2c-0.5,0.1-1,0.1-1.4,0.2c-0.4,0.1-0.8,0.2-1.2,0.3c-0.3,0.1-0.6,0.2-0.9,0.3
			c-0.5,0.1-0.8,0.2-0.8,0.2s0.2-0.2,0.7-0.4c0.2-0.1,0.5-0.3,0.8-0.4c0.3-0.1,0.7-0.3,1.1-0.5c0.4-0.2,0.9-0.3,1.4-0.4
			c0.5-0.1,1-0.2,1.6-0.3c0.6-0.1,1.1-0.1,1.7-0.2c0.6,0,1.2,0,1.8,0c0.6,0,1.2,0,1.8,0.1c0.6,0,1.2,0.1,1.7,0.2
			c0.6,0.1,1.1,0.2,1.6,0.3c0.5,0.1,1,0.2,1.4,0.3c1.7,0.5,2.8,1,2.8,1S126,67,125.5,66.9z"/>
		<path class="st1" d="M93.8,47.8c1.8-0.3,6.6-1.3,4.5-3.1c0,0,7.1-1.5,4.8-3.5c0,0,1.7-0.9,0.4-1.7c0,0-0.6-0.9-1.8-0.6
			c1.8-0.9,4.5-2.5,2.5-2.9c0,0,3.3-6.8-3.4-2.2c0,0-1.2-3.7-4.5,2c0,0-2.8-1.9-2.7,3.4c0,0-3,1.2-0.4,4.4c0,0-0.4,0.3-0.7,0.8
			c-0.3-0.9-0.6-1.9-0.9-2.9c0.1-0.6-0.1-1.1-0.4-1.5c-0.7-3.2-1.2-6.7-1.2-10.5c0.1,0.2,0.1,0.3,0.2,0.5c0,0,7.5,2.1,6-1
			c0,0,7.1,1.4,5.8-1.3c0,0,1.9-0.2,1-1.5c0,0-0.2-1-1.4-1.3c2-0.1,5.1-0.6,3.4-1.7c0,0,5.7-5-2.3-3.3c0,0,0.3-3.8-5,0.1
			c0,0-1.9-2.9-3.8,2c0,0-3.2,0-2.1,3.9c0,0-1.3,0.3-1.9,1.2c0.1-2.5,0.5-5.1,1-7.8c1.2-1,5.5-4.6,2.6-5.2c0,0,5.4-4.9,2.4-5.4
			c0,0,1-1.6-0.6-1.7c0,0-0.9-0.4-1.9,0.4c1.1-1.7,2.6-4.4,0.7-3.8c0,0-0.6-7.6-4.1-0.1c0,0-2.9-2.6-2.9,4c0,0-3.4-0.2-0.6,4.3
			c0,0-1.9,2.6,1.9,4c0,0-1.2,2.8,1.5,3.7c-0.4,1.8-0.6,3.6-0.8,5.3C89,23.4,87.8,23,87.8,23c-0.2-5.3-2.9-3.2-2.9-3.2
			c-3.7-5.5-4.6-1.7-4.6-1.7c-7-4.3-3.3,2.4-3.3,2.4c-1.9,0.5,0.8,1.9,2.7,2.8c-1.2-0.2-1.8,0.7-1.8,0.7c-1.3,0.9,0.5,1.7,0.5,1.7
			c-2.1,2.1,5,3.2,5,3.2c-2.4,2.4,5.4,2.9,5.4,2.9c0.1-0.1,0.2-0.2,0.3-0.3c0.1,1.8,0.2,3.5,0.5,5.1c-0.4-1.6-2.2-1.6-2.2-1.6
			c-1.8-4.9-3.8-2.1-3.8-2.1c-5.2-4-5-0.2-5-0.2c-8-1.8-2.4,3.3-2.4,3.3c-1.6,1.1,1.4,1.6,3.4,1.7c-1.2,0.2-1.4,1.3-1.4,1.3
			c-0.9,1.3,1,1.5,1,1.5c-1.3,2.7,5.8,1.4,5.8,1.4c-1.4,2.9,5.1,1.3,5.9,1.1c0.3,1,0.6,1.9,0.9,2.8c-0.1,0.6,0.1,1.2,0.7,1.9
			c3.5,8.3,8.3,12.8,8.4,12.8l0.6-0.7C101.6,59.5,97.2,55.4,93.8,47.8z M90.8,28.8c0.1-0.2,0.2-0.4,0.4-0.6c0.2-0.2,0.4-0.5,0.6-0.8
			c0.2-0.3,0.5-0.5,0.8-0.8c0.3-0.3,0.6-0.6,0.9-0.9c0.3-0.3,0.7-0.6,1.1-0.8c0.4-0.3,0.8-0.5,1.2-0.8c0.4-0.2,0.8-0.5,1.2-0.7
			c0.4-0.2,0.8-0.4,1.2-0.6c0.4-0.2,0.8-0.3,1.2-0.4c0.4-0.1,0.7-0.2,1.1-0.3c1.3-0.4,2.3-0.5,2.3-0.5s-0.2,0.1-0.6,0.3
			c-0.4,0.2-0.9,0.4-1.5,0.7c-0.3,0.1-0.6,0.3-1,0.5c-0.4,0.2-0.7,0.4-1.1,0.5c-0.4,0.2-0.8,0.4-1.2,0.6c-0.4,0.2-0.8,0.4-1.2,0.7
			c-0.4,0.2-0.8,0.5-1.2,0.7c-0.4,0.3-0.7,0.5-1.1,0.7c-0.3,0.3-0.7,0.5-1,0.7c-0.3,0.3-0.6,0.5-0.8,0.7c-0.2,0.2-0.5,0.4-0.7,0.6
			c-0.2,0.2-0.4,0.4-0.5,0.5c-0.3,0.3-0.4,0.5-0.4,0.5S90.6,29.2,90.8,28.8z M93.4,46.1c0.1-0.3,0.1-0.6,0.2-0.9
			c0.1-0.3,0.2-0.7,0.4-1.1c0.1-0.4,0.3-0.8,0.5-1.2c0.2-0.4,0.4-0.8,0.7-1.2c0.3-0.4,0.5-0.8,0.8-1.2c0.3-0.4,0.6-0.7,0.9-1.1
			c0.3-0.3,0.6-0.7,0.9-1c0.3-0.3,0.6-0.6,0.9-0.9c0.3-0.3,0.6-0.5,0.9-0.7c1.1-0.9,1.9-1.3,1.9-1.3s-0.2,0.2-0.4,0.5
			c-0.3,0.3-0.7,0.7-1.1,1.2c-0.2,0.3-0.5,0.5-0.7,0.8c-0.3,0.3-0.5,0.6-0.8,0.9c-0.3,0.3-0.6,0.7-0.8,1c-0.3,0.3-0.6,0.7-0.8,1.1
			c-0.3,0.4-0.5,0.7-0.8,1.1c-0.2,0.4-0.5,0.7-0.7,1.1c-0.2,0.4-0.4,0.7-0.6,1.1c-0.2,0.3-0.4,0.7-0.5,1c-0.1,0.3-0.3,0.6-0.4,0.9
			c-0.1,0.3-0.2,0.5-0.3,0.7c0,0,0,0,0,0.1c0-0.1-0.1-0.2-0.1-0.3C93.4,46.5,93.4,46.3,93.4,46.1z M90.2,17.7
			c-0.1-0.3-0.2-0.6-0.3-0.9c-0.1-0.3-0.1-0.7-0.2-1.1c-0.1-0.4-0.1-0.8-0.1-1.3c0-0.4,0-0.9,0-1.4c0-0.5,0.1-0.9,0.1-1.4
			c0.1-0.5,0.1-0.9,0.2-1.4c0.1-0.5,0.2-0.9,0.3-1.3c0.1-0.4,0.2-0.8,0.4-1.2c0.1-0.4,0.3-0.7,0.4-1.1c0.5-1.3,1-2.1,1-2.1
			s-0.1,0.2-0.1,0.6c-0.1,0.4-0.2,1-0.4,1.6c-0.1,0.3-0.1,0.7-0.2,1.1c-0.1,0.4-0.2,0.8-0.2,1.2c-0.1,0.4-0.1,0.9-0.2,1.3
			c-0.1,0.4-0.1,0.9-0.2,1.3c0,0.4-0.1,0.9-0.1,1.3c0,0.4-0.1,0.9-0.1,1.3c0,0.4,0,0.8,0,1.2c0,0.4,0,0.8,0.1,1.1
			c0,0.3,0.1,0.6,0.1,0.9c0,0,0,0.1,0,0.1c0,0.2-0.1,0.3-0.1,0.5C90.3,18.1,90.2,17.9,90.2,17.7z M88.4,30.7
			c-0.1-0.2-0.2-0.4-0.3-0.7c-0.1-0.2-0.3-0.5-0.4-0.8c-0.2-0.3-0.4-0.6-0.6-0.9c-0.2-0.3-0.5-0.7-0.7-1c-0.2-0.4-0.5-0.7-0.8-1.1
			c-0.3-0.4-0.6-0.7-0.9-1c-0.3-0.3-0.6-0.7-0.9-1c-0.3-0.3-0.6-0.7-0.9-1c-0.3-0.3-0.6-0.6-0.9-0.9c-0.3-0.3-0.5-0.5-0.8-0.8
			c-0.5-0.5-0.9-0.9-1.2-1.1c-0.3-0.3-0.5-0.4-0.5-0.4s0.9,0.4,2,1.2c0.3,0.2,0.6,0.4,0.9,0.7c0.3,0.2,0.6,0.5,1,0.8
			c0.3,0.3,0.7,0.6,1,0.9c0.3,0.3,0.6,0.7,0.9,1c0.3,0.4,0.6,0.7,0.9,1.1c0.3,0.4,0.5,0.8,0.8,1.1c0.2,0.4,0.4,0.7,0.6,1.1
			c0.2,0.4,0.3,0.7,0.4,1c0.1,0.3,0.2,0.6,0.3,0.9c0.1,0.3,0.1,0.5,0.1,0.7c0.1,0.4,0.1,0.6,0.1,0.6S88.6,31,88.4,30.7z M88.5,27.3
			c0.4-0.5,0.6-0.9,0.7-1.3c0,0.6-0.1,1.3-0.1,1.9C88.8,27.5,88.5,27.3,88.5,27.3z M90.4,41.9c-0.1-0.1-0.3-0.3-0.5-0.5
			c-0.2-0.2-0.4-0.4-0.7-0.6c-0.2-0.2-0.5-0.5-0.8-0.7c-0.3-0.3-0.6-0.5-1-0.7c-0.3-0.3-0.7-0.5-1.1-0.7c-0.4-0.2-0.8-0.5-1.1-0.7
			c-0.4-0.2-0.8-0.5-1.2-0.7c-0.4-0.2-0.8-0.4-1.2-0.6c-0.4-0.2-0.8-0.4-1.1-0.6c-0.4-0.2-0.7-0.3-1-0.5c-0.6-0.3-1.2-0.5-1.5-0.7
			c-0.4-0.2-0.6-0.3-0.6-0.3s0.9,0.1,2.3,0.5c0.3,0.1,0.7,0.2,1.1,0.4c0.4,0.1,0.8,0.3,1.2,0.5c0.4,0.2,0.8,0.4,1.2,0.6
			c0.4,0.2,0.8,0.4,1.2,0.7c0.4,0.3,0.8,0.5,1.2,0.8c0.4,0.3,0.7,0.5,1.1,0.8c0.3,0.3,0.7,0.6,0.9,0.9c0.3,0.3,0.5,0.6,0.8,0.9
			c0.2,0.3,0.4,0.5,0.6,0.8c0.2,0.2,0.3,0.5,0.4,0.6c0.2,0.4,0.3,0.6,0.3,0.6S90.7,42.2,90.4,41.9z M89.4,38.7
			c0.2-0.7,0.3-1.3,0.3-1.8c0.1,0.7,0.2,1.4,0.4,2C89.7,38.8,89.4,38.7,89.4,38.7z"/>
	</g>
</g>
</svg>
